<svg xmlns="http://www.w3.org/2000/svg" width="63.376" height="44.124" viewBox="0 0 63.376 44.124">
  <g id="Xypd38" transform="translate(-1371.867 -4755.251)">
    <g id="Group_138" data-name="Group 138">
      <path id="Path_197" data-name="Path 197" d="M1371.867,4777.308a3.9,3.9,0,0,1,1.216-1.6q11.514-9.51,23.009-19.039a8.678,8.678,0,0,1,1.555-1.214c.858-.431,1.394-.166,1.547.783a5.923,5.923,0,0,1,.042.925c0,3.3.013,6.6-.009,9.894,0,.55.174.7.71.7q16.851-.024,33.7-.02a1.388,1.388,0,0,1,1.53,1.29,5.672,5.672,0,0,1,.069,1.107q.006,7.482,0,14.965c0,1.65-.489,2.134-2.139,2.134h-32.22c-.916,0-.917,0-.917.914q0,4.422,0,8.844a5.379,5.379,0,0,1-.179,1.529,1.007,1.007,0,0,1-1.523.733,3.758,3.758,0,0,1-.9-.533q-9.786-7.51-19.57-15.023c-1.715-1.32-3.406-2.67-5.037-4.095a4.013,4.013,0,0,1-.889-1.176Z" fill="#717372"/>
    </g>
  </g>
</svg>
