<svg xmlns="http://www.w3.org/2000/svg" width="655.616" height="147.329" viewBox="0 0 655.616 147.329">
  <path id="Path_323" data-name="Path 323" d="M1609.893,1244.793v-64.577h26.574v60.9c0,13.286,8.788,21.873,22.076,21.873s22.075-8.587,22.075-21.873v-60.9h26.575v64.577c0,26.573-19.419,43.947-48.65,43.947C1629.107,1288.74,1609.893,1271.366,1609.893,1244.793Z" transform="translate(-1480.692 -1141.411)" fill="#eb196d"/>
  <rect id="Rectangle_296" data-name="Rectangle 296" width="26.573" height="147.176" transform="translate(501.823 0.153)" fill="#eb196d"/>
  <path id="Path_324" data-name="Path 324" d="M2136.308,1234.367c0-31.479-23.509-54.782-54.783-54.782-31.479,0-55.4,23.3-55.4,54.17,0,31.275,24.735,54.985,57.85,54.985,19.622,0,36.385-7.97,47.219-20.848l-17.785-15.537c-5.518,6.95-15.944,12.879-28.616,12.879-15.127,0-26.165-8.381-29.845-21.463h80.742A72.45,72.45,0,0,0,2136.308,1234.367Zm-81.56-10.017c3.27-12.876,13.49-21.462,26.573-21.462,12.878,0,23.3,8.38,26.574,21.462Z" transform="translate(-1480.692 -1141.411)" fill="#eb196d"/>
  <path id="Path_325" data-name="Path 325" d="M1536.9,1174.64a55.321,55.321,0,0,0-29.626,8.572v-41.8H1480.7v88.465h.037c-.019.6-.045,1.206-.045,1.814,0,31.508,25.165,57.05,56.208,57.05a55.366,55.366,0,0,0,31.86-10.056,49.308,49.308,0,0,0,10.846-9.924,57.315,57.315,0,0,0,13.5-37.07C1593.107,1200.182,1567.942,1174.64,1536.9,1174.64Zm-1.284,86.336a29.126,29.126,0,1,1,28.694-29.123A28.91,28.91,0,0,1,1535.616,1260.976Z" transform="translate(-1480.692 -1141.411)" fill="#eb196d"/>
  <path id="Path_326" data-name="Path 326" d="M1780.233,1174.64a55.324,55.324,0,0,0-29.626,8.572v-41.8h-26.573v88.465h.037c-.019.6-.046,1.206-.046,1.814,0,31.508,25.166,57.05,56.208,57.05a55.364,55.364,0,0,0,31.86-10.056,49.312,49.312,0,0,0,10.847-9.924,57.315,57.315,0,0,0,13.5-37.07C1836.441,1200.182,1811.276,1174.64,1780.233,1174.64Zm-1.283,86.336a29.126,29.126,0,1,1,28.693-29.123A28.91,28.91,0,0,1,1778.95,1260.976Z" transform="translate(-1480.692 -1141.411)" fill="#eb196d"/>
  <path id="Path_327" data-name="Path 327" d="M1909.635,1174.64a55.321,55.321,0,0,0-29.626,8.572v-41.8h-26.573v88.465h.037c-.019.6-.046,1.206-.046,1.814,0,31.508,25.166,57.05,56.208,57.05a55.364,55.364,0,0,0,31.86-10.056,49.3,49.3,0,0,0,10.847-9.925,57.311,57.311,0,0,0,13.5-37.069C1965.843,1200.182,1940.678,1174.64,1909.635,1174.64Zm-1.283,86.336a29.126,29.126,0,1,1,28.693-29.123A28.911,28.911,0,0,1,1908.352,1260.976Z" transform="translate(-1480.692 -1141.411)" fill="#eb196d"/>
</svg>
