<svg xmlns="http://www.w3.org/2000/svg" width="200.199" height="201.788" viewBox="0 0 200.199 201.788">
  <path id="Path_199" data-name="Path 199" d="M1895.142,3831.565c0,30.855-.127,61.711.114,92.564.046,5.922-.948,8.389-7.8,8.357q-92.576-.439-185.153-.054c-5.566.017-7.25-1.433-7.232-7.135q.3-93.771-.007-187.544c-.02-5.819,1.8-7.021,7.266-7q92.575.278,185.152-.049c6.78-.031,7.827,2.372,7.779,8.3C1895.008,3769.853,1895.141,3800.709,1895.142,3831.565Zm-192.4-86.652c0,59.729.031,117.364-.066,175-.007,4,1.553,5.028,5.246,4.959,9.656-.178,19.329-.339,28.973.053,5.27.214,6.8-1.385,6.769-6.726-.215-42.388-.117-84.779-.124-127.168,0-2.66.248-5.313-1.963-7.5C1729.054,3771.142,1716.589,3758.691,1702.747,3744.913Zm183.727,173.613c.4-.528.949-.92.95-1.313q.113-87.336.212-174.672c.008-3.754-1.615-4.38-4.824-4.335-9.927.139-19.867.3-29.783-.058-4.919-.179-6.4,1.3-6.375,6.275.178,43.2.1,86.4.112,129.6,0,2.376-.4,4.88,1.573,6.826Q1867.393,3899.668,1886.474,3918.526Zm-176.711-180.263-1.29,1.96c43.857,42.671,87.715,85.341,130.9,127.359,0-17.025-.05-36.214.054-55.4.015-2.878-1.84-4.287-3.494-5.958q-31.689-32.022-63.41-64.015c-1.863-1.88-3.492-3.989-6.632-3.977C1747.183,3738.3,1728.473,3738.263,1709.763,3738.263Zm41.079,57.948c0,16.873.13,34.772-.094,52.665a13.357,13.357,0,0,0,4.346,10.53c18.063,17.993,36.373,35.774,53.649,54.5,7.794,8.45,15.8,12.041,27.226,11.13,12.536-1,25.213-.171,37.827-.289,1.913-.018,4.32,1.154,6.351-2.373Zm29.712-57.956,58.824,57.239c0-16.5-.094-34.436.073-52.366.037-3.956-1.418-4.974-5.156-4.941C1816.629,3738.341,1798.962,3738.255,1780.554,3738.255Zm27.809,186.556-57.515-56.041c0,16.368.095,33.735-.072,51.1-.038,3.916,1.359,5.039,5.127,5.006C1773.036,3924.726,1790.172,3924.811,1808.363,3924.811Z" transform="translate(-1695.06 -3730.699)" fill="#e7e7e7"/>
</svg>
