<svg xmlns="http://www.w3.org/2000/svg" width="57.631" height="59.799" viewBox="0 0 57.631 59.799">
  <g id="Group_64" data-name="Group 64" transform="translate(-940.206 -5863.983)">
    <path id="Path_60" data-name="Path 60" d="M953.133,5863.983a3.649,3.649,0,0,1,2.7,2.555c1.716,4.567,3.154,9.227,4.644,13.868a17.151,17.151,0,0,0,1.732,3.871c.352.565.307.632-.367.628a13.481,13.481,0,0,0-8.129,2.4,13.232,13.232,0,0,0-2.905,2.842c-.181.24-.363.48-.54-.017a42.412,42.412,0,0,0-4.051-7.79c-1.889-3.082-3.8-6.148-5.57-9.3a3.024,3.024,0,0,1,.068-3.237,8.538,8.538,0,0,1,3.52-3.138,24.473,24.473,0,0,1,6.8-2.684Z"/>
    <path id="Path_61" data-name="Path 61" d="M995.613,5883.312a3.85,3.85,0,0,1,.928,1.682,8.536,8.536,0,0,1-2.952,10.1,32.024,32.024,0,0,0-3.065,2.418,4.441,4.441,0,0,0-.67.8,1.787,1.787,0,0,0,.214,2.3,8.472,8.472,0,0,0,2.676,1.73,21.38,21.38,0,0,1,3.133,1.677c2.5,1.791,2.61,3.865.329,5.923a22.386,22.386,0,0,1-5.486,3.392c-2.017.968-4.1,1.782-6.162,2.643-.16.067-.315.147-.536.25a5.053,5.053,0,0,0,1.405.588c1.936.59,3.955.828,5.9,1.389a9.772,9.772,0,0,1,4.369,2.348,2.679,2.679,0,0,1,.277.3.973.973,0,0,1-.583,1.65c-1.837.42-3.692.755-5.562,1a46.805,46.805,0,0,1-13.634-.559,5.5,5.5,0,0,1-2.515-1.027c-.27-.209-.682-.464-.077-.82.226-.133.006-.353-.065-.514q-1.5-3.417-3.014-6.829c-.669-1.511-1.337-3.022-2.015-4.529a1.428,1.428,0,0,1-.107-1.007,1.986,1.986,0,0,0-.876-2.065.848.848,0,0,0-1.391.725,1.96,1.96,0,0,0,.989,1.914,1.125,1.125,0,0,1,.508.528q2.679,6.021,5.361,12.041c.094.212.414.5.08.706-.269.162-.5-.128-.674-.332a36.347,36.347,0,0,0-2.705-2.977,17.828,17.828,0,0,0-6.934-4.387,1.962,1.962,0,0,1-1.37-1.371q-2.475-7.381-5-14.745a2.182,2.182,0,0,1,.655-2.283,7.959,7.959,0,0,1,4.511-2.253,5.687,5.687,0,0,1,2.258-.026,2.371,2.371,0,0,1,1.816,1.378A126.449,126.449,0,0,0,972,5906.932a14.3,14.3,0,0,0,1.127,1.7,3.59,3.59,0,0,1,.8,3.148,23.376,23.376,0,0,0,.311,8.341c.031.172.05.346.066.52a.609.609,0,0,0,.649.6c2.728.225,5.444.575,8.18.743a33.07,33.07,0,0,0,8.641-.512,4.1,4.1,0,0,0,1.149-.347,3.733,3.733,0,0,0-1.337-.723,36.425,36.425,0,0,0-5.463-1.429,15.086,15.086,0,0,1-4.838-1.8,1.059,1.059,0,0,1,.03-1.971,24.5,24.5,0,0,1,5.043-2.117,29.455,29.455,0,0,0,5.25-2.081,7.658,7.658,0,0,0,2.583-2.14,2.21,2.21,0,0,0-.084-2.894,10.857,10.857,0,0,0-2.518-2.059,33.46,33.46,0,0,1-3.5-2.413,6.137,6.137,0,0,1-.649-.668,2.647,2.647,0,0,1,.167-3.864c1.223-1.258,2.6-2.339,3.928-3.48a15.266,15.266,0,0,0,3.591-4.024,6.727,6.727,0,0,0,.649-5.013c-.067-.283-.141-.565-.2-.849A1.211,1.211,0,0,1,995.613,5883.312Z"/>
    <path id="Path_62" data-name="Path 62" d="M961.971,5885.739c.742-.229,1.281.274,1.767,1.073.584.96,1.291,1.846,1.961,2.752a1.633,1.633,0,0,1,.389,1.352,1.42,1.42,0,0,0,.146.73,2.418,2.418,0,0,1-.47,2.4c-.129.151-.268.329-.465.088a3.192,3.192,0,0,0-3.2-.921,9.622,9.622,0,0,0-4.867,2.085,2.7,2.7,0,0,0-1.065,2.934c.073.275-.019.368-.28.33a2.739,2.739,0,0,1-2-1.053,1.513,1.513,0,0,0-.675-.62,2.286,2.286,0,0,1-1.344-1.657c-.316-1.1-.572-2.219-.88-3.323a.887.887,0,0,1,.2-.853A13.27,13.27,0,0,1,961.971,5885.739Z"/>
  </g>
</svg>
