<?xml version="1.0" standalone="no"?>
<!DOCTYPE svg PUBLIC "-//W3C//DTD SVG 1.1//EN" "http://www.w3.org/Graphics/SVG/1.1/DTD/svg11.dtd" >
<svg xmlns="http://www.w3.org/2000/svg" xmlns:xlink="http://www.w3.org/1999/xlink" version="1.1">
<metadata>
Created by FontForge 20190801 at Mon Nov 16 16:10:59 2020
 By www-data
Copyright (c) 2020 by Adam Ladd. All rights reserved.
</metadata>
<defs>
<font id="LufgaSemiBold" horiz-adv-x="640" >
  <font-face 
    font-family="LufgaSemiBold"
    font-weight="600"
    font-stretch="normal"
    units-per-em="1000"
    panose-1="0 0 7 0 0 0 0 0 0 0"
    ascent="780"
    descent="-220"
    x-height="510"
    cap-height="690"
    bbox="-709 -245 1271 934"
    underline-thickness="74"
    underline-position="-100"
    unicode-range="U+0020-FB02"
  />
<missing-glyph horiz-adv-x="500" 
d="M410 780v-1000h-317v1000h317zM333 713h-165v-33h65v-37h-66v-33h166v33h-66v37h66v33zM267 584h-100v-104h166v34h-66v70zM233 550v-36h-33v36h33zM333 453h-166v-33h66v-37h-66v-33h100v70h66v33zM333 393h-33v-66h-133v-34h166v100zM333 271h-100v-56h34v23h33v-47
h-100v80h-33v-113h166v113zM333 98h-166v-113h166v113zM300 65v-47h-100v47h100zM333 -38h-166v-33h70l-70 -47v-33h166v33h-102l70 47h32v33z" />
    <glyph glyph-name="fi" unicode="fi" horiz-adv-x="648" 
d="M521 585q-35 0 -58.5 23.5t-23.5 57.5t23.5 57.5t58.5 23.5t58.5 -23.5t23.5 -57.5t-23.5 -57.5t-58.5 -23.5zM108 556q0 82 43.5 129t128.5 47q53 0 96 -22v-114q-31 17 -67 17q-71 0 -71 -65v-38h128v-119h-128v-391h-130v391h-80v119h80v46zM456 0v510h130v-510h-130z
" />
    <glyph glyph-name="fl" unicode="fl" horiz-adv-x="648" 
d="M108 556q0 82 43.5 129t128.5 47q53 0 96 -22v-114q-31 17 -67 17q-71 0 -71 -65v-38h128v-119h-128v-391h-130v391h-80v119h80v46zM456 720h130v-720h-130v720z" />
    <glyph glyph-name=".notdef" horiz-adv-x="500" 
d="M410 780v-1000h-317v1000h317zM333 713h-165v-33h65v-37h-66v-33h166v33h-66v37h66v33zM267 584h-100v-104h166v34h-66v70zM233 550v-36h-33v36h33zM333 453h-166v-33h66v-37h-66v-33h100v70h66v33zM333 393h-33v-66h-133v-34h166v100zM333 271h-100v-56h34v23h33v-47
h-100v80h-33v-113h166v113zM333 98h-166v-113h166v113zM300 65v-47h-100v47h100zM333 -38h-166v-33h70l-70 -47v-33h166v33h-102l70 47h32v33z" />
    <glyph glyph-name=".null" horiz-adv-x="0" 
 />
    <glyph glyph-name="nonmarkingreturn" horiz-adv-x="333" 
 />
    <glyph glyph-name="space" unicode=" " horiz-adv-x="228" 
 />
    <glyph glyph-name="exclam" unicode="!" horiz-adv-x="272" 
d="M76 220l-8 300v170h137v-170l-8 -300h-121zM136 -9q-38 0 -63 25t-25 62t25 62t63 25t63 -24.5t25 -62.5t-25 -62.5t-63 -24.5z" />
    <glyph glyph-name="quotedbl" unicode="&#x22;" horiz-adv-x="437" 
d="M56 422l-8 268h129l-9 -268h-112zM269 422l-9 268h129l-9 -268h-111z" />
    <glyph glyph-name="numbersign" unicode="#" horiz-adv-x="767" 
d="M732 408h-140l-38 -126h124v-113h-157l-50 -169h-120l50 169h-148l-50 -169h-121l50 169h-106v113h140l37 126h-124v113h158l50 169h120l-50 -169h148l50 169h120l-50 -169h107v-113zM434 282l38 126h-148l-38 -126h148z" />
    <glyph glyph-name="dollar" unicode="$" horiz-adv-x="582" 
d="M559 199q0 -82 -62 -137.5t-159 -64.5v-66h-68v66q-67 6 -130.5 34.5t-106.5 71.5l68 95q77 -70 169 -83v176q-97 26 -154.5 77t-57.5 130t58 132.5t154 62.5v67h68v-66q121 -12 191 -84l-64 -95q-48 48 -127 60v-168q26 -7 51 -15.5t57.5 -26t56 -39t40 -55t16.5 -72.5z
M192 502q0 -48 78 -77v149q-36 -7 -57 -26t-21 -46zM338 116q39 6 62.5 26.5t23.5 51.5q0 51 -86 79v-157z" />
    <glyph glyph-name="percent" unicode="%" horiz-adv-x="861" 
d="M211 366q-73 0 -122 48.5t-49 120.5q0 71 49 119t122 48t122 -48t49 -119q0 -72 -49 -120.5t-122 -48.5zM111 0l500 690h139l-500 -690h-139zM211 471q27 0 45 18.5t18 45.5q0 26 -18 44t-45 18t-45 -18t-18 -44q0 -27 18 -45.5t45 -18.5zM650 -12q-73 0 -122 48.5
t-49 120.5q0 71 49 119t122 48t122 -48t49 -119q0 -72 -49 -120.5t-122 -48.5zM650 93q27 0 45 18t18 46q0 26 -18 44t-45 18t-45 -18t-18 -44q0 -28 18 -46t45 -18z" />
    <glyph glyph-name="ampersand" unicode="&#x26;" horiz-adv-x="651" 
d="M669 0h-165l-39 44q-72 -56 -177 -56q-115 0 -187 62.5t-72 160.5q0 116 119 192q-54 75 -54 142q0 68 53 112.5t131 44.5t131.5 -44t53.5 -111q0 -54 -36 -93.5t-98 -73.5l145 -162q35 54 56 123l114 -36q-33 -107 -89 -178zM278 599q-25 0 -42 -15t-17 -40
q0 -31 39 -83q79 41 79 85q0 23 -17.5 38t-41.5 15zM293 107q49 0 93 25l-166 185q-58 -43 -58 -98q0 -49 37 -80.5t94 -31.5z" />
    <glyph glyph-name="quotesingle" unicode="'" horiz-adv-x="225" 
d="M56 422l-8 268h129l-9 -268h-112z" />
    <glyph glyph-name="parenleft" unicode="(" horiz-adv-x="341" 
d="M210 -190q-64 85 -103 213.5t-39 256.5t39 256.5t103 213.5h131q-62 -85 -99.5 -213.5t-37.5 -256.5t37.5 -256.5t99.5 -213.5h-131z" />
    <glyph glyph-name="parenright" unicode=")" horiz-adv-x="341" 
d="M-1 -190q62 85 100 213.5t38 256.5t-38 256.5t-100 213.5h131q65 -85 104 -213.5t39 -256.5t-39 -256.5t-104 -213.5h-131z" />
    <glyph glyph-name="asterisk" unicode="*" horiz-adv-x="375" 
d="M257 564l29 -12l61 -33l-40 -69l-62 33l-22 19l5 -29v-67h-81v67l5 29l-23 -19l-60 -33l-41 69l61 35l27 10l-27 10l-61 33l41 69l61 -32l22 -19l-5 29v66h81v-66l-5 -28l23 18l61 32l40 -69l-61 -33z" />
    <glyph glyph-name="plus" unicode="+" horiz-adv-x="534" 
d="M476 354v-117h-150v-151h-118v151h-150v117h150v150h118v-150h150z" />
    <glyph glyph-name="comma" unicode="," horiz-adv-x="259" 
d="M5 -145l70 282h152l-110 -282h-112z" />
    <glyph glyph-name="hyphen" unicode="-" horiz-adv-x="408" 
d="M58 211v126h292v-126h-292z" />
    <glyph glyph-name="period" unicode="." horiz-adv-x="255" 
d="M128 -9q-39 0 -65 26t-26 64t26 64t65 26q38 0 64 -26t26 -64t-26 -64t-64 -26z" />
    <glyph glyph-name="slash" unicode="/" horiz-adv-x="531" 
d="M0 -150l400 900h131l-400 -900h-131z" />
    <glyph glyph-name="zero" unicode="0" horiz-adv-x="634" 
d="M317 -12q-119 0 -195 99.5t-76 257.5t76 257.5t195 99.5q120 0 195.5 -99.5t75.5 -257.5t-75.5 -257.5t-195.5 -99.5zM317 121q57 0 93 62.5t36 161.5t-36 161.5t-93 62.5q-56 0 -92.5 -62.5t-36.5 -161.5t36.5 -161.5t92.5 -62.5z" />
    <glyph glyph-name="one" unicode="1" horiz-adv-x="394" 
d="M222 690h98v-690h-138v526l-113 -64l-59 111z" />
    <glyph glyph-name="two" unicode="2" horiz-adv-x="535" 
d="M232 130h264v-130h-458v112l236 253q68 74 68 120q0 36 -26.5 57.5t-67.5 21.5q-75 0 -134 -77l-94 90q36 57 99.5 91t137.5 34q100 0 163 -59t63 -150q0 -98 -88 -192z" />
    <glyph glyph-name="three" unicode="3" horiz-adv-x="572" 
d="M427 361q51 -24 80.5 -69t29.5 -101q0 -89 -72 -146t-186 -57q-74 0 -142 26t-112 71l79 102q30 -31 74.5 -48.5t90.5 -17.5q56 0 91 25t35 64q0 40 -33.5 65t-86.5 25h-100v119h100q46 0 75 21t29 53q0 33 -32.5 54.5t-83.5 21.5q-87 0 -140 -51l-74 100q40 39 102 61.5
t128 22.5q107 0 174.5 -53t67.5 -136q0 -48 -25 -88t-69 -64z" />
    <glyph glyph-name="four" unicode="4" horiz-adv-x="585" 
d="M560 264v-130h-74v-134h-138v134h-293l-33 112l313 444h151v-426h74zM172 264h176v252z" />
    <glyph glyph-name="five" unicode="5" horiz-adv-x="576" 
d="M310 448q101 0 169.5 -65t68.5 -162q0 -100 -74.5 -166.5t-190.5 -66.5q-137 0 -245 94l69 111q69 -72 167 -72q59 0 95.5 30t36.5 74q0 42 -32 69.5t-81 27.5q-60 0 -103 -40l-122 36l35 372h397v-130h-281l-11 -136q43 24 102 24z" />
    <glyph glyph-name="six" unicode="6" horiz-adv-x="562" 
d="M331 442q92 0 154 -64t62 -156q0 -101 -74 -167.5t-186 -66.5q-119 0 -191 76.5t-72 204.5q0 164 117.5 286t312.5 147l27 -129q-102 -16 -174 -62t-105 -109q56 40 129 40zM287 121q50 0 84 28t34 70q0 41 -33 68.5t-83 27.5t-87 -24.5t-37 -68.5t34 -72.5t88 -28.5z
" />
    <glyph glyph-name="seven" unicode="7" horiz-adv-x="524" 
d="M38 690h460v-108l-263 -582h-156l255 560h-296v130z" />
    <glyph glyph-name="eight" unicode="8" horiz-adv-x="592" 
d="M450 358q50 -27 78.5 -70t28.5 -95q0 -87 -74.5 -146t-186.5 -59t-186.5 59t-74.5 146q0 52 28.5 95t78.5 70q-44 26 -68.5 65.5t-24.5 85.5q0 82 70 137.5t177 55.5q106 0 176.5 -55.5t70.5 -137.5q0 -96 -93 -151zM296 569q-46 0 -76 -21t-30 -53t30 -53t76 -21
q45 0 75 21t30 53t-30 53t-75 21zM296 121q51 0 85 24.5t34 61.5q0 36 -34 60.5t-85 24.5t-85 -24.5t-34 -60.5q0 -37 34 -61.5t85 -24.5z" />
    <glyph glyph-name="nine" unicode="9" horiz-adv-x="562" 
d="M275 702q119 0 191 -76.5t72 -204.5q0 -108 -51 -202t-150 -156.5t-229 -74.5l-27 129q102 11 174.5 58.5t105.5 113.5q-56 -41 -130 -41q-92 0 -154 64t-62 156q0 101 74 167.5t186 66.5zM157 471q0 -41 33 -68.5t82 -27.5q50 0 87 24.5t37 68.5t-33.5 72.5t-87.5 28.5
q-51 0 -84.5 -28t-33.5 -70z" />
    <glyph glyph-name="colon" unicode=":" horiz-adv-x="265" 
d="M133 317q-39 0 -65 26t-26 64t26 64t65 26q38 0 64 -26t26 -64t-26 -64t-64 -26zM133 -9q-39 0 -65 26t-26 64t26 64t65 26q38 0 64 -26t26 -64t-26 -64t-64 -26z" />
    <glyph glyph-name="semicolon" unicode=";" horiz-adv-x="280" 
d="M148 317q-39 0 -65 26t-26 64t26 64t65 26q38 0 64.5 -26t26.5 -64t-26.5 -64t-64.5 -26zM5 -145l70 282h152l-111 -282h-111z" />
    <glyph glyph-name="less" unicode="&#x3c;" horiz-adv-x="464" 
d="M406 525v-130l-217 -99l217 -99v-130l-348 170v118z" />
    <glyph glyph-name="equal" unicode="=" horiz-adv-x="534" 
d="M58 335v117h418v-117h-418zM58 139v117h418v-117h-418z" />
    <glyph glyph-name="greater" unicode="&#x3e;" horiz-adv-x="464" 
d="M58 525l348 -170v-118l-348 -170v130l217 99l-217 99v130z" />
    <glyph glyph-name="question" unicode="?" horiz-adv-x="491" 
d="M169 222v24q0 40 24 78t53 62.5t53 55t24 57.5q0 31 -24 50.5t-63 19.5q-82 0 -145 -80l-90 91q46 58 109 90t133 32q95 0 158 -55.5t63 -136.5q0 -38 -16.5 -72.5t-39.5 -59t-46 -46.5t-39.5 -44t-16.5 -42v-24h-137zM238 -9q-38 0 -63 24.5t-25 62.5t25 62.5t63 24.5
t63 -25t25 -62t-25 -62t-63 -25z" />
    <glyph glyph-name="at" unicode="@" horiz-adv-x="835" 
d="M484 438h111v-221q0 -17 10.5 -28t28.5 -11q28 0 45.5 32.5t17.5 84.5q0 109 -79.5 182t-196.5 73q-122 0 -202.5 -80t-80.5 -201q0 -120 80.5 -200t202.5 -80q101 0 168 49l44 -81q-97 -58 -213 -58q-162 0 -269.5 106t-107.5 264t108 264.5t270 106.5q157 0 264 -99
t107 -248q0 -92 -43.5 -147.5t-119.5 -55.5q-87 0 -127 59q-38 -61 -116 -61q-74 0 -122 52t-48 128q0 78 47.5 130t115.5 52q64 0 105 -47v35zM406 194q34 0 56 21.5t22 53.5t-22.5 53.5t-55.5 21.5t-54.5 -21t-21.5 -54q0 -32 22 -53.5t54 -21.5z" />
    <glyph glyph-name="A" unicode="A" horiz-adv-x="716" 
d="M554 0l-49 134h-296l-49 -134h-149l266 690h163l265 -690h-151zM255 261h203l-101 277z" />
    <glyph glyph-name="B" unicode="B" horiz-adv-x="632" 
d="M497 366q50 -18 82 -68t32 -111q0 -81 -55 -134t-139 -53h-347v690h324q78 0 130.5 -50t52.5 -126q0 -48 -22.5 -88t-57.5 -60zM360 566h-156v-152h156q31 0 53 22t22 54t-21.5 54t-53.5 22zM383 124q37 0 61.5 25t24.5 62q0 36 -24.5 61t-61.5 25h-179v-173h179z" />
    <glyph glyph-name="C" unicode="C" horiz-adv-x="727" 
d="M399 -12q-155 0 -259.5 102.5t-104.5 254.5t104.5 254.5t259.5 102.5q96 0 175.5 -41.5t128.5 -113.5l-119 -74q-30 45 -78.5 70.5t-106.5 25.5q-95 0 -158.5 -64t-63.5 -160t63.5 -160t158.5 -64q58 0 106.5 25.5t78.5 70.5l119 -74q-49 -72 -128.5 -113.5t-175.5 -41.5
z" />
    <glyph glyph-name="D" unicode="D" horiz-adv-x="727" 
d="M340 690q151 0 251.5 -98.5t100.5 -246.5t-100.5 -246.5t-251.5 -98.5h-270v690h270zM337 130q91 0 152 61.5t61 153.5t-61 153.5t-152 61.5h-129v-430h129z" />
    <glyph glyph-name="E" unicode="E" horiz-adv-x="581" 
d="M208 130h331v-130h-469v690h464v-130h-326v-148h293v-130h-293v-152z" />
    <glyph glyph-name="F" unicode="F" horiz-adv-x="548" 
d="M519 560h-311v-155h271v-130h-271v-275h-138v690h449v-130z" />
    <glyph glyph-name="G" unicode="G" horiz-adv-x="776" 
d="M414 388h332v-48q0 -152 -99.5 -252t-250.5 -100q-154 0 -257.5 102.5t-103.5 254.5t104.5 254.5t259.5 102.5q90 0 166 -36t122 -99l-104 -83q-67 86 -181 86q-96 0 -160.5 -64t-64.5 -161t64 -161t160 -64q74 0 129 40t71 105h-187v123z" />
    <glyph glyph-name="H" unicode="H" horiz-adv-x="722" 
d="M514 690h138v-690h-138v282h-306v-282h-138v690h138v-278h306v278z" />
    <glyph glyph-name="I" unicode="I" horiz-adv-x="278" 
d="M70 0v690h138v-690h-138z" />
    <glyph glyph-name="J" unicode="J" horiz-adv-x="432" 
d="M138 -12q-61 0 -112 22v132q47 -21 97 -21q54 0 84 27.5t30 77.5v464h138v-471q0 -108 -64.5 -169.5t-172.5 -61.5z" />
    <glyph glyph-name="K" unicode="K" horiz-adv-x="666" 
d="M500 0l-228 258l-64 -70v-188h-138v690h138v-315l283 315h176l-305 -333l318 -357h-180z" />
    <glyph glyph-name="L" unicode="L" horiz-adv-x="533" 
d="M208 130h301v-130h-439v690h138v-560z" />
    <glyph glyph-name="M" unicode="M" horiz-adv-x="875" 
d="M635 690h170v-690h-138v474l-191 -350h-78l-190 350v-474h-138v690h172l196 -359z" />
    <glyph glyph-name="N" unicode="N" horiz-adv-x="732" 
d="M524 690h138v-690h-140l-314 453v-453h-138v690h140l314 -453v453z" />
    <glyph glyph-name="O" unicode="O" horiz-adv-x="798" 
d="M399 -12q-155 0 -259.5 102.5t-104.5 254.5t104.5 254.5t259.5 102.5t259.5 -102.5t104.5 -254.5t-104.5 -254.5t-259.5 -102.5zM399 121q95 0 158.5 64t63.5 160t-63.5 160t-158.5 64t-158.5 -64t-63.5 -160t63.5 -160t158.5 -64z" />
    <glyph glyph-name="P" unicode="P" horiz-adv-x="629" 
d="M371 690q101 0 169 -66t68 -164t-68 -164t-169 -66h-163v-230h-138v690h301zM368 360q42 0 70 28.5t28 71.5t-28 71.5t-70 28.5h-160v-200h160z" />
    <glyph glyph-name="Q" unicode="Q" horiz-adv-x="798" 
d="M763 345q0 -163 -117 -266l66 -95l-103 -72l-71 101q-66 -25 -139 -25q-155 0 -259.5 102.5t-104.5 254.5t104.5 254.5t259.5 102.5t259.5 -102.5t104.5 -254.5zM399 121q33 0 58 7l-60 86l104 72l64 -92q56 62 56 151q0 96 -63.5 160t-158.5 64t-158.5 -64t-63.5 -160
t63.5 -160t158.5 -64z" />
    <glyph glyph-name="R" unicode="R" horiz-adv-x="633" 
d="M449 0l-159 246h-82v-246h-138v690h294q100 0 167 -64.5t67 -161.5q0 -73 -42.5 -129t-112.5 -78l172 -257h-166zM208 560v-194h153q40 0 67.5 28t27.5 69t-27.5 69t-67.5 28h-153z" />
    <glyph glyph-name="S" unicode="S" horiz-adv-x="600" 
d="M310 -12q-79 0 -156.5 29.5t-130.5 78.5l71 105q43 -41 101 -65.5t115 -24.5q53 0 90 22.5t37 57.5q0 17 -9.5 30.5t-21.5 22t-36 17t-38 12.5t-44 11q-240 56 -240 215q0 92 72.5 147.5t189.5 55.5q151 0 239 -86l-64 -104q-30 29 -78.5 48t-98.5 19q-52 0 -85 -21
t-33 -53q0 -60 136 -90q27 -5 52 -12t64 -25t67 -40t49 -59t21 -82q0 -92 -77 -150.5t-192 -58.5z" />
    <glyph glyph-name="T" unicode="T" horiz-adv-x="589" 
d="M563 690v-130h-199v-560h-138v560h-200v130h537z" />
    <glyph glyph-name="U" unicode="U" horiz-adv-x="686" 
d="M343 -12q-122 0 -204 80t-82 199v423h138v-421q0 -63 42 -105.5t106 -42.5t106 42.5t42 105.5v421h138v-423q0 -119 -82 -199t-204 -80z" />
    <glyph glyph-name="V" unicode="V" horiz-adv-x="710" 
d="M549 690h151l-274 -690h-142l-274 690h154l193 -507z" />
    <glyph glyph-name="W" unicode="W" horiz-adv-x="1009" 
d="M852 690h142l-215 -690h-138l-136 479l-137 -479h-137l-216 690h146l142 -502l143 502h121l143 -502z" />
    <glyph glyph-name="X" unicode="X" horiz-adv-x="719" 
d="M706 0h-170l-177 251l-177 -251h-169l252 346l-248 344h170l174 -248l172 248h169l-248 -344z" />
    <glyph glyph-name="Y" unicode="Y" horiz-adv-x="674" 
d="M521 690h154l-269 -448v-242h-138v242l-269 448h158l182 -308z" />
    <glyph glyph-name="Z" unicode="Z" horiz-adv-x="614" 
d="M225 130h353v-130h-542v99l346 461h-342v130h531v-99z" />
    <glyph glyph-name="bracketleft" unicode="[" horiz-adv-x="350" 
d="M326 627h-114v-694h114v-123h-248v940h248v-123z" />
    <glyph glyph-name="backslash" unicode="\" horiz-adv-x="531" 
d="M400 -150l-400 900h131l400 -900h-131z" />
    <glyph glyph-name="bracketright" unicode="]" horiz-adv-x="350" 
d="M24 750h248v-940h-248v123h114v694h-114v123z" />
    <glyph glyph-name="asciicircum" unicode="^" horiz-adv-x="429" 
d="M401 438h-117l-69 145l-69 -145h-118l127 252h119z" />
    <glyph glyph-name="underscore" unicode="_" horiz-adv-x="495" 
d="M22 -172v110h452v-110h-452z" />
    <glyph glyph-name="grave" unicode="`" horiz-adv-x="265" 
d="M128 566l-128 143h164l101 -143h-137z" />
    <glyph glyph-name="a" unicode="a" 
d="M448 510h130v-510h-130v61q-67 -73 -166 -73q-106 0 -177.5 76.5t-71.5 190.5t71.5 190.5t177.5 76.5q99 0 166 -73v61zM307 114q61 0 101 40.5t40 100.5t-40 100.5t-101 40.5q-60 0 -100 -40.5t-40 -100.5t40 -100.5t100 -40.5z" />
    <glyph glyph-name="b" unicode="b" 
d="M358 522q106 0 177 -76.5t71 -190.5t-71 -190.5t-177 -76.5q-101 0 -166 73v-61h-130v720h130v-271q65 73 166 73zM332 114q60 0 100 40.5t40 100.5t-40 100.5t-100 40.5t-100 -40.5t-40 -100.5t40 -100.5t100 -40.5z" />
    <glyph glyph-name="c" unicode="c" horiz-adv-x="559" 
d="M305 -12q-117 0 -195.5 76.5t-78.5 190.5t78.5 190.5t195.5 76.5q76 0 138 -34t97 -93l-113 -68q-18 31 -50 50t-72 19q-60 0 -100 -40.5t-40 -100.5t40 -100.5t100 -40.5q40 0 72 19t50 50l113 -68q-35 -59 -97 -93t-138 -34z" />
    <glyph glyph-name="d" unicode="d" 
d="M448 720h130v-720h-130v61q-67 -73 -166 -73q-106 0 -177.5 76.5t-71.5 190.5t71.5 190.5t177.5 76.5q99 0 166 -73v271zM307 114q61 0 101 40.5t40 100.5t-40 100.5t-101 40.5q-60 0 -100 -40.5t-40 -100.5t40 -100.5t100 -40.5z" />
    <glyph glyph-name="e" unicode="e" horiz-adv-x="599" 
d="M570 254q0 -25 -3 -46h-395q14 -48 52.5 -76.5t93.5 -28.5q44 0 81 18t59 45l87 -76q-86 -102 -231 -102q-121 0 -202 77t-81 192q0 113 77.5 189t193.5 76q115 0 191.5 -76.5t76.5 -191.5zM301 408q-48 0 -83 -28.5t-47 -76.5h260q-12 48 -47.5 76.5t-82.5 28.5z" />
    <glyph glyph-name="f" unicode="f" horiz-adv-x="385" 
d="M309 613q-71 0 -71 -65v-38h128v-119h-128v-391h-130v391h-80v119h80v46q0 82 43.5 129t128.5 47q53 0 96 -22v-114q-31 17 -67 17z" />
    <glyph glyph-name="g" unicode="g" horiz-adv-x="564" 
d="M386 0q76 0 126.5 -40t63.5 -110l-134 -36q-3 28 -25 44.5t-56 16.5h-167q-71 0 -114.5 37.5t-43.5 98.5q0 39 18.5 73.5t50.5 54.5q-68 63 -68 159t68 160t171 64q58 0 111 -24q11 41 46 65t85 24h42v-120h-36q-20 0 -34 -10t-18 -27q44 -57 44 -132q0 -96 -69 -160
t-171 -64q-42 0 -84 13q-26 -16 -26 -44q0 -19 15 -31t39 -12h166zM276 399q-46 0 -76 -28.5t-30 -72.5t30 -72.5t76 -28.5q45 0 75.5 29t30.5 72t-30.5 72t-75.5 29z" />
    <glyph glyph-name="h" unicode="h" horiz-adv-x="607" 
d="M354 522q90 0 144.5 -54t54.5 -144v-324h-130v282q0 52 -30.5 83t-80.5 31q-54 0 -87 -32t-33 -84v-280h-130v720h130v-270q61 72 162 72z" />
    <glyph glyph-name="i" unicode="i" horiz-adv-x="254" 
d="M127 585q-35 0 -58.5 23.5t-23.5 57.5t23.5 57.5t58.5 23.5t58.5 -23.5t23.5 -57.5t-23.5 -57.5t-58.5 -23.5zM62 0v510h130v-510h-130z" />
    <glyph glyph-name="j" unicode="j" horiz-adv-x="259" 
d="M132 585q-35 0 -58.5 23.5t-23.5 57.5t23.5 57.5t58.5 23.5t58.5 -23.5t23.5 -57.5t-23.5 -57.5t-58.5 -23.5zM37 -202q-41 0 -70 12v117q20 -10 45 -10q55 0 55 54v539h130v-554q0 -73 -40.5 -115.5t-119.5 -42.5z" />
    <glyph glyph-name="k" unicode="k" horiz-adv-x="548" 
d="M385 0l-148 176l-45 -49v-127h-130v720h130v-419l188 209h168l-219 -236l226 -274h-170z" />
    <glyph glyph-name="l" unicode="l" horiz-adv-x="254" 
d="M62 0v720h130v-720h-130z" />
    <glyph glyph-name="m" unicode="m" horiz-adv-x="921" 
d="M677 522q86 0 138 -52t52 -138v-332h-130v293q0 47 -27 75t-73 28q-48 0 -77.5 -29t-29.5 -76v-291h-130v293q0 47 -27.5 75t-73.5 28q-47 0 -77 -29t-30 -76v-291h-130v510h130v-53q57 65 151 65q109 0 160 -83q63 83 174 83z" />
    <glyph glyph-name="n" unicode="n" horiz-adv-x="607" 
d="M354 522q90 0 144.5 -54t54.5 -144v-324h-130v282q0 52 -30.5 83t-81.5 31q-53 0 -86 -32t-33 -84v-280h-130v510h130v-57q61 69 162 69z" />
    <glyph glyph-name="o" unicode="o" horiz-adv-x="610" 
d="M305 -12q-117 0 -195.5 76.5t-78.5 190.5t78.5 190.5t195.5 76.5t195.5 -76.5t78.5 -190.5t-78.5 -190.5t-195.5 -76.5zM305 114q60 0 100 40.5t40 100.5t-40 100.5t-100 40.5t-100 -40.5t-40 -100.5t40 -100.5t100 -40.5z" />
    <glyph glyph-name="p" unicode="p" 
d="M358 522q106 0 177 -76.5t71 -190.5t-71 -190.5t-177 -76.5q-101 0 -166 73v-251h-130v700h130v-61q65 73 166 73zM332 114q60 0 100 40.5t40 100.5t-40 100.5t-100 40.5t-100 -40.5t-40 -100.5t40 -100.5t100 -40.5z" />
    <glyph glyph-name="q" unicode="q" 
d="M448 510h130v-700h-130v251q-67 -73 -166 -73q-106 0 -177.5 76.5t-71.5 190.5t71.5 190.5t177.5 76.5q99 0 166 -73v61zM307 114q61 0 101 40.5t40 100.5t-40 100.5t-101 40.5q-60 0 -100 -40.5t-40 -100.5t40 -100.5t100 -40.5z" />
    <glyph glyph-name="r" unicode="r" horiz-adv-x="375" 
d="M339 518h22v-134h-22q-69 0 -108 -38t-39 -104v-242h-130v510h130v-66q58 74 147 74z" />
    <glyph glyph-name="s" unicode="s" horiz-adv-x="481" 
d="M238 -12q-124 0 -215 78l63 86q65 -57 149 -57q40 0 65 12.5t25 35.5t-24.5 35t-75.5 24q-32 7 -51 12.5t-48.5 18t-45.5 27.5t-28.5 41.5t-12.5 59.5q0 77 59 119t149 42q112 0 198 -67l-63 -87q-62 47 -132 47q-35 0 -57.5 -11.5t-22.5 -32.5q0 -23 24 -34.5t76 -22.5
q32 -7 51 -12.5t48.5 -18t45.5 -27.5t28.5 -41.5t12.5 -59.5q0 -78 -61.5 -122.5t-156.5 -44.5z" />
    <glyph glyph-name="t" unicode="t" horiz-adv-x="410" 
d="M376 391h-137v-212q0 -65 70 -65q31 0 67 17v-121q-41 -22 -95 -22q-85 0 -128.5 45.5t-43.5 124.5v233h-81v119h81v129h130v-129h137v-119z" />
    <glyph glyph-name="u" unicode="u" horiz-adv-x="584" 
d="M292 -12q-108 0 -173 58.5t-65 156.5v307h130v-289q0 -49 29.5 -78t78.5 -29t78.5 29t29.5 78v289h130v-307q0 -97 -65.5 -156t-172.5 -59z" />
    <glyph glyph-name="v" unicode="v" horiz-adv-x="568" 
d="M418 510h145l-212 -510h-134l-212 510h148l133 -347z" />
    <glyph glyph-name="w" unicode="w" horiz-adv-x="862" 
d="M712 510h142l-181 -510h-134l-108 352l-108 -352h-134l-181 510h145l106 -344l107 344h133l108 -344z" />
    <glyph glyph-name="x" unicode="x" horiz-adv-x="567" 
d="M555 0h-158l-114 167l-115 -167h-156l183 256l-180 254h158l111 -164l111 164h157l-181 -254z" />
    <glyph glyph-name="y" unicode="y" horiz-adv-x="568" 
d="M418 510h145l-252 -599q-21 -52 -63 -82.5t-92 -30.5q-35 0 -72 14t-62 37l50 102q25 -27 62 -27q40 0 58 40l21 44l-208 502h148l133 -347z" />
    <glyph glyph-name="z" unicode="z" horiz-adv-x="497" 
d="M220 126h239v-126h-421v95l232 289h-228v126h410v-95z" />
    <glyph glyph-name="braceleft" unicode="{" horiz-adv-x="420" 
d="M285 364q0 -60 -59 -83q59 -25 59 -84v-207q0 -26 15 -41.5t40 -15.5h56v-123h-106q-62 0 -100.5 38.5t-38.5 101.5v213q0 25 -15 40.5t-39 15.5h-39v123h39q24 0 39 15.5t15 40.5v212q0 63 38.5 101.5t100.5 38.5h106v-123h-56q-25 0 -40 -15.5t-15 -41.5v-206z" />
    <glyph glyph-name="bar" unicode="|" horiz-adv-x="299" 
d="M90 -190v940h119v-940h-119z" />
    <glyph glyph-name="braceright" unicode="}" horiz-adv-x="420" 
d="M323 342h39v-123h-39q-24 0 -39 -15.5t-15 -40.5v-213q0 -63 -38.5 -101.5t-100.5 -38.5h-106v123h56q25 0 40 15.5t15 41.5v207q0 60 58 84q-58 23 -58 83v206q0 26 -15 41.5t-40 15.5h-56v123h106q62 0 100.5 -38.5t38.5 -101.5v-212q0 -25 15 -40.5t39 -15.5z" />
    <glyph glyph-name="asciitilde" unicode="~" horiz-adv-x="580" 
d="M378 209q-42 0 -90 25.5t-64 25.5q-21 0 -34 -13t-13 -33h-119q0 79 35.5 127t108.5 48q42 0 90 -25.5t64 -25.5q20 0 33.5 13t13.5 33h119q0 -79 -35.5 -127t-108.5 -48z" />
    <glyph glyph-name="uni00A0" unicode="&#xa0;" horiz-adv-x="228" 
 />
    <glyph glyph-name="exclamdown" unicode="&#xa1;" horiz-adv-x="272" 
d="M136 345q-38 0 -63 25t-25 62t25 62t63 25t63 -24.5t25 -62.5t-25 -62.5t-63 -24.5zM68 -180v170l8 300h121l8 -300v-170h-137z" />
    <glyph glyph-name="cent" unicode="&#xa2;" horiz-adv-x="592" 
d="M555 204q-66 -107 -195 -124v-80h-79v79q-103 13 -169.5 87t-66.5 178q0 105 66.5 179t169.5 87v80h79v-81q62 -8 113 -41t81 -83l-113 -63q-29 47 -81 60v-276q53 15 81 62zM177 344q0 -50 29 -88t75 -50v277q-46 -12 -75 -50t-29 -89z" />
    <glyph glyph-name="sterling" unicode="&#xa3;" horiz-adv-x="584" 
d="M241 130h312v-130h-505v130h55v142h-55v118h55v82q0 98 69.5 164t173.5 66q121 0 205 -84l-71 -101q-59 52 -132 52q-47 0 -77 -27.5t-30 -69.5v-82h192v-118h-192v-142z" />
    <glyph glyph-name="currency" unicode="&#xa4;" horiz-adv-x="548" 
d="M472 346q0 -50 -24 -93l61 -61l-79 -79l-65 64q-43 -19 -91 -19t-89 19l-66 -64l-80 79l62 62q-24 43 -24 92t24 92l-62 62l80 79l65 -64q43 19 90 19t90 -19l66 65l79 -81l-61 -60q24 -43 24 -93zM274 259q38 0 63 25t25 62t-25 62t-63 25q-37 0 -61.5 -25t-24.5 -62
t24.5 -62t61.5 -25z" />
    <glyph glyph-name="yen" unicode="&#xa5;" horiz-adv-x="648" 
d="M636 690l-204 -377h85v-85h-124v-44h124v-85h-124v-99h-137v99h-124v85h124v44h-124v85h85l-205 377h155l159 -307l159 307h151z" />
    <glyph glyph-name="brokenbar" unicode="&#xa6;" horiz-adv-x="299" 
d="M90 340v410h119v-410h-119zM90 -190v410h119v-410h-119z" />
    <glyph glyph-name="section" unicode="&#xa7;" horiz-adv-x="530" 
d="M405 187q65 -43 65 -117q0 -77 -59.5 -121.5t-149.5 -44.5q-124 0 -199 70l52 80q20 -22 56.5 -36.5t76.5 -14.5q42 0 68.5 17t26.5 43q0 47 -110 73q-78 18 -125 54t-47 105q0 83 67 127q-63 45 -63 117q0 75 59.5 119t148.5 44q116 0 188 -62l-50 -79q-47 42 -126 42
q-41 0 -66 -16t-25 -41q0 -49 109 -72q79 -17 126 -53.5t47 -105.5q0 -82 -70 -128zM271 240q33 1 54.5 19t21.5 43q0 50 -85 67q-32 -2 -53 -19t-21 -42q0 -49 83 -68z" />
    <glyph glyph-name="dieresis" unicode="&#xa8;" horiz-adv-x="363" 
d="M74 565q-32 0 -53 21t-21 52t21.5 52t52.5 21t52.5 -21t21.5 -52t-21 -52t-53 -21zM290 565q-32 0 -53 21t-21 52t21.5 52t52.5 21t52 -21t21 -52t-21 -52t-52 -21z" />
    <glyph glyph-name="copyright" unicode="&#xa9;" horiz-adv-x="805" 
d="M403 -12q-152 0 -254.5 102.5t-102.5 254.5t102.5 254.5t254.5 102.5t254.5 -102.5t102.5 -254.5t-102.5 -254.5t-254.5 -102.5zM403 75q113 0 189.5 77.5t76.5 192.5t-76.5 192.5t-189.5 77.5t-190 -77.5t-77 -192.5t77 -192.5t190 -77.5zM408 157q-81 0 -135 54
t-54 134t54 134t135 54q54 0 97.5 -25t67.5 -68l-91 -47q-24 40 -74 40q-37 0 -62 -25.5t-25 -62.5t25 -62.5t62 -25.5q50 0 74 40l91 -47q-24 -43 -67.5 -68t-97.5 -25z" />
    <glyph glyph-name="ordfeminine" unicode="&#xaa;" horiz-adv-x="375" 
d="M241 691h96v-272h-96v29q-34 -37 -81 -37q-56 0 -94 41.5t-38 102.5t38 102.5t94 41.5q47 0 81 -37v29zM183 496q25 0 41.5 17t16.5 42t-16.5 42t-41.5 17t-41.5 -17t-16.5 -42t16.5 -42t41.5 -17z" />
    <glyph glyph-name="guillemotleft" unicode="&#xab;" horiz-adv-x="635" 
d="M337 468l-152 -204l152 -204h-152l-153 204l153 204h152zM604 468l-153 -204l153 -204h-153l-152 204l152 204h153z" />
    <glyph glyph-name="logicalnot" unicode="&#xac;" horiz-adv-x="534" 
d="M58 354h418v-268h-119v151h-299v117z" />
    <glyph glyph-name="uni00AD" unicode="&#xad;" horiz-adv-x="408" 
d="M58 211v126h292v-126h-292z" />
    <glyph glyph-name="registered" unicode="&#xae;" horiz-adv-x="425" 
d="M213 702q79 0 131.5 -53t52.5 -132t-52.5 -131.5t-131.5 -52.5t-132 52.5t-53 131.5t53 132t132 53zM213 380q57 0 95.5 39.5t38.5 97.5q0 59 -38.5 98.5t-95.5 39.5q-58 0 -97 -39.5t-39 -98.5t39 -98t97 -39zM290 555q0 -40 -35 -57l40 -67h-50l-35 61h-14v-61h-45v187
h76q27 0 45 -18t18 -45zM196 577v-45h27q10 0 16.5 6.5t6.5 16.5t-6.5 16t-16.5 6h-27z" />
    <glyph glyph-name="macron" unicode="&#xaf;" horiz-adv-x="264" 
d="M0 577v109h264v-109h-264z" />
    <glyph glyph-name="degree" unicode="&#xb0;" horiz-adv-x="387" 
d="M193 387q-68 0 -114 45.5t-46 112.5t46 112t114 45q69 0 115 -45t46 -112q0 -68 -46 -113t-115 -45zM193 488q24 0 40 16.5t16 40.5t-16 40t-40 16t-40 -16t-16 -40t16 -40.5t40 -16.5z" />
    <glyph glyph-name="plusminus" unicode="&#xb1;" horiz-adv-x="534" 
d="M326 432h150v-117h-150v-115h-118v115h-150v117h150v114h118v-114zM58 30v117h418v-117h-418z" />
    <glyph glyph-name="uni00B2" unicode="&#xb2;" horiz-adv-x="323" 
d="M157 455h144v-89h-277v77l135 143q39 41 39 67q0 18 -14 28.5t-34 10.5q-41 0 -75 -41l-64 61q22 34 61 54.5t84 20.5q62 0 100 -36t38 -92q0 -62 -52 -116z" />
    <glyph glyph-name="uni00B3" unicode="&#xb3;" horiz-adv-x="340" 
d="M258 582q63 -32 63 -101q0 -54 -44 -88t-114 -34q-98 0 -154 58l54 70q37 -37 94 -37q29 0 48 12.5t19 32.5t-18.5 33t-46.5 13h-58v81h58q25 0 40.5 10t15.5 26t-18 27t-45 11q-47 0 -78 -26l-51 68q54 49 141 49q65 0 106.5 -32t41.5 -83q0 -58 -54 -90z" />
    <glyph glyph-name="acute" unicode="&#xb4;" horiz-adv-x="265" 
d="M0 566l101 143h164l-128 -143h-137z" />
    <glyph glyph-name="paragraph" unicode="&#xb6;" 
d="M573 690v-880h-112v770h-70v-770h-111v462h-43q-89 0 -149 60t-60 149t60 149t149 60h336z" />
    <glyph glyph-name="periodcentered" unicode="&#xb7;" horiz-adv-x="298" 
d="M149 184q-39 0 -65 26t-26 64t26 64t65 26t65 -26t26 -64t-26 -64t-65 -26z" />
    <glyph glyph-name="cedilla" unicode="&#xb8;" horiz-adv-x="233" 
d="M139 -29q40 -3 67 -33t27 -72q0 -47 -34 -78.5t-86 -31.5q-68 0 -113 51l45 54q29 -34 65 -34q19 0 32 11t13 28q0 16 -11.5 27.5t-28.5 11.5q-21 0 -31 -14l-72 33l61 76v2h90v-2z" />
    <glyph glyph-name="uni00B9" unicode="&#xb9;" horiz-adv-x="246" 
d="M134 780h68v-414h-95v300l-60 -34l-42 77z" />
    <glyph glyph-name="ordmasculine" unicode="&#xba;" horiz-adv-x="366" 
d="M183 411q-65 0 -110 41.5t-45 102.5t45 102.5t110 41.5q66 0 110.5 -41.5t44.5 -102.5t-44.5 -102.5t-110.5 -41.5zM183 496q25 0 42 17t17 42t-17 42t-42 17q-24 0 -41 -17t-17 -42t17 -42t41 -17z" />
    <glyph glyph-name="guillemotright" unicode="&#xbb;" horiz-adv-x="635" 
d="M188 468l153 -204l-153 -204h-152l153 204l-153 204h152zM455 468l153 -204l-153 -204h-152l152 204l-152 204h152z" />
    <glyph glyph-name="onequarter" unicode="&#xbc;" horiz-adv-x="798" 
d="M107 276v300l-60 -34l-42 77l129 71h68v-414h-95zM571 690h120l-474 -690h-119zM773 164v-89h-40v-75h-95v75h-168l-22 77l180 262h105v-250h40zM544 164h94v141z" />
    <glyph glyph-name="onehalf" unicode="&#xbd;" horiz-adv-x="821" 
d="M107 276v300l-60 -34l-42 77l129 71h68v-414h-95zM571 690h120l-474 -690h-119zM654 89h144v-89h-277v77l135 143q39 41 39 67q0 18 -14 28.5t-34 10.5q-41 0 -75 -41l-64 61q22 34 61 54.5t84 20.5q62 0 100 -36t38 -92q0 -62 -52 -116z" />
    <glyph glyph-name="threequarters" unicode="&#xbe;" horiz-adv-x="852" 
d="M321 391q0 -54 -44 -88t-114 -34q-98 0 -154 58l54 70q37 -37 94 -37q29 0 48 12.5t19 32.5t-18.5 33t-46.5 13h-58v81h58q25 0 40.5 10t15.5 26t-18 27t-45 11q-47 0 -78 -26l-51 68q54 49 141 49q65 0 106.5 -32t41.5 -83q0 -58 -54 -90q63 -32 63 -101zM625 690h120
l-474 -690h-119zM827 164v-89h-40v-75h-95v75h-168l-22 77l180 262h105v-250h40zM598 164h94v141z" />
    <glyph glyph-name="questiondown" unicode="&#xbf;" horiz-adv-x="470" 
d="M251 345q-38 0 -63 24.5t-25 62.5t25 62.5t63 24.5t63 -25t25 -62t-25 -62t-63 -25zM245 -192q-95 0 -158 55.5t-63 136.5q0 38 16.5 72.5t39.5 59t46 46.5t39.5 44t16.5 42v24h137v-24q0 -40 -24 -78t-52.5 -62.5t-52.5 -55t-24 -57.5q0 -31 23.5 -50.5t62.5 -19.5
q83 0 146 80l89 -91q-45 -57 -108 -89.5t-134 -32.5z" />
    <glyph glyph-name="Agrave" unicode="&#xc0;" horiz-adv-x="716" 
d="M434 746h-137l-128 143h164zM554 0l-49 134h-296l-49 -134h-149l266 690h163l265 -690h-151zM255 261h203l-101 277z" />
    <glyph glyph-name="Aacute" unicode="&#xc1;" horiz-adv-x="716" 
d="M547 889l-128 -143h-137l101 143h164zM554 0l-49 134h-296l-49 -134h-149l266 690h163l265 -690h-151zM255 261h203l-101 277z" />
    <glyph glyph-name="Acircumflex" unicode="&#xc2;" horiz-adv-x="716" 
d="M358 819l-56 -73h-122l99 143h157l99 -143h-122zM554 0l-49 134h-296l-49 -134h-149l266 690h163l265 -690h-151zM255 261h203l-101 277z" />
    <glyph glyph-name="Atilde" unicode="&#xc3;" horiz-adv-x="716" 
d="M308 793q-17 0 -27.5 -11t-10.5 -27h-92q0 62 30 102t84 40q31 0 65.5 -21.5t48.5 -21.5q16 0 27.5 11.5t11.5 28.5h91q0 -63 -29.5 -102.5t-83.5 -39.5q-32 0 -66.5 20.5t-48.5 20.5zM554 0l-49 134h-296l-49 -134h-149l266 690h163l265 -690h-151zM255 261h203
l-101 277z" />
    <glyph glyph-name="Adieresis" unicode="&#xc4;" horiz-adv-x="716" 
d="M250 745q-32 0 -53 21t-21 52t21.5 52t52.5 21t52.5 -21t21.5 -52t-21 -52t-53 -21zM466 745q-32 0 -53 21t-21 52t21.5 52t52.5 21t52 -21t21 -52t-21 -52t-52 -21zM554 0l-49 134h-296l-49 -134h-149l266 690h163l265 -690h-151zM255 261h203l-101 277z" />
    <glyph glyph-name="Aring" unicode="&#xc5;" horiz-adv-x="716" 
d="M358 734q-44 0 -73.5 28.5t-29.5 71.5t29.5 71.5t73.5 28.5t73 -28.5t29 -71.5t-29 -71.5t-73 -28.5zM358 869q-15 0 -24.5 -10t-9.5 -25t9.5 -25t24.5 -10q14 0 24 10t10 25t-10 25t-24 10zM554 0l-49 134h-296l-49 -134h-149l266 690h163l265 -690h-151zM255 261h203
l-101 277z" />
    <glyph glyph-name="AE" unicode="&#xc6;" horiz-adv-x="910" 
d="M578 130h290v-130h-428v131h-239l-76 -131h-157l402 690h493v-130h-285v-148h253v-130h-253v-152zM274 258h166v287z" />
    <glyph glyph-name="Ccedilla" unicode="&#xc7;" horiz-adv-x="727" 
d="M399 121q58 0 106.5 25.5t78.5 70.5l119 -74q-42 -63 -109.5 -103t-149.5 -50l-17 -20q40 -3 67 -33t27 -72q0 -47 -34 -78.5t-86 -31.5q-68 0 -113 51l45 54q29 -34 65 -34q19 0 32 11t13 28q0 16 -11.5 27.5t-28.5 11.5q-21 0 -31 -14l-72 33l54 67q-139 16 -229 115.5
t-90 239.5q0 152 104.5 254.5t259.5 102.5q96 0 175.5 -41.5t128.5 -113.5l-119 -74q-30 45 -78.5 70.5t-106.5 25.5q-95 0 -158.5 -64t-63.5 -160t63.5 -160t158.5 -64z" />
    <glyph glyph-name="Egrave" unicode="&#xc8;" horiz-adv-x="581" 
d="M381 746h-137l-128 143h164zM208 130h331v-130h-469v690h464v-130h-326v-148h293v-130h-293v-152z" />
    <glyph glyph-name="Eacute" unicode="&#xc9;" horiz-adv-x="581" 
d="M495 889l-128 -143h-137l101 143h164zM208 130h331v-130h-469v690h464v-130h-326v-148h293v-130h-293v-152z" />
    <glyph glyph-name="Ecircumflex" unicode="&#xca;" horiz-adv-x="581" 
d="M305 819l-56 -73h-122l99 143h157l99 -143h-122zM208 130h331v-130h-469v690h464v-130h-326v-148h293v-130h-293v-152z" />
    <glyph glyph-name="Edieresis" unicode="&#xcb;" horiz-adv-x="581" 
d="M197 745q-32 0 -53 21t-21 52t21.5 52t52.5 21t52.5 -21t21.5 -52t-21 -52t-53 -21zM413 745q-32 0 -53 21t-21 52t21.5 52t52.5 21t52 -21t21 -52t-21 -52t-52 -21zM208 130h331v-130h-469v690h464v-130h-326v-148h293v-130h-293v-152z" />
    <glyph glyph-name="Igrave" unicode="&#xcc;" horiz-adv-x="278" 
d="M78 746l-128 143h164l101 -143h-137zM70 0v690h138v-690h-138z" />
    <glyph glyph-name="Iacute" unicode="&#xcd;" horiz-adv-x="278" 
d="M64 746l101 143h164l-128 -143h-137zM70 0v690h138v-690h-138z" />
    <glyph glyph-name="Icircumflex" unicode="&#xce;" horiz-adv-x="278" 
d="M140 819l-56 -73h-122l99 143h157l99 -143h-122zM70 0v690h138v-690h-138z" />
    <glyph glyph-name="Idieresis" unicode="&#xcf;" horiz-adv-x="278" 
d="M32 745q-32 0 -53 21t-21 52t21.5 52t52.5 21t52.5 -21t21.5 -52t-21 -52t-53 -21zM248 745q-32 0 -53 21t-21 52t21.5 52t52.5 21t52 -21t21 -52t-21 -52t-52 -21zM70 0v690h138v-690h-138z" />
    <glyph glyph-name="Eth" unicode="&#xd0;" horiz-adv-x="727" 
d="M340 690q151 0 251.5 -98.5t100.5 -246.5t-100.5 -246.5t-251.5 -98.5h-270v298h-64v93h64v299h270zM337 130q91 0 152 61.5t61 153.5t-61 153.5t-152 61.5h-129v-169h104v-93h-104v-168h129z" />
    <glyph glyph-name="Ntilde" unicode="&#xd1;" horiz-adv-x="732" 
d="M320 793q-17 0 -27.5 -11t-10.5 -27h-92q0 62 30 102t84 40q31 0 65.5 -21.5t48.5 -21.5q16 0 27.5 11.5t11.5 28.5h91q0 -63 -29.5 -102.5t-83.5 -39.5q-32 0 -66.5 20.5t-48.5 20.5zM524 690h138v-690h-140l-314 453v-453h-138v690h140l314 -453v453z" />
    <glyph glyph-name="Ograve" unicode="&#xd2;" horiz-adv-x="798" 
d="M338 746l-128 143h164l101 -143h-137zM399 -12q-155 0 -259.5 102.5t-104.5 254.5t104.5 254.5t259.5 102.5t259.5 -102.5t104.5 -254.5t-104.5 -254.5t-259.5 -102.5zM399 121q95 0 158.5 64t63.5 160t-63.5 160t-158.5 64t-158.5 -64t-63.5 -160t63.5 -160t158.5 -64z
" />
    <glyph glyph-name="Oacute" unicode="&#xd3;" horiz-adv-x="798" 
d="M324 746l101 143h164l-128 -143h-137zM399 -12q-155 0 -259.5 102.5t-104.5 254.5t104.5 254.5t259.5 102.5t259.5 -102.5t104.5 -254.5t-104.5 -254.5t-259.5 -102.5zM399 121q95 0 158.5 64t63.5 160t-63.5 160t-158.5 64t-158.5 -64t-63.5 -160t63.5 -160t158.5 -64z
" />
    <glyph glyph-name="Ocircumflex" unicode="&#xd4;" horiz-adv-x="798" 
d="M399 819l-56 -73h-122l99 143h157l99 -143h-122zM399 702q155 0 259.5 -102.5t104.5 -254.5t-104.5 -254.5t-259.5 -102.5t-259.5 102.5t-104.5 254.5t104.5 254.5t259.5 102.5zM399 121q95 0 158.5 64t63.5 160t-63.5 160t-158.5 64t-158.5 -64t-63.5 -160t63.5 -160
t158.5 -64z" />
    <glyph glyph-name="Otilde" unicode="&#xd5;" horiz-adv-x="798" 
d="M464 752q-32 0 -66.5 20.5t-48.5 20.5q-17 0 -27.5 -11t-10.5 -27h-92q0 62 30 102t84 40q31 0 65.5 -21.5t48.5 -21.5q16 0 27.5 11.5t11.5 28.5h91q0 -63 -29.5 -102.5t-83.5 -39.5zM399 -12q-155 0 -259.5 102.5t-104.5 254.5t104.5 254.5t259.5 102.5t259.5 -102.5
t104.5 -254.5t-104.5 -254.5t-259.5 -102.5zM399 121q95 0 158.5 64t63.5 160t-63.5 160t-158.5 64t-158.5 -64t-63.5 -160t63.5 -160t158.5 -64z" />
    <glyph glyph-name="Odieresis" unicode="&#xd6;" horiz-adv-x="798" 
d="M291 745q-32 0 -53 21t-21 52t21.5 52t52.5 21t52.5 -21t21.5 -52t-21 -52t-53 -21zM507 745q-32 0 -53 21t-21 52t21.5 52t52.5 21t52 -21t21 -52t-21 -52t-52 -21zM399 -12q-155 0 -259.5 102.5t-104.5 254.5t104.5 254.5t259.5 102.5t259.5 -102.5t104.5 -254.5
t-104.5 -254.5t-259.5 -102.5zM399 121q95 0 158.5 64t63.5 160t-63.5 160t-158.5 64t-158.5 -64t-63.5 -160t63.5 -160t158.5 -64z" />
    <glyph glyph-name="multiply" unicode="&#xd7;" horiz-adv-x="497" 
d="M439 400l-105 -105l105 -105l-85 -86l-105 106l-106 -106l-85 86l105 105l-105 105l85 86l106 -105l105 105z" />
    <glyph glyph-name="Oslash" unicode="&#xd8;" horiz-adv-x="798" 
d="M667 591q96 -102 96 -246q0 -152 -104.5 -254.5t-259.5 -102.5q-112 0 -202 57l-38 -45h-115l86 100q-95 101 -95 245q0 152 104.5 254.5t259.5 102.5q112 0 201 -56l38 44h115zM177 345q0 -79 45 -138l288 334q-51 28 -111 28q-95 0 -158.5 -64t-63.5 -160zM399 121
q95 0 158.5 64t63.5 160q0 78 -45 139l-288 -335q50 -28 111 -28z" />
    <glyph glyph-name="Ugrave" unicode="&#xd9;" horiz-adv-x="686" 
d="M282 746l-128 143h164l101 -143h-137zM343 -12q-122 0 -204 80t-82 199v423h138v-421q0 -63 42 -105.5t106 -42.5t106 42.5t42 105.5v421h138v-423q0 -119 -82 -199t-204 -80z" />
    <glyph glyph-name="Uacute" unicode="&#xda;" horiz-adv-x="686" 
d="M268 746l101 143h164l-128 -143h-137zM343 -12q-122 0 -204 80t-82 199v423h138v-421q0 -63 42 -105.5t106 -42.5t106 42.5t42 105.5v421h138v-423q0 -119 -82 -199t-204 -80z" />
    <glyph glyph-name="Ucircumflex" unicode="&#xdb;" horiz-adv-x="686" 
d="M343 819l-56 -73h-122l99 143h157l99 -143h-122zM491 690h138v-423q0 -119 -82 -199t-204 -80t-204 80t-82 199v423h138v-421q0 -63 42 -105.5t106 -42.5t106 42.5t42 105.5v421z" />
    <glyph glyph-name="Udieresis" unicode="&#xdc;" horiz-adv-x="686" 
d="M235 745q-32 0 -53 21t-21 52t21.5 52t52.5 21t52.5 -21t21.5 -52t-21 -52t-53 -21zM451 745q-32 0 -53 21t-21 52t21.5 52t52.5 21t52 -21t21 -52t-21 -52t-52 -21zM343 -12q-122 0 -204 80t-82 199v423h138v-421q0 -63 42 -105.5t106 -42.5t106 42.5t42 105.5v421h138
v-423q0 -119 -82 -199t-204 -80z" />
    <glyph glyph-name="Yacute" unicode="&#xdd;" horiz-adv-x="674" 
d="M527 889l-128 -143h-137l101 143h164zM521 690h154l-269 -448v-242h-138v242l-269 448h158l182 -308z" />
    <glyph glyph-name="Thorn" unicode="&#xde;" horiz-adv-x="626" 
d="M371 576q101 0 169 -66t68 -164q0 -99 -68 -164.5t-169 -65.5h-163v-116h-138v690h138v-114h163zM368 246q42 0 70 28.5t28 71.5t-28 71.5t-70 28.5h-160v-200h160z" />
    <glyph glyph-name="germandbls" unicode="&#xdf;" horiz-adv-x="565" 
d="M426 374q52 -19 85 -67.5t33 -111.5q0 -88 -62.5 -147.5t-157.5 -59.5q-45 0 -78 12v126q26 -12 62 -12q47 0 74.5 28t27.5 69q0 42 -28.5 71t-69.5 29h-45v125h36q34 0 58 24t24 60q0 37 -27.5 61.5t-68.5 24.5q-43 0 -71.5 -28t-28.5 -70v-508h-130v519q0 91 65 152
t165 61q97 0 163.5 -57.5t66.5 -141.5q0 -50 -25 -92.5t-68 -66.5z" />
    <glyph glyph-name="agrave" unicode="&#xe0;" 
d="M399 566h-137l-128 143h164zM448 510h130v-510h-130v61q-67 -73 -166 -73q-106 0 -177.5 76.5t-71.5 190.5t71.5 190.5t177.5 76.5q99 0 166 -73v61zM307 114q61 0 101 40.5t40 100.5t-40 100.5t-101 40.5q-60 0 -100 -40.5t-40 -100.5t40 -100.5t100 -40.5z" />
    <glyph glyph-name="aacute" unicode="&#xe1;" 
d="M513 709l-128 -143h-137l101 143h164zM448 510h130v-510h-130v61q-67 -73 -166 -73q-106 0 -177.5 76.5t-71.5 190.5t71.5 190.5t177.5 76.5q99 0 166 -73v61zM307 114q61 0 101 40.5t40 100.5t-40 100.5t-101 40.5q-60 0 -100 -40.5t-40 -100.5t40 -100.5t100 -40.5z
" />
    <glyph glyph-name="acircumflex" unicode="&#xe2;" 
d="M324 639l-56 -73h-122l99 143h157l99 -143h-122zM448 510h130v-510h-130v61q-67 -73 -166 -73q-106 0 -177.5 76.5t-71.5 190.5t71.5 190.5t177.5 76.5q99 0 166 -73v61zM307 114q61 0 101 40.5t40 100.5t-40 100.5t-101 40.5q-60 0 -100 -40.5t-40 -100.5t40 -100.5
t100 -40.5z" />
    <glyph glyph-name="atilde" unicode="&#xe3;" 
d="M274 613q-17 0 -27.5 -11t-10.5 -27h-92q0 62 30 102t84 40q31 0 65.5 -21.5t48.5 -21.5q16 0 27.5 11.5t11.5 28.5h91q0 -63 -29.5 -102.5t-83.5 -39.5q-32 0 -66.5 20.5t-48.5 20.5zM448 510h130v-510h-130v61q-67 -73 -166 -73q-106 0 -177.5 76.5t-71.5 190.5
t71.5 190.5t177.5 76.5q99 0 166 -73v61zM307 114q61 0 101 40.5t40 100.5t-40 100.5t-101 40.5q-60 0 -100 -40.5t-40 -100.5t40 -100.5t100 -40.5z" />
    <glyph glyph-name="adieresis" unicode="&#xe4;" 
d="M216 565q-32 0 -53 21t-21 52t21.5 52t52.5 21t52.5 -21t21.5 -52t-21 -52t-53 -21zM432 565q-32 0 -53 21t-21 52t21.5 52t52.5 21t52 -21t21 -52t-21 -52t-52 -21zM448 510h130v-510h-130v61q-67 -73 -166 -73q-106 0 -177.5 76.5t-71.5 190.5t71.5 190.5t177.5 76.5
q99 0 166 -73v61zM307 114q61 0 101 40.5t40 100.5t-40 100.5t-101 40.5q-60 0 -100 -40.5t-40 -100.5t40 -100.5t100 -40.5z" />
    <glyph glyph-name="aring" unicode="&#xe5;" 
d="M324 554q-44 0 -73.5 28.5t-29.5 71.5t29.5 71.5t73.5 28.5t73 -28.5t29 -71.5t-29 -71.5t-73 -28.5zM324 689q-15 0 -24.5 -10t-9.5 -25t9.5 -25t24.5 -10q14 0 24 10t10 25t-10 25t-24 10zM448 510h130v-510h-130v61q-67 -73 -166 -73q-106 0 -177.5 76.5t-71.5 190.5
t71.5 190.5t177.5 76.5q99 0 166 -73v61zM307 114q61 0 101 40.5t40 100.5t-40 100.5t-101 40.5q-60 0 -100 -40.5t-40 -100.5t40 -100.5t100 -40.5z" />
    <glyph glyph-name="ae" unicode="&#xe6;" horiz-adv-x="923" 
d="M894 252q0 -24 -3 -41h-396q13 -50 52 -79t94 -29q43 0 79 17.5t57 44.5l90 -75q-87 -102 -229 -102q-124 0 -203 84q-32 -38 -86 -61t-120 -23q-92 0 -148.5 45.5t-56.5 115.5q0 68 54.5 112.5t136.5 44.5h148v14q0 41 -32 66t-85 25q-72 0 -114 -50l-76 74
q64 87 196 87q119 0 187 -76q74 76 187 76q115 0 191.5 -76.5t76.5 -193.5zM625 408q-47 0 -81.5 -28t-47.5 -74h259q-13 46 -48 74t-82 28zM248 93q80 0 136 56q-13 32 -17 62h-130q-35 0 -57 -16.5t-22 -40.5q0 -26 25 -43.5t65 -17.5z" />
    <glyph glyph-name="ccedilla" unicode="&#xe7;" horiz-adv-x="559" 
d="M305 114q40 0 72 19t50 50l113 -68q-30 -49 -79 -81.5t-110 -42.5l-18 -21q40 -3 67 -33t27 -72q0 -47 -34 -78.5t-86 -31.5q-68 0 -113 51l45 54q29 -34 65 -34q19 0 32 11t13 28q0 16 -11.5 27.5t-28.5 11.5q-21 0 -31 -14l-72 33l55 68q-101 15 -165.5 88.5
t-64.5 175.5q0 114 78.5 190.5t195.5 76.5q76 0 138 -34t97 -93l-113 -68q-18 31 -50 50t-72 19q-60 0 -100 -40.5t-40 -100.5t40 -100.5t100 -40.5z" />
    <glyph glyph-name="egrave" unicode="&#xe8;" horiz-adv-x="599" 
d="M381 566h-137l-128 143h164zM570 254q0 -25 -3 -46h-395q14 -48 52.5 -76.5t93.5 -28.5q44 0 81 18t59 45l87 -76q-86 -102 -231 -102q-121 0 -202 77t-81 192q0 113 77.5 189t193.5 76q115 0 191.5 -76.5t76.5 -191.5zM301 408q-48 0 -83 -28.5t-47 -76.5h260
q-12 48 -47.5 76.5t-82.5 28.5z" />
    <glyph glyph-name="eacute" unicode="&#xe9;" horiz-adv-x="599" 
d="M495 709l-128 -143h-137l101 143h164zM570 254q0 -25 -3 -46h-395q14 -48 52.5 -76.5t93.5 -28.5q44 0 81 18t59 45l87 -76q-86 -102 -231 -102q-121 0 -202 77t-81 192q0 113 77.5 189t193.5 76q115 0 191.5 -76.5t76.5 -191.5zM301 408q-48 0 -83 -28.5t-47 -76.5h260
q-12 48 -47.5 76.5t-82.5 28.5z" />
    <glyph glyph-name="ecircumflex" unicode="&#xea;" horiz-adv-x="599" 
d="M306 639l-56 -73h-122l99 143h157l99 -143h-122zM570 254q0 -25 -3 -46h-395q14 -48 52.5 -76.5t93.5 -28.5q44 0 81 18t59 45l87 -76q-86 -102 -231 -102q-121 0 -202 77t-81 192q0 113 77.5 189t193.5 76q115 0 191.5 -76.5t76.5 -191.5zM301 408q-48 0 -83 -28.5
t-47 -76.5h260q-12 48 -47.5 76.5t-82.5 28.5z" />
    <glyph glyph-name="edieresis" unicode="&#xeb;" horiz-adv-x="599" 
d="M198 565q-32 0 -53 21t-21 52t21.5 52t52.5 21t52.5 -21t21.5 -52t-21 -52t-53 -21zM414 565q-32 0 -53 21t-21 52t21.5 52t52.5 21t52 -21t21 -52t-21 -52t-52 -21zM570 254q0 -25 -3 -46h-395q14 -48 52.5 -76.5t93.5 -28.5q44 0 81 18t59 45l87 -76
q-86 -102 -231 -102q-121 0 -202 77t-81 192q0 113 77.5 189t193.5 76q115 0 191.5 -76.5t76.5 -191.5zM301 408q-48 0 -83 -28.5t-47 -76.5h260q-12 48 -47.5 76.5t-82.5 28.5z" />
    <glyph glyph-name="igrave" unicode="&#xec;" horiz-adv-x="254" 
d="M66 566l-128 143h164l101 -143h-137zM62 0v510h130v-510h-130z" />
    <glyph glyph-name="iacute" unicode="&#xed;" horiz-adv-x="254" 
d="M52 566l101 143h164l-128 -143h-137zM62 0v510h130v-510h-130z" />
    <glyph glyph-name="icircumflex" unicode="&#xee;" horiz-adv-x="254" 
d="M127 639l-56 -73h-122l99 143h157l99 -143h-122zM62 0v510h130v-510h-130z" />
    <glyph glyph-name="idieresis" unicode="&#xef;" horiz-adv-x="254" 
d="M19 565q-32 0 -53 21t-21 52t21.5 52t52.5 21t52.5 -21t21.5 -52t-21 -52t-53 -21zM235 565q-32 0 -53 21t-21 52t21.5 52t52.5 21t52 -21t21 -52t-21 -52t-52 -21zM62 0v510h130v-510h-130z" />
    <glyph glyph-name="eth" unicode="&#xf0;" horiz-adv-x="583" 
d="M338 654q99 -65 156 -170.5t57 -222.5q0 -127 -72.5 -200t-185.5 -73t-187.5 72.5t-74.5 181.5q0 106 70 179t170 73q57 0 104 -27q-46 60 -117 96l-34 -38h-96l59 67q-42 10 -74 13v123q86 -6 160 -39l34 39h96zM291 114q54 0 90 36t36 91t-36 91t-90 36t-90 -36
t-36 -91t36 -91t90 -36z" />
    <glyph glyph-name="ntilde" unicode="&#xf1;" horiz-adv-x="607" 
d="M259 613q-17 0 -27.5 -11t-10.5 -27h-92q0 62 30 102t84 40q31 0 65.5 -21.5t48.5 -21.5q16 0 27.5 11.5t11.5 28.5h91q0 -63 -29.5 -102.5t-83.5 -39.5q-32 0 -66.5 20.5t-48.5 20.5zM354 522q90 0 144.5 -54t54.5 -144v-324h-130v282q0 52 -30.5 83t-81.5 31
q-53 0 -86 -32t-33 -84v-280h-130v510h130v-57q61 69 162 69z" />
    <glyph glyph-name="ograve" unicode="&#xf2;" horiz-adv-x="610" 
d="M244 566l-128 143h164l101 -143h-137zM305 -12q-117 0 -195.5 76.5t-78.5 190.5t78.5 190.5t195.5 76.5t195.5 -76.5t78.5 -190.5t-78.5 -190.5t-195.5 -76.5zM305 114q60 0 100 40.5t40 100.5t-40 100.5t-100 40.5t-100 -40.5t-40 -100.5t40 -100.5t100 -40.5z" />
    <glyph glyph-name="oacute" unicode="&#xf3;" horiz-adv-x="610" 
d="M230 566l101 143h164l-128 -143h-137zM305 -12q-117 0 -195.5 76.5t-78.5 190.5t78.5 190.5t195.5 76.5t195.5 -76.5t78.5 -190.5t-78.5 -190.5t-195.5 -76.5zM305 114q60 0 100 40.5t40 100.5t-40 100.5t-100 40.5t-100 -40.5t-40 -100.5t40 -100.5t100 -40.5z" />
    <glyph glyph-name="ocircumflex" unicode="&#xf4;" horiz-adv-x="610" 
d="M306 639l-56 -73h-122l99 143h157l99 -143h-122zM305 522q117 0 195.5 -76.5t78.5 -190.5t-78.5 -190.5t-195.5 -76.5t-195.5 76.5t-78.5 190.5t78.5 190.5t195.5 76.5zM305 114q60 0 100 40.5t40 100.5t-40 100.5t-100 40.5t-100 -40.5t-40 -100.5t40 -100.5t100 -40.5z
" />
    <glyph glyph-name="otilde" unicode="&#xf5;" horiz-adv-x="610" 
d="M371 572q-32 0 -66.5 20.5t-48.5 20.5q-17 0 -27.5 -11t-10.5 -27h-92q0 62 30 102t84 40q31 0 65.5 -21.5t48.5 -21.5q16 0 27.5 11.5t11.5 28.5h91q0 -63 -29.5 -102.5t-83.5 -39.5zM305 -12q-117 0 -195.5 76.5t-78.5 190.5t78.5 190.5t195.5 76.5t195.5 -76.5
t78.5 -190.5t-78.5 -190.5t-195.5 -76.5zM305 114q60 0 100 40.5t40 100.5t-40 100.5t-100 40.5t-100 -40.5t-40 -100.5t40 -100.5t100 -40.5z" />
    <glyph glyph-name="odieresis" unicode="&#xf6;" horiz-adv-x="610" 
d="M198 565q-32 0 -53 21t-21 52t21.5 52t52.5 21t52.5 -21t21.5 -52t-21 -52t-53 -21zM414 565q-32 0 -53 21t-21 52t21.5 52t52.5 21t52 -21t21 -52t-21 -52t-52 -21zM305 -12q-117 0 -195.5 76.5t-78.5 190.5t78.5 190.5t195.5 76.5t195.5 -76.5t78.5 -190.5
t-78.5 -190.5t-195.5 -76.5zM305 114q60 0 100 40.5t40 100.5t-40 100.5t-100 40.5t-100 -40.5t-40 -100.5t40 -100.5t100 -40.5z" />
    <glyph glyph-name="divide" unicode="&#xf7;" horiz-adv-x="534" 
d="M267 402q-30 0 -50.5 20t-20.5 49q0 30 20.5 50t50.5 20t50.5 -20t20.5 -50q0 -29 -20.5 -49t-50.5 -20zM58 242v108h418v-108h-418zM267 50q-30 0 -50.5 20t-20.5 50q0 29 20.5 49t50.5 20t50.5 -20t20.5 -49q0 -30 -20.5 -50t-50.5 -20z" />
    <glyph glyph-name="oslash" unicode="&#xf8;" horiz-adv-x="610" 
d="M511 435q68 -74 68 -180q0 -114 -78.5 -190.5t-195.5 -76.5q-85 0 -153 43l-27 -31h-93l67 75q-68 74 -68 180q0 114 78.5 190.5t195.5 76.5q85 0 153 -43l27 31h93zM165 255q0 -45 23 -79l182 205q-29 15 -65 15q-60 0 -100 -40.5t-40 -100.5zM305 114q60 0 100 40.5
t40 100.5q0 45 -23 80l-182 -206q29 -15 65 -15z" />
    <glyph glyph-name="ugrave" unicode="&#xf9;" horiz-adv-x="584" 
d="M230 566l-128 143h164l101 -143h-137zM292 -12q-108 0 -173 58.5t-65 156.5v307h130v-289q0 -49 29.5 -78t78.5 -29t78.5 29t29.5 78v289h130v-307q0 -97 -65.5 -156t-172.5 -59z" />
    <glyph glyph-name="uacute" unicode="&#xfa;" horiz-adv-x="584" 
d="M216 566l101 143h164l-128 -143h-137zM292 -12q-108 0 -173 58.5t-65 156.5v307h130v-289q0 -49 29.5 -78t78.5 -29t78.5 29t29.5 78v289h130v-307q0 -97 -65.5 -156t-172.5 -59z" />
    <glyph glyph-name="ucircumflex" unicode="&#xfb;" horiz-adv-x="584" 
d="M292 639l-56 -73h-122l99 143h157l99 -143h-122zM400 510h130v-307q0 -97 -65.5 -156t-172.5 -59q-108 0 -173 58.5t-65 156.5v307h130v-289q0 -49 29.5 -78t78.5 -29t78.5 29t29.5 78v289z" />
    <glyph glyph-name="udieresis" unicode="&#xfc;" horiz-adv-x="584" 
d="M184 565q-32 0 -53 21t-21 52t21.5 52t52.5 21t52.5 -21t21.5 -52t-21 -52t-53 -21zM400 565q-32 0 -53 21t-21 52t21.5 52t52.5 21t52 -21t21 -52t-21 -52t-52 -21zM292 -12q-108 0 -173 58.5t-65 156.5v307h130v-289q0 -49 29.5 -78t78.5 -29t78.5 29t29.5 78v289h130
v-307q0 -97 -65.5 -156t-172.5 -59z" />
    <glyph glyph-name="yacute" unicode="&#xfd;" horiz-adv-x="568" 
d="M474 709l-128 -143h-137l101 143h164zM418 510h145l-252 -599q-21 -52 -63 -82.5t-92 -30.5q-35 0 -72 14t-62 37l50 102q25 -27 62 -27q40 0 58 40l21 44l-208 502h148l133 -347z" />
    <glyph glyph-name="thorn" unicode="&#xfe;" 
d="M358 522q106 0 177 -76.5t71 -190.5t-71 -190.5t-177 -76.5q-101 0 -166 73v-251h-130v910h130v-271q65 73 166 73zM332 114q60 0 100 40.5t40 100.5t-40 100.5t-100 40.5t-100 -40.5t-40 -100.5t40 -100.5t100 -40.5z" />
    <glyph glyph-name="ydieresis" unicode="&#xff;" horiz-adv-x="568" 
d="M176 565q-32 0 -53 21t-21 52t21.5 52t52.5 21t52.5 -21t21.5 -52t-21 -52t-53 -21zM392 565q-32 0 -53 21t-21 52t21.5 52t52.5 21t52 -21t21 -52t-21 -52t-52 -21zM418 510h145l-252 -599q-21 -52 -63 -82.5t-92 -30.5q-35 0 -72 14t-62 37l50 102q25 -27 62 -27
q40 0 58 40l21 44l-208 502h148l133 -347z" />
    <glyph glyph-name="Amacron" unicode="&#x100;" horiz-adv-x="716" 
d="M490 866v-109h-264v109h264zM554 0l-49 134h-296l-49 -134h-149l266 690h163l265 -690h-151zM255 261h203l-101 277z" />
    <glyph glyph-name="amacron" unicode="&#x101;" 
d="M456 686v-109h-264v109h264zM448 510h130v-510h-130v61q-67 -73 -166 -73q-106 0 -177.5 76.5t-71.5 190.5t71.5 190.5t177.5 76.5q99 0 166 -73v61zM307 114q61 0 101 40.5t40 100.5t-40 100.5t-101 40.5q-60 0 -100 -40.5t-40 -100.5t40 -100.5t100 -40.5z" />
    <glyph glyph-name="Abreve" unicode="&#x102;" horiz-adv-x="716" 
d="M358 736q-67 0 -112.5 43t-45.5 108h101q0 -25 16 -41.5t41 -16.5q24 0 40.5 16.5t16.5 41.5h100q0 -65 -45 -108t-112 -43zM554 0l-49 134h-296l-49 -134h-149l266 690h163l265 -690h-151zM255 261h203l-101 277z" />
    <glyph glyph-name="abreve" unicode="&#x103;" 
d="M324 556q-67 0 -112.5 43t-45.5 108h101q0 -25 16 -41.5t41 -16.5q24 0 40.5 16.5t16.5 41.5h100q0 -65 -45 -108t-112 -43zM448 510h130v-510h-130v61q-67 -73 -166 -73q-106 0 -177.5 76.5t-71.5 190.5t71.5 190.5t177.5 76.5q99 0 166 -73v61zM307 114q61 0 101 40.5
t40 100.5t-40 100.5t-101 40.5q-60 0 -100 -40.5t-40 -100.5t40 -100.5t100 -40.5z" />
    <glyph glyph-name="Aogonek" unicode="&#x104;" horiz-adv-x="716" 
d="M695 -131l29 -80q-42 -28 -98 -28q-57 0 -93.5 31t-36.5 79q0 41 28 75.5t73 53.5h-43l-49 134h-296l-49 -134h-149l266 690h163l265 -690h-1q-105 -46 -105 -101q0 -21 14.5 -33t33.5 -12q23 0 48 15zM255 261h203l-101 277z" />
    <glyph glyph-name="aogonek" unicode="&#x105;" 
d="M567 -131l29 -80q-42 -28 -98 -28q-57 0 -93.5 31t-36.5 79q0 41 28 75.5t73 53.5h-21v61q-67 -73 -166 -73q-106 0 -177.5 76.5t-71.5 190.5t71.5 190.5t177.5 76.5q99 0 166 -73v61h130v-510h-2q-105 -46 -105 -101q0 -21 14.5 -33t33.5 -12q23 0 48 15zM307 114
q61 0 101 40.5t40 100.5t-40 100.5t-101 40.5q-60 0 -100 -40.5t-40 -100.5t40 -100.5t100 -40.5z" />
    <glyph glyph-name="Cacute" unicode="&#x106;" horiz-adv-x="727" 
d="M324 746l101 143h164l-128 -143h-137zM399 -12q-155 0 -259.5 102.5t-104.5 254.5t104.5 254.5t259.5 102.5q96 0 175.5 -41.5t128.5 -113.5l-119 -74q-30 45 -78.5 70.5t-106.5 25.5q-95 0 -158.5 -64t-63.5 -160t63.5 -160t158.5 -64q58 0 106.5 25.5t78.5 70.5
l119 -74q-49 -72 -128.5 -113.5t-175.5 -41.5z" />
    <glyph glyph-name="cacute" unicode="&#x107;" horiz-adv-x="559" 
d="M230 566l101 143h164l-128 -143h-137zM305 -12q-117 0 -195.5 76.5t-78.5 190.5t78.5 190.5t195.5 76.5q76 0 138 -34t97 -93l-113 -68q-18 31 -50 50t-72 19q-60 0 -100 -40.5t-40 -100.5t40 -100.5t100 -40.5q40 0 72 19t50 50l113 -68q-35 -59 -97 -93t-138 -34z" />
    <glyph glyph-name="Ccircumflex" unicode="&#x108;" horiz-adv-x="727" 
d="M399 819l-56 -73h-122l99 143h157l99 -143h-122zM399 121q58 0 106.5 25.5t78.5 70.5l119 -74q-49 -72 -128.5 -113.5t-175.5 -41.5q-155 0 -259.5 102.5t-104.5 254.5t104.5 254.5t259.5 102.5q96 0 175.5 -41.5t128.5 -113.5l-119 -74q-30 45 -78.5 70.5t-106.5 25.5
q-95 0 -158.5 -64t-63.5 -160t63.5 -160t158.5 -64z" />
    <glyph glyph-name="ccircumflex" unicode="&#x109;" horiz-adv-x="559" 
d="M306 639l-56 -73h-122l99 143h157l99 -143h-122zM305 114q40 0 72 19t50 50l113 -68q-35 -59 -97 -93t-138 -34q-117 0 -195.5 76.5t-78.5 190.5t78.5 190.5t195.5 76.5q76 0 138 -34t97 -93l-113 -68q-18 31 -50 50t-72 19q-60 0 -100 -40.5t-40 -100.5t40 -100.5
t100 -40.5z" />
    <glyph glyph-name="Cdotaccent" unicode="&#x10a;" horiz-adv-x="727" 
d="M399 745q-33 0 -55 21.5t-22 54.5t22 55t55 22t55.5 -22t22.5 -55t-22.5 -54.5t-55.5 -21.5zM399 -12q-155 0 -259.5 102.5t-104.5 254.5t104.5 254.5t259.5 102.5q96 0 175.5 -41.5t128.5 -113.5l-119 -74q-30 45 -78.5 70.5t-106.5 25.5q-95 0 -158.5 -64t-63.5 -160
t63.5 -160t158.5 -64q58 0 106.5 25.5t78.5 70.5l119 -74q-49 -72 -128.5 -113.5t-175.5 -41.5z" />
    <glyph glyph-name="cdotaccent" unicode="&#x10b;" horiz-adv-x="559" 
d="M305 565q-33 0 -55 21.5t-22 54.5t22 55t55 22t55.5 -22t22.5 -55t-22.5 -54.5t-55.5 -21.5zM305 -12q-117 0 -195.5 76.5t-78.5 190.5t78.5 190.5t195.5 76.5q76 0 138 -34t97 -93l-113 -68q-18 31 -50 50t-72 19q-60 0 -100 -40.5t-40 -100.5t40 -100.5t100 -40.5
q40 0 72 19t50 50l113 -68q-35 -59 -97 -93t-138 -34z" />
    <glyph glyph-name="Ccaron" unicode="&#x10c;" horiz-adv-x="727" 
d="M477 746h-157l-99 143h122l56 -73l55 73h122zM399 121q58 0 106.5 25.5t78.5 70.5l119 -74q-49 -72 -128.5 -113.5t-175.5 -41.5q-155 0 -259.5 102.5t-104.5 254.5t104.5 254.5t259.5 102.5q96 0 175.5 -41.5t128.5 -113.5l-119 -74q-30 45 -78.5 70.5t-106.5 25.5
q-95 0 -158.5 -64t-63.5 -160t63.5 -160t158.5 -64z" />
    <glyph glyph-name="ccaron" unicode="&#x10d;" horiz-adv-x="559" 
d="M384 566h-157l-99 143h122l56 -73l55 73h122zM305 114q40 0 72 19t50 50l113 -68q-35 -59 -97 -93t-138 -34q-117 0 -195.5 76.5t-78.5 190.5t78.5 190.5t195.5 76.5q76 0 138 -34t97 -93l-113 -68q-18 31 -50 50t-72 19q-60 0 -100 -40.5t-40 -100.5t40 -100.5
t100 -40.5z" />
    <glyph glyph-name="Dcaron" unicode="&#x10e;" horiz-adv-x="727" 
d="M434 746h-157l-99 143h122l56 -73l55 73h122zM340 690q151 0 251.5 -98.5t100.5 -246.5t-100.5 -246.5t-251.5 -98.5h-270v690h270zM337 130q91 0 152 61.5t61 153.5t-61 153.5t-152 61.5h-129v-430h129z" />
    <glyph glyph-name="dcaron" unicode="&#x10f;" horiz-adv-x="735" 
d="M445 444v276h130v-720h-130v66q-64 -78 -165 -78q-106 0 -177.5 76.5t-71.5 190.5t71.5 190.5t177.5 76.5q101 0 165 -78zM650 720h118l-41 -222h-98zM305 114q60 0 100 40.5t40 100.5t-40 100.5t-100 40.5t-100 -40.5t-40 -100.5t40 -100.5t100 -40.5z" />
    <glyph glyph-name="Dcroat" unicode="&#x110;" horiz-adv-x="727" 
d="M340 690q151 0 251.5 -98.5t100.5 -246.5t-100.5 -246.5t-251.5 -98.5h-270v298h-64v93h64v299h270zM337 130q91 0 152 61.5t61 153.5t-61 153.5t-152 61.5h-129v-169h104v-93h-104v-168h129z" />
    <glyph glyph-name="dcroat" unicode="&#x111;" 
d="M640 654v-93h-62v-561h-130v61q-67 -73 -166 -73q-106 0 -177.5 76.5t-71.5 190.5t71.5 190.5t177.5 76.5q99 0 166 -73v112h-114v93h114v66h130v-66h62zM307 114q61 0 101 40.5t40 100.5t-40 100.5t-101 40.5q-60 0 -100 -40.5t-40 -100.5t40 -100.5t100 -40.5z" />
    <glyph glyph-name="Emacron" unicode="&#x112;" horiz-adv-x="581" 
d="M437 866v-109h-264v109h264zM208 130h331v-130h-469v690h464v-130h-326v-148h293v-130h-293v-152z" />
    <glyph glyph-name="emacron" unicode="&#x113;" horiz-adv-x="599" 
d="M438 686v-109h-264v109h264zM570 254q0 -25 -3 -46h-395q14 -48 52.5 -76.5t93.5 -28.5q44 0 81 18t59 45l87 -76q-86 -102 -231 -102q-121 0 -202 77t-81 192q0 113 77.5 189t193.5 76q115 0 191.5 -76.5t76.5 -191.5zM301 408q-48 0 -83 -28.5t-47 -76.5h260
q-12 48 -47.5 76.5t-82.5 28.5z" />
    <glyph glyph-name="Ebreve" unicode="&#x114;" horiz-adv-x="581" 
d="M305 736q-67 0 -112.5 43t-45.5 108h101q0 -25 16 -41.5t41 -16.5q24 0 40.5 16.5t16.5 41.5h100q0 -65 -45 -108t-112 -43zM208 130h331v-130h-469v690h464v-130h-326v-148h293v-130h-293v-152z" />
    <glyph glyph-name="ebreve" unicode="&#x115;" horiz-adv-x="599" 
d="M306 556q-67 0 -112.5 43t-45.5 108h101q0 -25 16 -41.5t41 -16.5q24 0 40.5 16.5t16.5 41.5h100q0 -65 -45 -108t-112 -43zM570 254q0 -25 -3 -46h-395q14 -48 52.5 -76.5t93.5 -28.5q44 0 81 18t59 45l87 -76q-86 -102 -231 -102q-121 0 -202 77t-81 192
q0 113 77.5 189t193.5 76q115 0 191.5 -76.5t76.5 -191.5zM301 408q-48 0 -83 -28.5t-47 -76.5h260q-12 48 -47.5 76.5t-82.5 28.5z" />
    <glyph glyph-name="Edotaccent" unicode="&#x116;" horiz-adv-x="581" 
d="M305 745q-33 0 -55 21.5t-22 54.5t22 55t55 22t55.5 -22t22.5 -55t-22.5 -54.5t-55.5 -21.5zM208 130h331v-130h-469v690h464v-130h-326v-148h293v-130h-293v-152z" />
    <glyph glyph-name="edotaccent" unicode="&#x117;" horiz-adv-x="599" 
d="M305 565q-33 0 -55 21.5t-22 54.5t22 55t55 22t55.5 -22t22.5 -55t-22.5 -54.5t-55.5 -21.5zM570 254q0 -25 -3 -46h-395q14 -48 52.5 -76.5t93.5 -28.5q44 0 81 18t59 45l87 -76q-86 -102 -231 -102q-121 0 -202 77t-81 192q0 113 77.5 189t193.5 76q115 0 191.5 -76.5
t76.5 -191.5zM301 408q-48 0 -83 -28.5t-47 -76.5h260q-12 48 -47.5 76.5t-82.5 28.5z" />
    <glyph glyph-name="Eogonek" unicode="&#x118;" horiz-adv-x="581" 
d="M525 -131l29 -80q-42 -28 -98 -28q-57 0 -93.5 31t-36.5 79q0 41 28 75.5t73 53.5h-357v690h464v-130h-326v-148h293v-130h-293v-152h331v-130h-5q-105 -46 -105 -101q0 -21 14.5 -33t33.5 -12q23 0 48 15z" />
    <glyph glyph-name="eogonek" unicode="&#x119;" horiz-adv-x="599" 
d="M570 254q0 -25 -3 -46h-395q14 -48 52.5 -76.5t93.5 -28.5q44 0 81 18t59 45l87 -76q-46 -55 -117 -82q-68 -51 -68 -103q0 -23 14 -36.5t35 -13.5q24 0 46 17l30 -80q-42 -31 -103 -31q-55 0 -91.5 32.5t-36.5 84.5q0 61 49 110q-118 4 -195 80.5t-77 188.5
q0 113 77.5 189t193.5 76q115 0 191.5 -76.5t76.5 -191.5zM301 408q-48 0 -83 -28.5t-47 -76.5h260q-12 48 -47.5 76.5t-82.5 28.5z" />
    <glyph glyph-name="Ecaron" unicode="&#x11a;" horiz-adv-x="581" 
d="M383 746h-157l-99 143h122l56 -73l55 73h122zM208 130h331v-130h-469v690h464v-130h-326v-148h293v-130h-293v-152z" />
    <glyph glyph-name="ecaron" unicode="&#x11b;" horiz-adv-x="599" 
d="M384 566h-157l-99 143h122l56 -73l55 73h122zM570 254q0 -25 -3 -46h-395q14 -48 52.5 -76.5t93.5 -28.5q44 0 81 18t59 45l87 -76q-86 -102 -231 -102q-121 0 -202 77t-81 192q0 113 77.5 189t193.5 76q115 0 191.5 -76.5t76.5 -191.5zM301 408q-48 0 -83 -28.5
t-47 -76.5h260q-12 48 -47.5 76.5t-82.5 28.5z" />
    <glyph glyph-name="Gcircumflex" unicode="&#x11c;" horiz-adv-x="776" 
d="M399 819l-56 -73h-122l99 143h157l99 -143h-122zM414 388h332v-48q0 -152 -99.5 -252t-250.5 -100q-154 0 -257.5 102.5t-103.5 254.5t104.5 254.5t259.5 102.5q90 0 166 -36t122 -99l-104 -83q-67 86 -181 86q-96 0 -160.5 -64t-64.5 -161t64 -161t160 -64q74 0 129 40
t71 105h-187v123z" />
    <glyph glyph-name="gcircumflex" unicode="&#x11d;" horiz-adv-x="564" 
d="M386 0q76 0 126.5 -40t63.5 -110l-134 -36q-3 28 -25 44.5t-56 16.5h-167q-71 0 -114.5 37.5t-43.5 98.5q0 39 18.5 73.5t50.5 54.5q-68 63 -68 159t68 160t171 64q58 0 111 -24q12 44 50 68h-103l-55 73l-56 -73h-122l99 143h157l94 -136q30 14 67 14h42v-120h-36
q-20 0 -34 -10t-18 -27q44 -57 44 -132q0 -96 -69 -160t-171 -64q-42 0 -84 13q-26 -16 -26 -44q0 -19 15 -31t39 -12h166zM276 399q-46 0 -76 -28.5t-30 -72.5t30 -72.5t76 -28.5q45 0 75.5 29t30.5 72t-30.5 72t-75.5 29z" />
    <glyph glyph-name="Gbreve" unicode="&#x11e;" horiz-adv-x="776" 
d="M399 736q-67 0 -112.5 43t-45.5 108h101q0 -25 16 -41.5t41 -16.5q24 0 40.5 16.5t16.5 41.5h100q0 -65 -45 -108t-112 -43zM414 388h332v-48q0 -152 -99.5 -252t-250.5 -100q-154 0 -257.5 102.5t-103.5 254.5t104.5 254.5t259.5 102.5q90 0 166 -36t122 -99l-104 -83
q-67 86 -181 86q-96 0 -160.5 -64t-64.5 -161t64 -161t160 -64q74 0 129 40t71 105h-187v123z" />
    <glyph glyph-name="gbreve" unicode="&#x11f;" horiz-adv-x="564" 
d="M279 556q-67 0 -112.5 43t-45.5 108h101q0 -25 16 -41.5t41 -16.5q24 0 40.5 16.5t16.5 41.5h100q0 -65 -45 -108t-112 -43zM386 0q76 0 126.5 -40t63.5 -110l-134 -36q-3 28 -25 44.5t-56 16.5h-167q-71 0 -114.5 37.5t-43.5 98.5q0 39 18.5 73.5t50.5 54.5
q-68 63 -68 159t68 160t171 64q58 0 111 -24q11 41 46 65t85 24h42v-120h-36q-20 0 -34 -10t-18 -27q44 -57 44 -132q0 -96 -69 -160t-171 -64q-42 0 -84 13q-26 -16 -26 -44q0 -19 15 -31t39 -12h166zM276 399q-46 0 -76 -28.5t-30 -72.5t30 -72.5t76 -28.5q45 0 75.5 29
t30.5 72t-30.5 72t-75.5 29z" />
    <glyph glyph-name="Gdotaccent" unicode="&#x120;" horiz-adv-x="776" 
d="M399 745q-33 0 -55 21.5t-22 54.5t22 55t55 22t55.5 -22t22.5 -55t-22.5 -54.5t-55.5 -21.5zM414 388h332v-48q0 -152 -99.5 -252t-250.5 -100q-154 0 -257.5 102.5t-103.5 254.5t104.5 254.5t259.5 102.5q90 0 166 -36t122 -99l-104 -83q-67 86 -181 86
q-96 0 -160.5 -64t-64.5 -161t64 -161t160 -64q74 0 129 40t71 105h-187v123z" />
    <glyph glyph-name="gdotaccent" unicode="&#x121;" horiz-adv-x="564" 
d="M278 565q-33 0 -55 21.5t-22 54.5t22 55t55 22t55.5 -22t22.5 -55t-22.5 -54.5t-55.5 -21.5zM386 0q76 0 126.5 -40t63.5 -110l-134 -36q-3 28 -25 44.5t-56 16.5h-167q-71 0 -114.5 37.5t-43.5 98.5q0 39 18.5 73.5t50.5 54.5q-68 63 -68 159t68 160t171 64
q58 0 111 -24q11 41 46 65t85 24h42v-120h-36q-20 0 -34 -10t-18 -27q44 -57 44 -132q0 -96 -69 -160t-171 -64q-42 0 -84 13q-26 -16 -26 -44q0 -19 15 -31t39 -12h166zM276 399q-46 0 -76 -28.5t-30 -72.5t30 -72.5t76 -28.5q45 0 75.5 29t30.5 72t-30.5 72t-75.5 29z" />
    <glyph glyph-name="uni0122" unicode="&#x122;" horiz-adv-x="776" 
d="M414 388h332v-48q0 -152 -99.5 -252t-250.5 -100q-154 0 -257.5 102.5t-103.5 254.5t104.5 254.5t259.5 102.5q90 0 166 -36t122 -99l-104 -83q-67 86 -181 86q-96 0 -160.5 -64t-64.5 -161t64 -161t160 -64q74 0 129 40t71 105h-187v123zM305 -225l41 170h134l-68 -170
h-107z" />
    <glyph glyph-name="uni0123" unicode="&#x123;" horiz-adv-x="564" 
d="M366 733l-41 -170h-134l68 170h107zM386 0q76 0 126.5 -40t63.5 -110l-134 -36q-3 28 -25 44.5t-56 16.5h-167q-71 0 -114.5 37.5t-43.5 98.5q0 39 18.5 73.5t50.5 54.5q-68 63 -68 159t68 160t171 64q58 0 111 -24q11 41 46 65t85 24h42v-120h-36q-20 0 -34 -10t-18 -27
q44 -57 44 -132q0 -96 -69 -160t-171 -64q-42 0 -84 13q-26 -16 -26 -44q0 -19 15 -31t39 -12h166zM276 399q-46 0 -76 -28.5t-30 -72.5t30 -72.5t76 -28.5q45 0 75.5 29t30.5 72t-30.5 72t-75.5 29z" />
    <glyph glyph-name="Hcircumflex" unicode="&#x124;" horiz-adv-x="722" 
d="M362 819l-56 -73h-122l99 143h157l99 -143h-122zM514 690h138v-690h-138v282h-306v-282h-138v690h138v-278h306v278z" />
    <glyph glyph-name="hcircumflex" unicode="&#x125;" horiz-adv-x="607" 
d="M127 833l-56 -73h-122l99 143h157l99 -143h-122zM354 522q90 0 144.5 -54t54.5 -144v-324h-130v282q0 52 -30.5 83t-80.5 31q-54 0 -87 -32t-33 -84v-280h-130v720h130v-270q61 72 162 72z" />
    <glyph glyph-name="Hbar" unicode="&#x126;" horiz-adv-x="722" 
d="M707 592v-95h-55v-497h-138v282h-306v-282h-138v497h-55v95h55v98h138v-98h306v98h138v-98h55zM514 412v85h-306v-85h306z" />
    <glyph glyph-name="hbar" unicode="&#x127;" horiz-adv-x="607" 
d="M354 522q90 0 144.5 -54t54.5 -144v-324h-130v282q0 52 -30.5 83t-80.5 31q-54 0 -87 -32t-33 -84v-280h-130v561h-63v93h63v66h130v-66h113v-93h-113v-111q61 72 162 72z" />
    <glyph glyph-name="Itilde" unicode="&#x128;" horiz-adv-x="278" 
d="M205 752q-32 0 -66.5 20.5t-48.5 20.5q-17 0 -27.5 -11t-10.5 -27h-92q0 62 30 102t84 40q31 0 65.5 -21.5t48.5 -21.5q16 0 27.5 11.5t11.5 28.5h91q0 -63 -29.5 -102.5t-83.5 -39.5zM70 0v690h138v-690h-138z" />
    <glyph glyph-name="itilde" unicode="&#x129;" horiz-adv-x="254" 
d="M192 572q-32 0 -66.5 20.5t-48.5 20.5q-17 0 -27.5 -11t-10.5 -27h-92q0 62 30 102t84 40q31 0 65.5 -21.5t48.5 -21.5q16 0 27.5 11.5t11.5 28.5h91q0 -63 -29.5 -102.5t-83.5 -39.5zM62 0v510h130v-510h-130z" />
    <glyph glyph-name="Imacron" unicode="&#x12a;" horiz-adv-x="278" 
d="M8 757v109h264v-109h-264zM70 0v690h138v-690h-138z" />
    <glyph glyph-name="imacron" unicode="&#x12b;" horiz-adv-x="254" 
d="M-5 577v109h264v-109h-264zM62 0v510h130v-510h-130z" />
    <glyph glyph-name="Ibreve" unicode="&#x12c;" horiz-adv-x="278" 
d="M140 736q-67 0 -112.5 43t-45.5 108h101q0 -25 16 -41.5t41 -16.5q24 0 40.5 16.5t16.5 41.5h100q0 -65 -45 -108t-112 -43zM70 0v690h138v-690h-138z" />
    <glyph glyph-name="ibreve" unicode="&#x12d;" horiz-adv-x="254" 
d="M127 556q-67 0 -112.5 43t-45.5 108h101q0 -25 16 -41.5t41 -16.5q24 0 40.5 16.5t16.5 41.5h100q0 -65 -45 -108t-112 -43zM62 0v510h130v-510h-130z" />
    <glyph glyph-name="Iogonek" unicode="&#x12e;" horiz-adv-x="278" 
d="M198 -131l29 -80q-42 -28 -98 -28q-57 0 -93.5 31t-36.5 79q0 41 28 75.5t73 53.5h-30v690h138v-690h-1q-105 -46 -105 -101q0 -21 14.5 -33t33.5 -12q23 0 48 15z" />
    <glyph glyph-name="iogonek" unicode="&#x12f;" horiz-adv-x="254" 
d="M127 565q-33 0 -55 21.5t-22 54.5t22 55t55 22t55.5 -22t22.5 -55t-22.5 -54.5t-55.5 -21.5zM182 -131l29 -80q-42 -28 -98 -28q-57 0 -93.5 31t-36.5 79q0 41 28 75.5t73 53.5h-22v510h130v-510h-1q-105 -46 -105 -101q0 -21 14.5 -33t33.5 -12q23 0 48 15z" />
    <glyph glyph-name="Idotaccent" unicode="&#x130;" horiz-adv-x="278" 
d="M139 745q-33 0 -55 21.5t-22 54.5t22 55t55 22t55.5 -22t22.5 -55t-22.5 -54.5t-55.5 -21.5zM70 0v690h138v-690h-138z" />
    <glyph glyph-name="dotlessi" unicode="&#x131;" horiz-adv-x="254" 
d="M62 0v510h130v-510h-130z" />
    <glyph glyph-name="IJ" unicode="&#x132;" horiz-adv-x="710" 
d="M70 0v690h138v-690h-138zM416 -12q-61 0 -112 22v132q47 -21 97 -21q54 0 84 27.5t30 77.5v464h138v-471q0 -108 -64.5 -169.5t-172.5 -61.5z" />
    <glyph glyph-name="ij" unicode="&#x133;" horiz-adv-x="513" 
d="M127 585q-35 0 -58.5 23.5t-23.5 57.5t23.5 57.5t58.5 23.5t58.5 -23.5t23.5 -57.5t-23.5 -57.5t-58.5 -23.5zM386 585q-35 0 -58.5 23.5t-23.5 57.5t23.5 57.5t58.5 23.5t58.5 -23.5t23.5 -57.5t-23.5 -57.5t-58.5 -23.5zM62 0v510h130v-510h-130zM291 -202
q-41 0 -70 12v117q20 -10 45 -10q55 0 55 54v539h130v-554q0 -73 -40.5 -115.5t-119.5 -42.5z" />
    <glyph glyph-name="Jcircumflex" unicode="&#x134;" horiz-adv-x="432" 
d="M306 819l-56 -73h-122l99 143h157l99 -143h-122zM237 226v464h138v-471q0 -108 -64.5 -169.5t-172.5 -61.5q-61 0 -112 22v132q47 -21 97 -21q54 0 84 27.5t30 77.5z" />
    <glyph glyph-name="jcircumflex" unicode="&#x135;" horiz-adv-x="259" 
d="M132 639l-56 -73h-122l99 143h157l99 -143h-122zM67 -29v539h130v-554q0 -73 -40.5 -115.5t-119.5 -42.5q-41 0 -70 12v117q20 -10 45 -10q55 0 55 54z" />
    <glyph glyph-name="uni0136" unicode="&#x136;" horiz-adv-x="666" 
d="M362 357l318 -357h-180l-228 258l-64 -70v-188h-138v690h138v-315l283 315h176zM251 -225l41 170h134l-68 -170h-107z" />
    <glyph glyph-name="uni0137" unicode="&#x137;" horiz-adv-x="548" 
d="M329 274l226 -274h-170l-148 176l-45 -49v-127h-130v720h130v-419l188 209h168zM193 -225l41 170h134l-68 -170h-107z" />
    <glyph glyph-name="Lacute" unicode="&#x139;" horiz-adv-x="533" 
d="M329 889l-128 -143h-137l101 143h164zM208 130h301v-130h-439v690h138v-560z" />
    <glyph glyph-name="lacute" unicode="&#x13a;" horiz-adv-x="254" 
d="M52 760l101 143h164l-128 -143h-137zM62 0v720h130v-720h-130z" />
    <glyph glyph-name="uni013B" unicode="&#x13b;" horiz-adv-x="533" 
d="M208 130h301v-130h-439v690h138v-560zM189 -225l41 170h134l-68 -170h-107z" />
    <glyph glyph-name="uni013C" unicode="&#x13c;" horiz-adv-x="254" 
d="M62 0v720h130v-720h-130zM33 -225l41 170h134l-68 -170h-107z" />
    <glyph glyph-name="Lcaron" unicode="&#x13d;" horiz-adv-x="533" 
d="M208 130h301v-130h-439v690h138v-560zM421 690l-41 -222h-98l21 222h118z" />
    <glyph glyph-name="lcaron" unicode="&#x13e;" horiz-adv-x="352" 
d="M62 0v720h130v-720h-130zM246 498l21 222h118l-41 -222h-98z" />
    <glyph glyph-name="Ldot" unicode="&#x13f;" horiz-adv-x="533" 
d="M208 130h301v-130h-439v690h138v-560zM354 278q-34 0 -57.5 23t-23.5 58t23.5 58t57.5 23t57 -23.5t23 -57.5t-23 -57.5t-57 -23.5z" />
    <glyph glyph-name="ldot" unicode="&#x140;" horiz-adv-x="423" 
d="M62 0v720h130v-720h-130zM320 279q-34 0 -57.5 23.5t-23.5 57.5t23.5 57.5t57.5 23.5t57.5 -23.5t23.5 -57.5t-23.5 -57.5t-57.5 -23.5z" />
    <glyph glyph-name="Lslash" unicode="&#x141;" horiz-adv-x="533" 
d="M208 130h301v-130h-439v234l-59 -34v126l59 34v330h138v-252l107 61v-126l-107 -61v-182z" />
    <glyph glyph-name="lslash" unicode="&#x142;" horiz-adv-x="324" 
d="M297 498v-119l-70 -41v-338h-130v263l-70 -41v119l70 41v338h130v-263z" />
    <glyph glyph-name="Nacute" unicode="&#x143;" horiz-adv-x="732" 
d="M559 889l-128 -143h-137l101 143h164zM524 690h138v-690h-140l-314 453v-453h-138v690h140l314 -453v453z" />
    <glyph glyph-name="nacute" unicode="&#x144;" horiz-adv-x="607" 
d="M498 709l-128 -143h-137l101 143h164zM354 522q90 0 144.5 -54t54.5 -144v-324h-130v282q0 52 -30.5 83t-81.5 31q-53 0 -86 -32t-33 -84v-280h-130v510h130v-57q61 69 162 69z" />
    <glyph glyph-name="uni0145" unicode="&#x145;" horiz-adv-x="732" 
d="M524 690h138v-690h-140l-314 453v-453h-138v690h140l314 -453v453zM272 -225l41 170h134l-68 -170h-107z" />
    <glyph glyph-name="uni0146" unicode="&#x146;" horiz-adv-x="607" 
d="M354 522q90 0 144.5 -54t54.5 -144v-324h-130v282q0 52 -30.5 83t-81.5 31q-53 0 -86 -32t-33 -84v-280h-130v510h130v-57q61 69 162 69zM214 -225l41 170h134l-68 -170h-107z" />
    <glyph glyph-name="Ncaron" unicode="&#x147;" horiz-adv-x="732" 
d="M448 746h-157l-99 143h122l56 -73l55 73h122zM524 690h138v-690h-140l-314 453v-453h-138v690h140l314 -453v453z" />
    <glyph glyph-name="ncaron" unicode="&#x148;" horiz-adv-x="607" 
d="M387 566h-157l-99 143h122l56 -73l55 73h122zM354 522q90 0 144.5 -54t54.5 -144v-324h-130v282q0 52 -30.5 83t-81.5 31q-53 0 -86 -32t-33 -84v-280h-130v510h130v-57q61 69 162 69z" />
    <glyph glyph-name="Eng" unicode="&#x14a;" horiz-adv-x="732" 
d="M524 690h138v-715q0 -181 -211 -181v126q73 0 73 59v21h-2l-314 453v-453h-138v690h140l314 -453v453z" />
    <glyph glyph-name="eng" unicode="&#x14b;" horiz-adv-x="607" 
d="M354 522q90 0 144.5 -54t54.5 -144v-349q0 -181 -199 -181v126q69 0 69 59v303q0 52 -30.5 83t-80.5 31q-54 0 -87 -32t-33 -84v-280h-130v510h130v-57q61 69 162 69z" />
    <glyph glyph-name="Omacron" unicode="&#x14c;" horiz-adv-x="798" 
d="M267 757v109h264v-109h-264zM399 -12q-155 0 -259.5 102.5t-104.5 254.5t104.5 254.5t259.5 102.5t259.5 -102.5t104.5 -254.5t-104.5 -254.5t-259.5 -102.5zM399 121q95 0 158.5 64t63.5 160t-63.5 160t-158.5 64t-158.5 -64t-63.5 -160t63.5 -160t158.5 -64z" />
    <glyph glyph-name="omacron" unicode="&#x14d;" horiz-adv-x="610" 
d="M173 577v109h264v-109h-264zM305 -12q-117 0 -195.5 76.5t-78.5 190.5t78.5 190.5t195.5 76.5t195.5 -76.5t78.5 -190.5t-78.5 -190.5t-195.5 -76.5zM305 114q60 0 100 40.5t40 100.5t-40 100.5t-100 40.5t-100 -40.5t-40 -100.5t40 -100.5t100 -40.5z" />
    <glyph glyph-name="Obreve" unicode="&#x14e;" horiz-adv-x="798" 
d="M399 736q-67 0 -112.5 43t-45.5 108h101q0 -25 16 -41.5t41 -16.5q24 0 40.5 16.5t16.5 41.5h100q0 -65 -45 -108t-112 -43zM399 -12q-155 0 -259.5 102.5t-104.5 254.5t104.5 254.5t259.5 102.5t259.5 -102.5t104.5 -254.5t-104.5 -254.5t-259.5 -102.5zM399 121
q95 0 158.5 64t63.5 160t-63.5 160t-158.5 64t-158.5 -64t-63.5 -160t63.5 -160t158.5 -64z" />
    <glyph glyph-name="obreve" unicode="&#x14f;" horiz-adv-x="610" 
d="M306 556q-67 0 -112.5 43t-45.5 108h101q0 -25 16 -41.5t41 -16.5q24 0 40.5 16.5t16.5 41.5h100q0 -65 -45 -108t-112 -43zM305 -12q-117 0 -195.5 76.5t-78.5 190.5t78.5 190.5t195.5 76.5t195.5 -76.5t78.5 -190.5t-78.5 -190.5t-195.5 -76.5zM305 114q60 0 100 40.5
t40 100.5t-40 100.5t-100 40.5t-100 -40.5t-40 -100.5t40 -100.5t100 -40.5z" />
    <glyph glyph-name="Ohungarumlaut" unicode="&#x150;" horiz-adv-x="798" 
d="M224 746l85 143h142l-102 -143h-125zM440 746l85 143h142l-102 -143h-125zM399 -12q-155 0 -259.5 102.5t-104.5 254.5t104.5 254.5t259.5 102.5t259.5 -102.5t104.5 -254.5t-104.5 -254.5t-259.5 -102.5zM399 121q95 0 158.5 64t63.5 160t-63.5 160t-158.5 64
t-158.5 -64t-63.5 -160t63.5 -160t158.5 -64z" />
    <glyph glyph-name="ohungarumlaut" unicode="&#x151;" horiz-adv-x="610" 
d="M131 566l85 143h142l-102 -143h-125zM347 566l85 143h142l-102 -143h-125zM305 -12q-117 0 -195.5 76.5t-78.5 190.5t78.5 190.5t195.5 76.5t195.5 -76.5t78.5 -190.5t-78.5 -190.5t-195.5 -76.5zM305 114q60 0 100 40.5t40 100.5t-40 100.5t-100 40.5t-100 -40.5
t-40 -100.5t40 -100.5t100 -40.5z" />
    <glyph glyph-name="OE" unicode="&#x152;" horiz-adv-x="910" 
d="M578 130h290v-130h-481q-151 0 -251.5 98.5t-100.5 246.5t100.5 246.5t251.5 98.5h476v-130h-285v-148h253v-130h-253v-152zM390 130h50v430h-50q-91 0 -152 -61.5t-61 -153.5t61 -153.5t152 -61.5z" />
    <glyph glyph-name="oe" unicode="&#x153;" horiz-adv-x="1013" 
d="M984 252q0 -30 -3 -41h-396q13 -50 52 -79t94 -29q87 0 136 62l90 -75q-84 -102 -220 -102q-70 0 -128 30t-95 83q-34 -53 -90 -83t-125 -30q-114 0 -191 76.5t-77 190.5t77 190.5t191 76.5q68 0 123.5 -29.5t89.5 -81.5q35 52 91 81.5t123 29.5q111 0 184.5 -76.5
t73.5 -193.5zM715 408q-47 0 -81.5 -28t-47.5 -74h259q-13 46 -48 74t-82 28zM306 114q59 0 99.5 40.5t40.5 100.5q0 61 -40 101t-100 40q-61 0 -101 -40t-40 -101q0 -60 40 -100.5t101 -40.5z" />
    <glyph glyph-name="Racute" unicode="&#x154;" horiz-adv-x="633" 
d="M506 889l-128 -143h-137l101 143h164zM449 0l-159 246h-82v-246h-138v690h294q100 0 167 -64.5t67 -161.5q0 -73 -42.5 -129t-112.5 -78l172 -257h-166zM208 560v-194h153q40 0 67.5 28t27.5 69t-27.5 69t-67.5 28h-153z" />
    <glyph glyph-name="racute" unicode="&#x155;" horiz-adv-x="375" 
d="M400 709l-128 -143h-137l101 143h164zM192 444q58 74 147 74h22v-134h-22q-69 0 -108 -38t-39 -104v-242h-130v510h130v-66z" />
    <glyph glyph-name="uni0156" unicode="&#x156;" horiz-adv-x="633" 
d="M443 257l172 -257h-166l-159 246h-82v-246h-138v690h294q100 0 167 -64.5t67 -161.5q0 -73 -42.5 -129t-112.5 -78zM208 560v-194h153q40 0 67.5 28t27.5 69t-27.5 69t-67.5 28h-153zM223 -225l41 170h134l-68 -170h-107z" />
    <glyph glyph-name="uni0157" unicode="&#x157;" horiz-adv-x="375" 
d="M339 518h22v-134h-22q-69 0 -108 -38t-39 -104v-242h-130v510h130v-66q58 74 147 74zM33 -225l41 170h134l-68 -170h-107z" />
    <glyph glyph-name="Rcaron" unicode="&#x158;" horiz-adv-x="633" 
d="M395 746h-157l-99 143h122l56 -73l55 73h122zM449 0l-159 246h-82v-246h-138v690h294q100 0 167 -64.5t67 -161.5q0 -73 -42.5 -129t-112.5 -78l172 -257h-166zM208 560v-194h153q40 0 67.5 28t27.5 69t-27.5 69t-67.5 28h-153z" />
    <glyph glyph-name="rcaron" unicode="&#x159;" horiz-adv-x="375" 
d="M289 566h-157l-99 143h122l56 -73l55 73h122zM192 444q58 74 147 74h22v-134h-22q-69 0 -108 -38t-39 -104v-242h-130v510h130v-66z" />
    <glyph glyph-name="Sacute" unicode="&#x15a;" horiz-adv-x="600" 
d="M232 746l101 143h164l-128 -143h-137zM310 -12q-79 0 -156.5 29.5t-130.5 78.5l71 105q43 -41 101 -65.5t115 -24.5q53 0 90 22.5t37 57.5q0 17 -9.5 30.5t-21.5 22t-36 17t-38 12.5t-44 11q-240 56 -240 215q0 92 72.5 147.5t189.5 55.5q151 0 239 -86l-64 -104
q-30 29 -78.5 48t-98.5 19q-52 0 -85 -21t-33 -53q0 -60 136 -90q27 -5 52 -12t64 -25t67 -40t49 -59t21 -82q0 -92 -77 -150.5t-192 -58.5z" />
    <glyph glyph-name="sacute" unicode="&#x15b;" horiz-adv-x="481" 
d="M167 566l101 143h164l-128 -143h-137zM238 -12q-124 0 -215 78l63 86q65 -57 149 -57q40 0 65 12.5t25 35.5t-24.5 35t-75.5 24q-32 7 -51 12.5t-48.5 18t-45.5 27.5t-28.5 41.5t-12.5 59.5q0 77 59 119t149 42q112 0 198 -67l-63 -87q-62 47 -132 47q-35 0 -57.5 -11.5
t-22.5 -32.5q0 -23 24 -34.5t76 -22.5q32 -7 51 -12.5t48.5 -18t45.5 -27.5t28.5 -41.5t12.5 -59.5q0 -78 -61.5 -122.5t-156.5 -44.5z" />
    <glyph glyph-name="Scircumflex" unicode="&#x15c;" horiz-adv-x="600" 
d="M308 819l-56 -73h-122l99 143h157l99 -143h-122zM326 415q27 -5 52 -12t64 -25t67 -40t49 -59t21 -82q0 -92 -77 -150.5t-192 -58.5q-79 0 -156.5 29.5t-130.5 78.5l71 105q43 -41 101 -65.5t115 -24.5q53 0 90 22.5t37 57.5q0 17 -9.5 30.5t-21.5 22t-36 17t-38 12.5
t-44 11q-240 56 -240 215q0 92 72.5 147.5t189.5 55.5q151 0 239 -86l-64 -104q-30 29 -78.5 48t-98.5 19q-52 0 -85 -21t-33 -53q0 -60 136 -90z" />
    <glyph glyph-name="scircumflex" unicode="&#x15d;" horiz-adv-x="481" 
d="M243 639l-56 -73h-122l99 143h157l99 -143h-122zM270 314q32 -7 51 -12.5t48.5 -18t45.5 -27.5t28.5 -41.5t12.5 -59.5q0 -78 -61.5 -122.5t-156.5 -44.5q-124 0 -215 78l63 86q65 -57 149 -57q40 0 65 12.5t25 35.5t-24.5 35t-75.5 24q-32 7 -51 12.5t-48.5 18
t-45.5 27.5t-28.5 41.5t-12.5 59.5q0 77 59 119t149 42q112 0 198 -67l-63 -87q-62 47 -132 47q-35 0 -57.5 -11.5t-22.5 -32.5q0 -23 24 -34.5t76 -22.5z" />
    <glyph glyph-name="Scedilla" unicode="&#x15e;" horiz-adv-x="600" 
d="M579 197q0 -83 -63.5 -139.5t-162.5 -67.5l-17 -20q40 -3 67 -33t27 -72q0 -47 -34 -78.5t-86 -31.5q-68 0 -113 51l45 54q29 -34 65 -34q19 0 32 11t13 28q0 16 -11.5 27.5t-28.5 11.5q-20 0 -31 -14l-72 33l54 68q-143 16 -240 105l71 105q43 -41 101 -65.5t115 -24.5
q53 0 90 22.5t37 57.5q0 17 -9.5 30.5t-21.5 22t-36 17t-38 12.5t-44 11q-240 56 -240 215q0 92 72.5 147.5t189.5 55.5q151 0 239 -86l-64 -104q-30 29 -78.5 48t-98.5 19q-52 0 -85 -21t-33 -53q0 -60 136 -90q27 -5 52 -12t64 -25t67 -40t49 -59t21 -82z" />
    <glyph glyph-name="scedilla" unicode="&#x15f;" horiz-adv-x="481" 
d="M456 155q0 -67 -46 -109.5t-122 -54.5l-18 -21q40 -3 67 -33t27 -72q0 -47 -34 -78.5t-86 -31.5q-68 0 -113 51l45 54q29 -34 65 -34q19 0 32 11t13 28q0 16 -11.5 27.5t-28.5 11.5q-21 0 -31 -14l-72 33l54 67q-99 12 -174 76l63 86q65 -57 149 -57q40 0 65 12.5
t25 35.5t-24.5 35t-75.5 24q-32 7 -51 12.5t-48.5 18t-45.5 27.5t-28.5 41.5t-12.5 59.5q0 77 59 119t149 42q112 0 198 -67l-63 -87q-62 47 -132 47q-35 0 -57.5 -11.5t-22.5 -32.5q0 -23 24 -34.5t76 -22.5q32 -7 51 -12.5t48.5 -18t45.5 -27.5t28.5 -41.5t12.5 -59.5z
" />
    <glyph glyph-name="Scaron" unicode="&#x160;" horiz-adv-x="600" 
d="M386 746h-157l-99 143h122l56 -73l55 73h122zM326 415q27 -5 52 -12t64 -25t67 -40t49 -59t21 -82q0 -92 -77 -150.5t-192 -58.5q-79 0 -156.5 29.5t-130.5 78.5l71 105q43 -41 101 -65.5t115 -24.5q53 0 90 22.5t37 57.5q0 17 -9.5 30.5t-21.5 22t-36 17t-38 12.5
t-44 11q-240 56 -240 215q0 92 72.5 147.5t189.5 55.5q151 0 239 -86l-64 -104q-30 29 -78.5 48t-98.5 19q-52 0 -85 -21t-33 -53q0 -60 136 -90z" />
    <glyph glyph-name="scaron" unicode="&#x161;" horiz-adv-x="481" 
d="M321 566h-157l-99 143h122l56 -73l55 73h122zM270 314q32 -7 51 -12.5t48.5 -18t45.5 -27.5t28.5 -41.5t12.5 -59.5q0 -78 -61.5 -122.5t-156.5 -44.5q-124 0 -215 78l63 86q65 -57 149 -57q40 0 65 12.5t25 35.5t-24.5 35t-75.5 24q-32 7 -51 12.5t-48.5 18t-45.5 27.5
t-28.5 41.5t-12.5 59.5q0 77 59 119t149 42q112 0 198 -67l-63 -87q-62 47 -132 47q-35 0 -57.5 -11.5t-22.5 -32.5q0 -23 24 -34.5t76 -22.5z" />
    <glyph glyph-name="uni0162" unicode="&#x162;" horiz-adv-x="589" 
d="M364 0h-23l-24 -29q40 -3 67 -33t27 -72q0 -47 -34 -78.5t-86 -31.5q-68 0 -113 51l45 54q29 -34 65 -34q19 0 32 11t13 28q0 16 -11.5 27.5t-28.5 11.5q-21 0 -31 -14l-72 33l61 76h-25v560h-200v130h537v-130h-199v-560z" />
    <glyph glyph-name="uni0163" unicode="&#x163;" horiz-adv-x="410" 
d="M285 -29q40 -3 67 -33t27 -72q0 -47 -34 -78.5t-86 -31.5q-68 0 -113 51l45 54q29 -34 65 -34q19 0 32 11t13 28q0 16 -11.5 27.5t-28.5 11.5q-21 0 -31 -14l-72 33l58 72q-107 33 -107 162v233h-81v119h81v129h130v-129h137v-119h-137v-212q0 -65 70 -65q31 0 67 17
v-121q-35 -18 -77 -21z" />
    <glyph glyph-name="Tcaron" unicode="&#x164;" horiz-adv-x="589" 
d="M374 746h-157l-99 143h122l56 -73l55 73h122zM563 690v-130h-199v-560h-138v560h-200v130h537z" />
    <glyph glyph-name="tcaron" unicode="&#x165;" horiz-adv-x="410" 
d="M306 784h118l-41 -222h-98zM239 639v-129h137v-119h-137v-212q0 -65 70 -65q31 0 67 17v-121q-41 -22 -95 -22q-85 0 -128.5 45.5t-43.5 124.5v233h-81v119h81v129h130z" />
    <glyph glyph-name="Tbar" unicode="&#x166;" horiz-adv-x="589" 
d="M563 560h-199v-197h84v-93h-84v-270h-138v270h-84v93h84v197h-200v130h537v-130z" />
    <glyph glyph-name="tbar" unicode="&#x167;" horiz-adv-x="410" 
d="M376 391h-137v-81h108v-93h-108v-38q0 -65 70 -65q31 0 67 17v-121q-41 -22 -95 -22q-85 0 -128.5 45.5t-43.5 124.5v59h-68v93h68v81h-81v119h81v129h130v-129h137v-119z" />
    <glyph glyph-name="Utilde" unicode="&#x168;" horiz-adv-x="686" 
d="M408 752q-32 0 -66.5 20.5t-48.5 20.5q-17 0 -27.5 -11t-10.5 -27h-92q0 62 30 102t84 40q31 0 65.5 -21.5t48.5 -21.5q16 0 27.5 11.5t11.5 28.5h91q0 -63 -29.5 -102.5t-83.5 -39.5zM343 -12q-122 0 -204 80t-82 199v423h138v-421q0 -63 42 -105.5t106 -42.5t106 42.5
t42 105.5v421h138v-423q0 -119 -82 -199t-204 -80z" />
    <glyph glyph-name="utilde" unicode="&#x169;" horiz-adv-x="584" 
d="M357 572q-32 0 -66.5 20.5t-48.5 20.5q-17 0 -27.5 -11t-10.5 -27h-92q0 62 30 102t84 40q31 0 65.5 -21.5t48.5 -21.5q16 0 27.5 11.5t11.5 28.5h91q0 -63 -29.5 -102.5t-83.5 -39.5zM292 -12q-108 0 -173 58.5t-65 156.5v307h130v-289q0 -49 29.5 -78t78.5 -29t78.5 29
t29.5 78v289h130v-307q0 -97 -65.5 -156t-172.5 -59z" />
    <glyph glyph-name="Umacron" unicode="&#x16a;" horiz-adv-x="686" 
d="M211 757v109h264v-109h-264zM343 -12q-122 0 -204 80t-82 199v423h138v-421q0 -63 42 -105.5t106 -42.5t106 42.5t42 105.5v421h138v-423q0 -119 -82 -199t-204 -80z" />
    <glyph glyph-name="umacron" unicode="&#x16b;" horiz-adv-x="584" 
d="M160 577v109h264v-109h-264zM292 -12q-108 0 -173 58.5t-65 156.5v307h130v-289q0 -49 29.5 -78t78.5 -29t78.5 29t29.5 78v289h130v-307q0 -97 -65.5 -156t-172.5 -59z" />
    <glyph glyph-name="Ubreve" unicode="&#x16c;" horiz-adv-x="686" 
d="M343 736q-67 0 -112.5 43t-45.5 108h101q0 -25 16 -41.5t41 -16.5q24 0 40.5 16.5t16.5 41.5h100q0 -65 -45 -108t-112 -43zM343 -12q-122 0 -204 80t-82 199v423h138v-421q0 -63 42 -105.5t106 -42.5t106 42.5t42 105.5v421h138v-423q0 -119 -82 -199t-204 -80z" />
    <glyph glyph-name="ubreve" unicode="&#x16d;" horiz-adv-x="584" 
d="M292 556q-67 0 -112.5 43t-45.5 108h101q0 -25 16 -41.5t41 -16.5q24 0 40.5 16.5t16.5 41.5h100q0 -65 -45 -108t-112 -43zM292 -12q-108 0 -173 58.5t-65 156.5v307h130v-289q0 -49 29.5 -78t78.5 -29t78.5 29t29.5 78v289h130v-307q0 -97 -65.5 -156t-172.5 -59z" />
    <glyph glyph-name="Uring" unicode="&#x16e;" horiz-adv-x="686" 
d="M343 734q-44 0 -73.5 28.5t-29.5 71.5t29.5 71.5t73.5 28.5t73 -28.5t29 -71.5t-29 -71.5t-73 -28.5zM343 799q14 0 24 10t10 25t-10 25t-24 10q-15 0 -24.5 -10t-9.5 -25t9.5 -25t24.5 -10zM343 -12q-122 0 -204 80t-82 199v423h138v-421q0 -63 42 -105.5t106 -42.5
t106 42.5t42 105.5v421h138v-423q0 -119 -82 -199t-204 -80z" />
    <glyph glyph-name="uring" unicode="&#x16f;" horiz-adv-x="584" 
d="M292 554q-44 0 -73.5 28.5t-29.5 71.5t29.5 71.5t73.5 28.5t73 -28.5t29 -71.5t-29 -71.5t-73 -28.5zM292 619q14 0 24 10t10 25t-10 25t-24 10q-15 0 -24.5 -10t-9.5 -25t9.5 -25t24.5 -10zM292 -12q-108 0 -173 58.5t-65 156.5v307h130v-289q0 -49 29.5 -78t78.5 -29
t78.5 29t29.5 78v289h130v-307q0 -97 -65.5 -156t-172.5 -59z" />
    <glyph glyph-name="Uhungarumlaut" unicode="&#x170;" horiz-adv-x="686" 
d="M168 746l85 143h142l-102 -143h-125zM384 746l85 143h142l-102 -143h-125zM343 -12q-122 0 -204 80t-82 199v423h138v-421q0 -63 42 -105.5t106 -42.5t106 42.5t42 105.5v421h138v-423q0 -119 -82 -199t-204 -80z" />
    <glyph glyph-name="uhungarumlaut" unicode="&#x171;" horiz-adv-x="584" 
d="M117 566l85 143h142l-102 -143h-125zM333 566l85 143h142l-102 -143h-125zM292 -12q-108 0 -173 58.5t-65 156.5v307h130v-289q0 -49 29.5 -78t78.5 -29t78.5 29t29.5 78v289h130v-307q0 -97 -65.5 -156t-172.5 -59z" />
    <glyph glyph-name="Uogonek" unicode="&#x172;" horiz-adv-x="686" 
d="M491 690h138v-423q0 -93 -53 -165t-139 -100q-80 -41 -80 -89q0 -21 14.5 -33t33.5 -12q23 0 48 15l29 -80q-42 -28 -98 -28q-57 0 -93.5 31t-36.5 79q0 61 58 104q-111 11 -183 89t-72 189v423h138v-421q0 -63 42 -105.5t106 -42.5t106 42.5t42 105.5v421z" />
    <glyph glyph-name="uogonek" unicode="&#x173;" horiz-adv-x="584" 
d="M400 510h130v-307q0 -78 -42.5 -132t-117.5 -74q-71 -39 -71 -84q0 -21 14.5 -33t33.5 -12q23 0 48 15l29 -80q-42 -28 -98 -28q-57 0 -93.5 31t-36.5 79q0 61 59 105q-92 10 -146.5 67.5t-54.5 145.5v307h130v-289q0 -49 29.5 -78t78.5 -29t78.5 29t29.5 78v289z" />
    <glyph glyph-name="Wcircumflex" unicode="&#x174;" horiz-adv-x="1009" 
d="M505 819l-56 -73h-122l99 143h157l99 -143h-122zM852 690h142l-215 -690h-138l-136 479l-137 -479h-137l-216 690h146l142 -502l143 502h121l143 -502z" />
    <glyph glyph-name="wcircumflex" unicode="&#x175;" horiz-adv-x="862" 
d="M431 639l-56 -73h-122l99 143h157l99 -143h-122zM712 510h142l-181 -510h-134l-108 352l-108 -352h-134l-181 510h145l106 -344l107 344h133l108 -344z" />
    <glyph glyph-name="Ycircumflex" unicode="&#x176;" horiz-adv-x="674" 
d="M338 819l-56 -73h-122l99 143h157l99 -143h-122zM521 690h154l-269 -448v-242h-138v242l-269 448h158l182 -308z" />
    <glyph glyph-name="ycircumflex" unicode="&#x177;" horiz-adv-x="568" 
d="M284 639l-56 -73h-122l99 143h157l99 -143h-122zM418 510h145l-252 -599q-21 -52 -63 -82.5t-92 -30.5q-35 0 -72 14t-62 37l50 102q25 -27 62 -27q40 0 58 40l21 44l-208 502h148l133 -347z" />
    <glyph glyph-name="Ydieresis" unicode="&#x178;" horiz-adv-x="674" 
d="M230 745q-32 0 -53 21t-21 52t21.5 52t52.5 21t52.5 -21t21.5 -52t-21 -52t-53 -21zM446 745q-32 0 -53 21t-21 52t21.5 52t52.5 21t52 -21t21 -52t-21 -52t-52 -21zM521 690h154l-269 -448v-242h-138v242l-269 448h158l182 -308z" />
    <glyph glyph-name="Zacute" unicode="&#x179;" horiz-adv-x="614" 
d="M496 889l-128 -143h-137l101 143h164zM225 130h353v-130h-542v99l346 461h-342v130h531v-99z" />
    <glyph glyph-name="zacute" unicode="&#x17a;" horiz-adv-x="497" 
d="M438 709l-128 -143h-137l101 143h164zM220 126h239v-126h-421v95l232 289h-228v126h410v-95z" />
    <glyph glyph-name="Zdotaccent" unicode="&#x17b;" horiz-adv-x="614" 
d="M306 745q-33 0 -55 21.5t-22 54.5t22 55t55 22t55.5 -22t22.5 -55t-22.5 -54.5t-55.5 -21.5zM225 130h353v-130h-542v99l346 461h-342v130h531v-99z" />
    <glyph glyph-name="zdotaccent" unicode="&#x17c;" horiz-adv-x="497" 
d="M248 565q-33 0 -55 21.5t-22 54.5t22 55t55 22t55.5 -22t22.5 -55t-22.5 -54.5t-55.5 -21.5zM220 126h239v-126h-421v95l232 289h-228v126h410v-95z" />
    <glyph glyph-name="Zcaron" unicode="&#x17d;" horiz-adv-x="614" 
d="M384 746h-157l-99 143h122l56 -73l55 73h122zM225 130h353v-130h-542v99l346 461h-342v130h531v-99z" />
    <glyph glyph-name="zcaron" unicode="&#x17e;" horiz-adv-x="497" 
d="M327 566h-157l-99 143h122l56 -73l55 73h122zM220 126h239v-126h-421v95l232 289h-228v126h410v-95z" />
    <glyph glyph-name="florin" unicode="&#x192;" horiz-adv-x="500" 
d="M477 557q-61 0 -92 -21.5t-39 -68.5l-11 -61h96v-118h-116l-52 -298q-16 -93 -79 -136.5t-187 -43.5v133q61 0 92 21.5t39 68.5l44 255h-89v118h109l18 104q17 93 80.5 136.5t186.5 43.5v-133z" />
    <glyph glyph-name="uni01C4" unicode="&#x1c4;" horiz-adv-x="1307" 
d="M1077 746h-156l-100 143h123l55 -73l55 73h123zM340 690q151 0 251.5 -98.5t100.5 -246.5t-100.5 -246.5t-251.5 -98.5h-270v690h270zM918 130h353v-130h-542v99l346 461h-342v130h531v-99zM337 130q91 0 152 61.5t61 153.5t-61 153.5t-152 61.5h-129v-430h129z" />
    <glyph glyph-name="uni01C5" unicode="&#x1c5;" horiz-adv-x="1224" 
d="M1054 566h-157l-99 143h122l56 -73l55 73h122zM340 690q151 0 251.5 -98.5t100.5 -246.5t-100.5 -246.5t-251.5 -98.5h-270v690h270zM337 130q91 0 152 61.5t61 153.5t-61 153.5t-152 61.5h-129v-430h129zM947 126h239v-126h-421v95l232 289h-228v126h410v-95z" />
    <glyph glyph-name="uni01C6" unicode="&#x1c6;" horiz-adv-x="1137" 
d="M448 449v271h130v-720h-130v61q-67 -73 -166 -73q-106 0 -177.5 76.5t-71.5 190.5t71.5 190.5t177.5 76.5q99 0 166 -73zM967 566h-157l-99 143h122l56 -73l55 73h122zM860 126h239v-126h-421v95l232 289h-228v126h410v-95zM307 114q61 0 101 40.5t40 100.5t-40 100.5
t-101 40.5q-60 0 -100 -40.5t-40 -100.5t40 -100.5t100 -40.5z" />
    <glyph glyph-name="uni01C7" unicode="&#x1c7;" horiz-adv-x="969" 
d="M208 690v-560h301v-130h-439v690h138zM775 690h138v-471q0 -108 -64.5 -169.5t-172.5 -61.5q-61 0 -112 22v132q47 -21 97 -21q54 0 84 27.5t30 77.5v464z" />
    <glyph glyph-name="uni01C8" unicode="&#x1c8;" horiz-adv-x="799" 
d="M672 585q-35 0 -58.5 23.5t-23.5 57.5t23.5 57.5t58.5 23.5t58.5 -23.5t23.5 -57.5t-23.5 -57.5t-58.5 -23.5zM509 130v-130h-439v690h138v-560h301zM607 -29v539h130v-554q0 -73 -40.5 -115.5t-119.5 -42.5q-41 0 -70 12v117q20 -10 45 -10q55 0 55 54z" />
    <glyph glyph-name="uni01C9" unicode="&#x1c9;" horiz-adv-x="513" 
d="M386 585q-35 0 -58.5 23.5t-23.5 57.5t23.5 57.5t58.5 23.5t58.5 -23.5t23.5 -57.5t-23.5 -57.5t-58.5 -23.5zM62 0v720h130v-720h-130zM291 -202q-41 0 -70 12v117q20 -10 45 -10q55 0 55 54v539h130v-554q0 -73 -40.5 -115.5t-119.5 -42.5z" />
    <glyph glyph-name="uni01CA" unicode="&#x1ca;" horiz-adv-x="1164" 
d="M524 237v453h138v-690h-140l-314 453v-453h-138v690h140zM969 690h138v-471q0 -108 -64.5 -169.5t-172.5 -61.5q-61 0 -112 22v132q47 -21 97 -21q54 0 84 27.5t30 77.5v464z" />
    <glyph glyph-name="uni01CB" unicode="&#x1cb;" horiz-adv-x="991" 
d="M864 585q-35 0 -58.5 23.5t-23.5 57.5t23.5 57.5t58.5 23.5t58.5 -23.5t23.5 -57.5t-23.5 -57.5t-58.5 -23.5zM524 237v453h138v-690h-140l-314 453v-453h-138v690h140zM799 -29v539h130v-554q0 -73 -40.5 -115.5t-119.5 -42.5q-41 0 -70 12v117q20 -10 45 -10
q55 0 55 54z" />
    <glyph glyph-name="uni01CC" unicode="&#x1cc;" horiz-adv-x="866" 
d="M739 585q-35 0 -58.5 23.5t-23.5 57.5t23.5 57.5t58.5 23.5t58.5 -23.5t23.5 -57.5t-23.5 -57.5t-58.5 -23.5zM354 522q90 0 144.5 -54t54.5 -144v-324h-130v282q0 52 -30.5 83t-81.5 31q-53 0 -86 -32t-33 -84v-280h-130v510h130v-57q61 69 162 69zM674 -29v539h130
v-554q0 -73 -40.5 -115.5t-119.5 -42.5q-42 0 -70 12v117q20 -10 45 -10q55 0 55 54z" />
    <glyph glyph-name="uni01CD" unicode="&#x1cd;" horiz-adv-x="716" 
d="M436 746h-157l-99 143h122l56 -73l55 73h122zM554 0l-49 134h-296l-49 -134h-149l266 690h163l265 -690h-151zM255 261h203l-101 277z" />
    <glyph glyph-name="uni01CE" unicode="&#x1ce;" 
d="M402 566h-157l-99 143h122l56 -73l55 73h122zM448 510h130v-510h-130v61q-67 -73 -166 -73q-106 0 -177.5 76.5t-71.5 190.5t71.5 190.5t177.5 76.5q99 0 166 -73v61zM307 114q61 0 101 40.5t40 100.5t-40 100.5t-101 40.5q-60 0 -100 -40.5t-40 -100.5t40 -100.5
t100 -40.5z" />
    <glyph glyph-name="Gcaron" unicode="&#x1e6;" horiz-adv-x="776" 
d="M477 746h-157l-99 143h122l56 -73l55 73h122zM414 388h332v-48q0 -152 -99.5 -252t-250.5 -100q-154 0 -257.5 102.5t-103.5 254.5t104.5 254.5t259.5 102.5q90 0 166 -36t122 -99l-104 -83q-67 86 -181 86q-96 0 -160.5 -64t-64.5 -161t64 -161t160 -64q74 0 129 40
t71 105h-187v123z" />
    <glyph glyph-name="gcaron" unicode="&#x1e7;" horiz-adv-x="564" 
d="M357 566h-157l-99 143h122l56 -73l55 73h122zM386 0q76 0 126.5 -40t63.5 -110l-134 -36q-3 28 -25 44.5t-56 16.5h-167q-71 0 -114.5 37.5t-43.5 98.5q0 39 18.5 73.5t50.5 54.5q-68 63 -68 159t68 160t171 64q58 0 111 -24q11 41 46 65t85 24h42v-120h-36
q-20 0 -34 -10t-18 -27q44 -57 44 -132q0 -96 -69 -160t-171 -64q-42 0 -84 13q-26 -16 -26 -44q0 -19 15 -31t39 -12h166zM276 399q-46 0 -76 -28.5t-30 -72.5t30 -72.5t76 -28.5q45 0 75.5 29t30.5 72t-30.5 72t-75.5 29z" />
    <glyph glyph-name="uni01EA" unicode="&#x1ea;" horiz-adv-x="798" 
d="M518 6q-88 -43 -88 -93q0 -21 14.5 -33t33.5 -12q23 0 48 15l29 -80q-42 -28 -98 -28q-57 0 -93.5 31t-36.5 79q0 61 57 103q-150 6 -249.5 107.5t-99.5 249.5q0 152 104.5 254.5t259.5 102.5t259.5 -102.5t104.5 -254.5q0 -120 -67.5 -212t-177.5 -127zM177 345
q0 -96 63.5 -160t158.5 -64t158.5 64t63.5 160t-63.5 160t-158.5 64t-158.5 -64t-63.5 -160z" />
    <glyph glyph-name="uni01EB" unicode="&#x1eb;" horiz-adv-x="610" 
d="M398 3q-81 -42 -81 -90q0 -21 14.5 -33t33.5 -12q23 0 48 15l29 -80q-42 -28 -98 -28q-57 0 -93.5 31t-36.5 79q0 60 58 105q-105 11 -173 85.5t-68 179.5q0 114 78.5 190.5t195.5 76.5t195.5 -76.5t78.5 -190.5q0 -89 -50 -157t-131 -95zM165 255q0 -60 40 -100.5
t100 -40.5t100 40.5t40 100.5t-40 100.5t-100 40.5t-100 -40.5t-40 -100.5z" />
    <glyph glyph-name="uni01F1" unicode="&#x1f1;" horiz-adv-x="1307" 
d="M340 690q151 0 251.5 -98.5t100.5 -246.5t-100.5 -246.5t-251.5 -98.5h-270v690h270zM918 130h353v-130h-542v99l346 461h-342v130h531v-99zM337 130q91 0 152 61.5t61 153.5t-61 153.5t-152 61.5h-129v-430h129z" />
    <glyph glyph-name="uni01F2" unicode="&#x1f2;" horiz-adv-x="1224" 
d="M340 690q151 0 251.5 -98.5t100.5 -246.5t-100.5 -246.5t-251.5 -98.5h-270v690h270zM337 130q91 0 152 61.5t61 153.5t-61 153.5t-152 61.5h-129v-430h129zM947 126h239v-126h-421v95l232 289h-228v126h410v-95z" />
    <glyph glyph-name="uni01F3" unicode="&#x1f3;" horiz-adv-x="1137" 
d="M448 449v271h130v-720h-130v61q-67 -73 -166 -73q-106 0 -177.5 76.5t-71.5 190.5t71.5 190.5t177.5 76.5q99 0 166 -73zM860 126h239v-126h-421v95l232 289h-228v126h410v-95zM307 114q61 0 101 40.5t40 100.5t-40 100.5t-101 40.5q-60 0 -100 -40.5t-40 -100.5
t40 -100.5t100 -40.5z" />
    <glyph glyph-name="uni01F4" unicode="&#x1f4;" horiz-adv-x="776" 
d="M589 889l-128 -143h-137l101 143h164zM414 388h332v-48q0 -152 -99.5 -252t-250.5 -100q-154 0 -257.5 102.5t-103.5 254.5t104.5 254.5t259.5 102.5q90 0 166 -36t122 -99l-104 -83q-67 86 -181 86q-96 0 -160.5 -64t-64.5 -161t64 -161t160 -64q74 0 129 40t71 105
h-187v123z" />
    <glyph glyph-name="uni01F5" unicode="&#x1f5;" horiz-adv-x="564" 
d="M468 709l-128 -143h-137l101 143h164zM386 0q76 0 126.5 -40t63.5 -110l-134 -36q-3 28 -25 44.5t-56 16.5h-167q-71 0 -114.5 37.5t-43.5 98.5q0 39 18.5 73.5t50.5 54.5q-68 63 -68 159t68 160t171 64q58 0 111 -24q11 41 46 65t85 24h42v-120h-36q-20 0 -34 -10
t-18 -27q44 -57 44 -132q0 -96 -69 -160t-171 -64q-42 0 -84 13q-26 -16 -26 -44q0 -19 15 -31t39 -12h166zM276 399q-46 0 -76 -28.5t-30 -72.5t30 -72.5t76 -28.5q45 0 75.5 29t30.5 72t-30.5 72t-75.5 29z" />
    <glyph glyph-name="AEacute" unicode="&#x1fc;" horiz-adv-x="910" 
d="M711 889l-128 -143h-137l101 143h164zM578 130h290v-130h-428v131h-239l-76 -131h-157l402 690h493v-130h-285v-148h253v-130h-253v-152zM274 258h166v287z" />
    <glyph glyph-name="aeacute" unicode="&#x1fd;" horiz-adv-x="923" 
d="M648 709l-128 -143h-137l101 143h164zM894 252q0 -24 -3 -41h-396q13 -50 52 -79t94 -29q43 0 79 17.5t57 44.5l90 -75q-87 -102 -229 -102q-124 0 -203 84q-32 -38 -86 -61t-120 -23q-92 0 -148.5 45.5t-56.5 115.5q0 68 54.5 112.5t136.5 44.5h148v14q0 41 -32 66
t-85 25q-72 0 -114 -50l-76 74q64 87 196 87q119 0 187 -76q74 76 187 76q115 0 191.5 -76.5t76.5 -193.5zM625 408q-47 0 -81.5 -28t-47.5 -74h259q-13 46 -48 74t-82 28zM248 93q80 0 136 56q-13 32 -17 62h-130q-35 0 -57 -16.5t-22 -40.5q0 -26 25 -43.5t65 -17.5z" />
    <glyph glyph-name="Oslashacute" unicode="&#x1fe;" horiz-adv-x="798" 
d="M607 889l-128 -143h-137l101 143h164zM667 591q96 -102 96 -246q0 -152 -104.5 -254.5t-259.5 -102.5q-112 0 -202 57l-38 -45h-115l86 100q-95 101 -95 245q0 152 104.5 254.5t259.5 102.5q112 0 201 -56l38 44h115zM177 345q0 -79 45 -138l288 334q-51 28 -111 28
q-95 0 -158.5 -64t-63.5 -160zM399 121q95 0 158.5 64t63.5 160q0 78 -45 139l-288 -335q50 -28 111 -28z" />
    <glyph glyph-name="oslashacute" unicode="&#x1ff;" horiz-adv-x="610" 
d="M505 709l-128 -143h-137l101 143h164zM511 435q68 -74 68 -180q0 -114 -78.5 -190.5t-195.5 -76.5q-85 0 -153 43l-27 -31h-93l67 75q-68 74 -68 180q0 114 78.5 190.5t195.5 76.5q85 0 153 -43l27 31h93zM165 255q0 -45 23 -79l182 205q-29 15 -65 15q-60 0 -100 -40.5
t-40 -100.5zM305 114q60 0 100 40.5t40 100.5q0 45 -23 80l-182 -206q29 -15 65 -15z" />
    <glyph glyph-name="uni0200" unicode="&#x200;" horiz-adv-x="716" 
d="M316 746h-126l-101 143h142zM532 746h-126l-101 143h142zM554 0l-49 134h-296l-49 -134h-149l266 690h163l265 -690h-151zM255 261h203l-101 277z" />
    <glyph glyph-name="uni0201" unicode="&#x201;" 
d="M282 566h-126l-101 143h142zM498 566h-126l-101 143h142zM448 510h130v-510h-130v61q-67 -73 -166 -73q-106 0 -177.5 76.5t-71.5 190.5t71.5 190.5t177.5 76.5q99 0 166 -73v61zM307 114q61 0 101 40.5t40 100.5t-40 100.5t-101 40.5q-60 0 -100 -40.5t-40 -100.5
t40 -100.5t100 -40.5z" />
    <glyph glyph-name="uni0202" unicode="&#x202;" horiz-adv-x="716" 
d="M358 801q-25 0 -41 -16.5t-16 -41.5h-101q0 65 45.5 108t112.5 43t112 -43t45 -108h-100q0 25 -16.5 41.5t-40.5 16.5zM554 0l-49 134h-296l-49 -134h-149l266 690h163l265 -690h-151zM255 261h203l-101 277z" />
    <glyph glyph-name="uni0203" unicode="&#x203;" 
d="M324 621q-25 0 -41 -16.5t-16 -41.5h-101q0 65 45.5 108t112.5 43t112 -43t45 -108h-100q0 25 -16.5 41.5t-40.5 16.5zM448 510h130v-510h-130v61q-67 -73 -166 -73q-106 0 -177.5 76.5t-71.5 190.5t71.5 190.5t177.5 76.5q99 0 166 -73v61zM307 114q61 0 101 40.5
t40 100.5t-40 100.5t-101 40.5q-60 0 -100 -40.5t-40 -100.5t40 -100.5t100 -40.5z" />
    <glyph glyph-name="uni0204" unicode="&#x204;" horiz-adv-x="581" 
d="M263 746h-126l-101 143h142zM479 746h-126l-101 143h142zM208 130h331v-130h-469v690h464v-130h-326v-148h293v-130h-293v-152z" />
    <glyph glyph-name="uni0205" unicode="&#x205;" horiz-adv-x="599" 
d="M264 566h-126l-101 143h142zM480 566h-126l-101 143h142zM570 254q0 -25 -3 -46h-395q14 -48 52.5 -76.5t93.5 -28.5q44 0 81 18t59 45l87 -76q-86 -102 -231 -102q-121 0 -202 77t-81 192q0 113 77.5 189t193.5 76q115 0 191.5 -76.5t76.5 -191.5zM301 408
q-48 0 -83 -28.5t-47 -76.5h260q-12 48 -47.5 76.5t-82.5 28.5z" />
    <glyph glyph-name="uni0206" unicode="&#x206;" horiz-adv-x="581" 
d="M305 801q-25 0 -41 -16.5t-16 -41.5h-101q0 65 45.5 108t112.5 43t112 -43t45 -108h-100q0 25 -16.5 41.5t-40.5 16.5zM208 130h331v-130h-469v690h464v-130h-326v-148h293v-130h-293v-152z" />
    <glyph glyph-name="uni0207" unicode="&#x207;" horiz-adv-x="599" 
d="M306 621q-25 0 -41 -16.5t-16 -41.5h-101q0 65 45.5 108t112.5 43t112 -43t45 -108h-100q0 25 -16.5 41.5t-40.5 16.5zM570 254q0 -25 -3 -46h-395q14 -48 52.5 -76.5t93.5 -28.5q44 0 81 18t59 45l87 -76q-86 -102 -231 -102q-121 0 -202 77t-81 192q0 113 77.5 189
t193.5 76q115 0 191.5 -76.5t76.5 -191.5zM301 408q-48 0 -83 -28.5t-47 -76.5h260q-12 48 -47.5 76.5t-82.5 28.5z" />
    <glyph glyph-name="uni0208" unicode="&#x208;" horiz-adv-x="278" 
d="M-28 746l-101 143h142l85 -143h-126zM188 746l-101 143h142l85 -143h-126zM70 0v690h138v-690h-138z" />
    <glyph glyph-name="uni0209" unicode="&#x209;" horiz-adv-x="254" 
d="M-40 566l-101 143h142l85 -143h-126zM176 566l-101 143h142l85 -143h-126zM62 0v510h130v-510h-130z" />
    <glyph glyph-name="uni020A" unicode="&#x20a;" horiz-adv-x="278" 
d="M-18 743q0 65 45.5 108t112.5 43t112 -43t45 -108h-100q0 25 -16.5 41.5t-40.5 16.5q-25 0 -41 -16.5t-16 -41.5h-101zM70 0v690h138v-690h-138z" />
    <glyph glyph-name="uni020B" unicode="&#x20b;" horiz-adv-x="254" 
d="M-31 563q0 65 45.5 108t112.5 43t112 -43t45 -108h-100q0 25 -16.5 41.5t-40.5 16.5q-25 0 -41 -16.5t-16 -41.5h-101zM62 0v510h130v-510h-130z" />
    <glyph glyph-name="uni020C" unicode="&#x20c;" horiz-adv-x="798" 
d="M231 746l-101 143h142l85 -143h-126zM447 746l-101 143h142l85 -143h-126zM399 -12q-155 0 -259.5 102.5t-104.5 254.5t104.5 254.5t259.5 102.5t259.5 -102.5t104.5 -254.5t-104.5 -254.5t-259.5 -102.5zM399 121q95 0 158.5 64t63.5 160t-63.5 160t-158.5 64
t-158.5 -64t-63.5 -160t63.5 -160t158.5 -64z" />
    <glyph glyph-name="uni020D" unicode="&#x20d;" horiz-adv-x="610" 
d="M138 566l-101 143h142l85 -143h-126zM354 566l-101 143h142l85 -143h-126zM305 -12q-117 0 -195.5 76.5t-78.5 190.5t78.5 190.5t195.5 76.5t195.5 -76.5t78.5 -190.5t-78.5 -190.5t-195.5 -76.5zM305 114q60 0 100 40.5t40 100.5t-40 100.5t-100 40.5t-100 -40.5
t-40 -100.5t40 -100.5t100 -40.5z" />
    <glyph glyph-name="uni020E" unicode="&#x20e;" horiz-adv-x="798" 
d="M241 743q0 65 45.5 108t112.5 43t112 -43t45 -108h-100q0 25 -16.5 41.5t-40.5 16.5q-25 0 -41 -16.5t-16 -41.5h-101zM399 -12q-155 0 -259.5 102.5t-104.5 254.5t104.5 254.5t259.5 102.5t259.5 -102.5t104.5 -254.5t-104.5 -254.5t-259.5 -102.5zM399 121
q95 0 158.5 64t63.5 160t-63.5 160t-158.5 64t-158.5 -64t-63.5 -160t63.5 -160t158.5 -64z" />
    <glyph glyph-name="uni020F" unicode="&#x20f;" horiz-adv-x="610" 
d="M148 563q0 65 45.5 108t112.5 43t112 -43t45 -108h-100q0 25 -16.5 41.5t-40.5 16.5q-25 0 -41 -16.5t-16 -41.5h-101zM305 -12q-117 0 -195.5 76.5t-78.5 190.5t78.5 190.5t195.5 76.5t195.5 -76.5t78.5 -190.5t-78.5 -190.5t-195.5 -76.5zM305 114q60 0 100 40.5
t40 100.5t-40 100.5t-100 40.5t-100 -40.5t-40 -100.5t40 -100.5t100 -40.5z" />
    <glyph glyph-name="uni0210" unicode="&#x210;" horiz-adv-x="633" 
d="M275 746h-126l-101 143h142zM491 746h-126l-101 143h142zM449 0l-159 246h-82v-246h-138v690h294q100 0 167 -64.5t67 -161.5q0 -73 -42.5 -129t-112.5 -78l172 -257h-166zM208 560v-194h153q40 0 67.5 28t27.5 69t-27.5 69t-67.5 28h-153z" />
    <glyph glyph-name="uni0211" unicode="&#x211;" horiz-adv-x="375" 
d="M84 709l85 -143h-126l-101 143h142zM385 566h-126l-101 143h142zM192 444q58 74 147 74h22v-134h-22q-69 0 -108 -38t-39 -104v-242h-130v510h130v-66z" />
    <glyph glyph-name="uni0212" unicode="&#x212;" horiz-adv-x="633" 
d="M317 801q-25 0 -41 -16.5t-16 -41.5h-101q0 65 45.5 108t112.5 43t112 -43t45 -108h-100q0 25 -16.5 41.5t-40.5 16.5zM449 0l-159 246h-82v-246h-138v690h294q100 0 167 -64.5t67 -161.5q0 -73 -42.5 -129t-112.5 -78l172 -257h-166zM208 560v-194h153q40 0 67.5 28
t27.5 69t-27.5 69t-67.5 28h-153z" />
    <glyph glyph-name="uni0213" unicode="&#x213;" horiz-adv-x="375" 
d="M211 621q-25 0 -41 -16.5t-16 -41.5h-101q0 65 45.5 108t112.5 43t112 -43t45 -108h-100q0 25 -16.5 41.5t-40.5 16.5zM192 444q58 74 147 74h22v-134h-22q-69 0 -108 -38t-39 -104v-242h-130v510h130v-66z" />
    <glyph glyph-name="uni0214" unicode="&#x214;" horiz-adv-x="686" 
d="M175 746l-101 143h142l85 -143h-126zM391 746l-101 143h142l85 -143h-126zM343 -12q-122 0 -204 80t-82 199v423h138v-421q0 -63 42 -105.5t106 -42.5t106 42.5t42 105.5v421h138v-423q0 -119 -82 -199t-204 -80z" />
    <glyph glyph-name="uni0215" unicode="&#x215;" horiz-adv-x="584" 
d="M124 566l-101 143h142l85 -143h-126zM340 566l-101 143h142l85 -143h-126zM292 -12q-108 0 -173 58.5t-65 156.5v307h130v-289q0 -49 29.5 -78t78.5 -29t78.5 29t29.5 78v289h130v-307q0 -97 -65.5 -156t-172.5 -59z" />
    <glyph glyph-name="uni0216" unicode="&#x216;" horiz-adv-x="686" 
d="M185 743q0 65 45.5 108t112.5 43t112 -43t45 -108h-100q0 25 -16.5 41.5t-40.5 16.5q-25 0 -41 -16.5t-16 -41.5h-101zM343 -12q-122 0 -204 80t-82 199v423h138v-421q0 -63 42 -105.5t106 -42.5t106 42.5t42 105.5v421h138v-423q0 -119 -82 -199t-204 -80z" />
    <glyph glyph-name="uni0217" unicode="&#x217;" horiz-adv-x="584" 
d="M134 563q0 65 45.5 108t112.5 43t112 -43t45 -108h-100q0 25 -16.5 41.5t-40.5 16.5q-25 0 -41 -16.5t-16 -41.5h-101zM292 -12q-108 0 -173 58.5t-65 156.5v307h130v-289q0 -49 29.5 -78t78.5 -29t78.5 29t29.5 78v289h130v-307q0 -97 -65.5 -156t-172.5 -59z" />
    <glyph glyph-name="uni0218" unicode="&#x218;" horiz-adv-x="600" 
d="M310 -12q-79 0 -156.5 29.5t-130.5 78.5l71 105q43 -41 101 -65.5t115 -24.5q53 0 90 22.5t37 57.5q0 17 -9.5 30.5t-21.5 22t-36 17t-38 12.5t-44 11q-240 56 -240 215q0 92 72.5 147.5t189.5 55.5q151 0 239 -86l-64 -104q-30 29 -78.5 48t-98.5 19q-52 0 -85 -21
t-33 -53q0 -60 136 -90q27 -5 52 -12t64 -25t67 -40t49 -59t21 -82q0 -92 -77 -150.5t-192 -58.5zM214 -225l41 170h134l-68 -170h-107z" />
    <glyph glyph-name="uni0219" unicode="&#x219;" horiz-adv-x="481" 
d="M238 -12q-124 0 -215 78l63 86q65 -57 149 -57q40 0 65 12.5t25 35.5t-24.5 35t-75.5 24q-32 7 -51 12.5t-48.5 18t-45.5 27.5t-28.5 41.5t-12.5 59.5q0 77 59 119t149 42q112 0 198 -67l-63 -87q-62 47 -132 47q-35 0 -57.5 -11.5t-22.5 -32.5q0 -23 24 -34.5t76 -22.5
q32 -7 51 -12.5t48.5 -18t45.5 -27.5t28.5 -41.5t12.5 -59.5q0 -78 -61.5 -122.5t-156.5 -44.5zM149 -225l41 170h134l-68 -170h-107z" />
    <glyph glyph-name="uni021A" unicode="&#x21a;" horiz-adv-x="589" 
d="M26 690h537v-130h-199v-560h-138v560h-200v130zM201 -225l41 170h134l-68 -170h-107z" />
    <glyph glyph-name="uni021B" unicode="&#x21b;" horiz-adv-x="410" 
d="M376 391h-137v-212q0 -65 70 -65q31 0 67 17v-121q-41 -22 -95 -22q-85 0 -128.5 45.5t-43.5 124.5v233h-81v119h81v129h130v-129h137v-119zM129 -225l41 170h134l-68 -170h-107z" />
    <glyph glyph-name="uni0232" unicode="&#x232;" horiz-adv-x="674" 
d="M470 866v-109h-264v109h264zM521 690h154l-269 -448v-242h-138v242l-269 448h158l182 -308z" />
    <glyph glyph-name="uni0233" unicode="&#x233;" horiz-adv-x="568" 
d="M416 686v-109h-264v109h264zM418 510h145l-252 -599q-21 -52 -63 -82.5t-92 -30.5q-35 0 -72 14t-62 37l50 102q25 -27 62 -27q40 0 58 40l21 44l-208 502h148l133 -347z" />
    <glyph glyph-name="uni0237" unicode="&#x237;" horiz-adv-x="259" 
d="M37 -202q-41 0 -70 12v117q20 -10 45 -10q55 0 55 54v539h130v-554q0 -73 -40.5 -115.5t-119.5 -42.5z" />
    <glyph glyph-name="uni02BC" unicode="&#x2bc;" horiz-adv-x="139" 
d="M0 498l21 222h118l-41 -222h-98z" />
    <glyph glyph-name="circumflex" unicode="&#x2c6;" horiz-adv-x="355" 
d="M355 566h-122l-55 73l-56 -73h-122l99 143h157z" />
    <glyph glyph-name="caron" unicode="&#x2c7;" horiz-adv-x="355" 
d="M233 709h122l-99 -143h-157l-99 143h122l56 -73z" />
    <glyph glyph-name="breve" unicode="&#x2d8;" horiz-adv-x="315" 
d="M158 556q-67 0 -112.5 43t-45.5 108h101q0 -25 16 -41.5t41 -16.5q24 0 40.5 16.5t16.5 41.5h100q0 -65 -45 -108t-112 -43z" />
    <glyph glyph-name="dotaccent" unicode="&#x2d9;" horiz-adv-x="155" 
d="M77 565q-33 0 -55 21.5t-22 54.5t22 55t55 22t55.5 -22t22.5 -55t-22.5 -54.5t-55.5 -21.5z" />
    <glyph glyph-name="ring" unicode="&#x2da;" horiz-adv-x="205" 
d="M103 554q-44 0 -73.5 28.5t-29.5 71.5t29.5 71.5t73.5 28.5t73 -28.5t29 -71.5t-29 -71.5t-73 -28.5zM103 619q14 0 24 10t10 25t-10 25t-24 10q-15 0 -24.5 -10t-9.5 -25t9.5 -25t24.5 -10z" />
    <glyph glyph-name="ogonek" unicode="&#x2db;" horiz-adv-x="228" 
d="M130 -239q-57 0 -93.5 31t-36.5 79q0 42 30 77.5t78 54.5h98l2 -3q-105 -46 -105 -101q0 -21 14.5 -33t33.5 -12q23 0 48 15l29 -80q-42 -28 -98 -28z" />
    <glyph glyph-name="tilde" unicode="&#x2dc;" horiz-adv-x="358" 
d="M245 572q-32 0 -66.5 20.5t-48.5 20.5q-17 0 -27.5 -11t-10.5 -27h-92q0 62 30 102t84 40q31 0 65.5 -21.5t48.5 -21.5q16 0 27.5 11.5t11.5 28.5h91q0 -63 -29.5 -102.5t-83.5 -39.5z" />
    <glyph glyph-name="hungarumlaut" unicode="&#x2dd;" horiz-adv-x="443" 
d="M0 566l85 143h142l-102 -143h-125zM216 566l85 143h142l-102 -143h-125z" />
    <glyph glyph-name="gravecomb" unicode="&#x300;" horiz-adv-x="0" 
d="M-137 566l-128 143h164l101 -143h-137z" />
    <glyph glyph-name="acutecomb" unicode="&#x301;" horiz-adv-x="0" 
d="M-265 566l101 143h164l-128 -143h-137z" />
    <glyph glyph-name="uni0302" unicode="&#x302;" horiz-adv-x="0" 
d="M0 566h-122l-55 73l-56 -73h-122l99 143h157z" />
    <glyph glyph-name="tildecomb" unicode="&#x303;" horiz-adv-x="0" 
d="M-113 572q-32 0 -66.5 20.5t-48.5 20.5q-17 0 -27.5 -11t-10.5 -27h-92q0 62 30 102t84 40q31 0 65.5 -21.5t48.5 -21.5q16 0 27.5 11.5t11.5 28.5h91q0 -63 -29.5 -102.5t-83.5 -39.5z" />
    <glyph glyph-name="uni0304" unicode="&#x304;" horiz-adv-x="0" 
d="M-264 577v109h264v-109h-264z" />
    <glyph glyph-name="uni0306" unicode="&#x306;" horiz-adv-x="0" 
d="M-157 556q-67 0 -112.5 43t-45.5 108h101q0 -25 16 -41.5t41 -16.5q24 0 40.5 16.5t16.5 41.5h100q0 -65 -45 -108t-112 -43z" />
    <glyph glyph-name="uni0307" unicode="&#x307;" horiz-adv-x="0" 
d="M-78 565q-33 0 -55 21.5t-22 54.5t22 55t55 22t55.5 -22t22.5 -55t-22.5 -54.5t-55.5 -21.5z" />
    <glyph glyph-name="uni0308" unicode="&#x308;" horiz-adv-x="0" 
d="M-289 565q-32 0 -53 21t-21 52t21.5 52t52.5 21t52.5 -21t21.5 -52t-21 -52t-53 -21zM-73 565q-32 0 -53 21t-21 52t21.5 52t52.5 21t52 -21t21 -52t-21 -52t-52 -21z" />
    <glyph glyph-name="uni030A" unicode="&#x30a;" horiz-adv-x="0" 
d="M-102 554q-44 0 -73.5 28.5t-29.5 71.5t29.5 71.5t73.5 28.5t73 -28.5t29 -71.5t-29 -71.5t-73 -28.5zM-102 619q14 0 24 10t10 25t-10 25t-24 10q-15 0 -24.5 -10t-9.5 -25t9.5 -25t24.5 -10z" />
    <glyph glyph-name="uni030B" unicode="&#x30b;" horiz-adv-x="0" 
d="M-443 566l85 143h142l-102 -143h-125zM-227 566l85 143h142l-102 -143h-125z" />
    <glyph glyph-name="uni030C" unicode="&#x30c;" horiz-adv-x="0" 
d="M-122 709h122l-99 -143h-157l-99 143h122l56 -73z" />
    <glyph glyph-name="uni030F" unicode="&#x30f;" horiz-adv-x="0" 
d="M-342 566l-101 143h142l85 -143h-126zM-126 566l-101 143h142l85 -143h-126z" />
    <glyph glyph-name="uni0311" unicode="&#x311;" horiz-adv-x="0" 
d="M-315 563q0 65 45.5 108t112.5 43t112 -43t45 -108h-100q0 25 -16.5 41.5t-40.5 16.5q-25 0 -41 -16.5t-16 -41.5h-101z" />
    <glyph glyph-name="uni0312" unicode="&#x312;" horiz-adv-x="0" 
d="M-175 563l68 170h107l-41 -170h-134z" />
    <glyph glyph-name="dotbelowcomb" unicode="&#x323;" horiz-adv-x="0" 
d="M-78 -208q-33 0 -55 22t-22 55t22 54.5t55 21.5t55.5 -21.5t22.5 -54.5t-22.5 -55t-55.5 -22z" />
    <glyph glyph-name="uni0326" unicode="&#x326;" horiz-adv-x="0" 
d="M-175 -225l41 170h134l-68 -170h-107z" />
    <glyph glyph-name="uni0327" unicode="&#x327;" horiz-adv-x="0" 
d="M-94 -29q40 -3 67 -33t27 -72q0 -47 -34 -78.5t-86 -31.5q-68 0 -113 51l45 54q29 -34 65 -34q19 0 32 11t13 28q0 16 -11.5 27.5t-28.5 11.5q-20 0 -31 -14l-72 33l61 76v2h90v-2z" />
    <glyph glyph-name="uni0328" unicode="&#x328;" horiz-adv-x="0" 
d="M-98 -239q-57 0 -93.5 31t-36.5 79q0 42 30 77.5t78 54.5h98l2 -3q-105 -46 -105 -101q0 -21 14.5 -33t33.5 -12q23 0 48 15l29 -80q-42 -28 -98 -28z" />
    <glyph glyph-name="uni0335" unicode="&#x335;" horiz-adv-x="0" 
d="M-306 228v93h306v-93h-306z" />
    <glyph glyph-name="uni0336" unicode="&#x336;" horiz-adv-x="0" 
d="M-692 226v95h692v-95h-692z" />
    <glyph glyph-name="uni0337" unicode="&#x337;" horiz-adv-x="0" 
d="M-546 0l453 510h93l-453 -510h-93z" />
    <glyph glyph-name="uni0338" unicode="&#x338;" horiz-adv-x="0" 
d="M-709 0l594 690h115l-594 -690h-115z" />
    <glyph glyph-name="uni03BC" unicode="&#x3bc;" horiz-adv-x="605" 
d="M413 510h130v-510h-130v49q-55 -61 -143 -61q-44 0 -78 15v-193h-130v700h130v-287q0 -50 29 -79.5t78 -29.5q51 0 82.5 30.5t31.5 80.5v285z" />
    <glyph glyph-name="uni1E0C" unicode="&#x1e0c;" horiz-adv-x="727" 
d="M340 690q151 0 251.5 -98.5t100.5 -246.5t-100.5 -246.5t-251.5 -98.5h-270v690h270zM337 130q91 0 152 61.5t61 153.5t-61 153.5t-152 61.5h-129v-430h129zM356 -55q33 0 55.5 -21.5t22.5 -54.5t-22.5 -55t-55.5 -22t-55 22t-22 55t22 54.5t55 21.5z" />
    <glyph glyph-name="uni1E0D" unicode="&#x1e0d;" 
d="M448 720h130v-720h-130v61q-67 -73 -166 -73q-106 0 -177.5 76.5t-71.5 190.5t71.5 190.5t177.5 76.5q99 0 166 -73v271zM307 114q61 0 101 40.5t40 100.5t-40 100.5t-101 40.5q-60 0 -100 -40.5t-40 -100.5t40 -100.5t100 -40.5zM317 -55q33 0 55.5 -21.5t22.5 -54.5
t-22.5 -55t-55.5 -22t-55 22t-22 55t22 54.5t55 21.5z" />
    <glyph glyph-name="uni1E24" unicode="&#x1e24;" horiz-adv-x="722" 
d="M514 690h138v-690h-138v282h-306v-282h-138v690h138v-278h306v278zM361 -55q33 0 55.5 -21.5t22.5 -54.5t-22.5 -55t-55.5 -22t-55 22t-22 55t22 54.5t55 21.5z" />
    <glyph glyph-name="uni1E25" unicode="&#x1e25;" horiz-adv-x="607" 
d="M354 522q90 0 144.5 -54t54.5 -144v-324h-130v282q0 52 -30.5 83t-80.5 31q-54 0 -87 -32t-33 -84v-280h-130v720h130v-270q61 72 162 72zM307 -55q33 0 55.5 -21.5t22.5 -54.5t-22.5 -55t-55.5 -22t-55 22t-22 55t22 54.5t55 21.5z" />
    <glyph glyph-name="uni1E44" unicode="&#x1e44;" horiz-adv-x="732" 
d="M369 745q-33 0 -55 21.5t-22 54.5t22 55t55 22t55.5 -22t22.5 -55t-22.5 -54.5t-55.5 -21.5zM524 690h138v-690h-140l-314 453v-453h-138v690h140l314 -453v453z" />
    <glyph glyph-name="uni1E45" unicode="&#x1e45;" horiz-adv-x="607" 
d="M308 565q-33 0 -55 21.5t-22 54.5t22 55t55 22t55.5 -22t22.5 -55t-22.5 -54.5t-55.5 -21.5zM354 522q90 0 144.5 -54t54.5 -144v-324h-130v282q0 52 -30.5 83t-81.5 31q-53 0 -86 -32t-33 -84v-280h-130v510h130v-57q61 69 162 69z" />
    <glyph glyph-name="uni1E5A" unicode="&#x1e5a;" horiz-adv-x="633" 
d="M443 257l172 -257h-166l-159 246h-82v-246h-138v690h294q100 0 167 -64.5t67 -161.5q0 -73 -42.5 -129t-112.5 -78zM208 560v-194h153q40 0 67.5 28t27.5 69t-27.5 69t-67.5 28h-153zM316 -55q33 0 55.5 -21.5t22.5 -54.5t-22.5 -55t-55.5 -22t-55 22t-22 55t22 54.5
t55 21.5z" />
    <glyph glyph-name="uni1E5B" unicode="&#x1e5b;" horiz-adv-x="375" 
d="M339 518h22v-134h-22q-69 0 -108 -38t-39 -104v-242h-130v510h130v-66q58 74 147 74zM127 -55q33 0 55.5 -21.5t22.5 -54.5t-22.5 -55t-55.5 -22t-55 22t-22 55t22 54.5t55 21.5z" />
    <glyph glyph-name="uni1E62" unicode="&#x1e62;" horiz-adv-x="600" 
d="M310 -12q-79 0 -156.5 29.5t-130.5 78.5l71 105q43 -41 101 -65.5t115 -24.5q53 0 90 22.5t37 57.5q0 17 -9.5 30.5t-21.5 22t-36 17t-38 12.5t-44 11q-240 56 -240 215q0 92 72.5 147.5t189.5 55.5q151 0 239 -86l-64 -104q-30 29 -78.5 48t-98.5 19q-52 0 -85 -21
t-33 -53q0 -60 136 -90q27 -5 52 -12t64 -25t67 -40t49 -59t21 -82q0 -92 -77 -150.5t-192 -58.5zM307 -208q-33 0 -55 22t-22 55t22 54.5t55 21.5t55.5 -21.5t22.5 -54.5t-22.5 -55t-55.5 -22z" />
    <glyph glyph-name="uni1E63" unicode="&#x1e63;" horiz-adv-x="481" 
d="M238 -12q-124 0 -215 78l63 86q65 -57 149 -57q40 0 65 12.5t25 35.5t-24.5 35t-75.5 24q-32 7 -51 12.5t-48.5 18t-45.5 27.5t-28.5 41.5t-12.5 59.5q0 77 59 119t149 42q112 0 198 -67l-63 -87q-62 47 -132 47q-35 0 -57.5 -11.5t-22.5 -32.5q0 -23 24 -34.5t76 -22.5
q32 -7 51 -12.5t48.5 -18t45.5 -27.5t28.5 -41.5t12.5 -59.5q0 -78 -61.5 -122.5t-156.5 -44.5zM242 -208q-33 0 -55 22t-22 55t22 54.5t55 21.5t55.5 -21.5t22.5 -54.5t-22.5 -55t-55.5 -22z" />
    <glyph glyph-name="uni1E6C" unicode="&#x1e6c;" horiz-adv-x="589" 
d="M26 690h537v-130h-199v-560h-138v560h-200v130zM295 -55q33 0 55.5 -21.5t22.5 -54.5t-22.5 -55t-55.5 -22t-55 22t-22 55t22 54.5t55 21.5z" />
    <glyph glyph-name="uni1E6D" unicode="&#x1e6d;" horiz-adv-x="410" 
d="M376 391h-137v-212q0 -65 70 -65q31 0 67 17v-121q-41 -22 -95 -22q-85 0 -128.5 45.5t-43.5 124.5v233h-81v119h81v129h130v-129h137v-119zM223 -55q33 0 55.5 -21.5t22.5 -54.5t-22.5 -55t-55.5 -22t-55 22t-22 55t22 54.5t55 21.5z" />
    <glyph glyph-name="Wgrave" unicode="&#x1e80;" horiz-adv-x="1009" 
d="M581 746h-137l-128 143h164zM852 690h142l-215 -690h-138l-136 479l-137 -479h-137l-216 690h146l142 -502l143 502h121l143 -502z" />
    <glyph glyph-name="wgrave" unicode="&#x1e81;" horiz-adv-x="862" 
d="M506 566h-137l-128 143h164zM712 510h142l-181 -510h-134l-108 352l-108 -352h-134l-181 510h145l106 -344l107 344h133l108 -344z" />
    <glyph glyph-name="Wacute" unicode="&#x1e82;" horiz-adv-x="1009" 
d="M695 889l-128 -143h-137l101 143h164zM852 690h142l-215 -690h-138l-136 479l-137 -479h-137l-216 690h146l142 -502l143 502h121l143 -502z" />
    <glyph glyph-name="wacute" unicode="&#x1e83;" horiz-adv-x="862" 
d="M620 709l-128 -143h-137l101 143h164zM712 510h142l-181 -510h-134l-108 352l-108 -352h-134l-181 510h145l106 -344l107 344h133l108 -344z" />
    <glyph glyph-name="Wdieresis" unicode="&#x1e84;" horiz-adv-x="1009" 
d="M397 745q-32 0 -53 21t-21 52t21.5 52t52.5 21t52.5 -21t21.5 -52t-21 -52t-53 -21zM613 745q-32 0 -53 21t-21 52t21.5 52t52.5 21t52 -21t21 -52t-21 -52t-52 -21zM852 690h142l-215 -690h-138l-136 479l-137 -479h-137l-216 690h146l142 -502l143 502h121l143 -502z
" />
    <glyph glyph-name="wdieresis" unicode="&#x1e85;" horiz-adv-x="862" 
d="M323 565q-32 0 -53 21t-21 52t21.5 52t52.5 21t52.5 -21t21.5 -52t-21 -52t-53 -21zM539 565q-32 0 -53 21t-21 52t21.5 52t52.5 21t52 -21t21 -52t-21 -52t-52 -21zM712 510h142l-181 -510h-134l-108 352l-108 -352h-134l-181 510h145l106 -344l107 344h133l108 -344z
" />
    <glyph glyph-name="uni1E92" unicode="&#x1e92;" horiz-adv-x="614" 
d="M225 130h353v-130h-542v99l346 461h-342v130h531v-99zM306 -55q33 0 55.5 -21.5t22.5 -54.5t-22.5 -55t-55.5 -22t-55 22t-22 55t22 54.5t55 21.5z" />
    <glyph glyph-name="uni1E93" unicode="&#x1e93;" horiz-adv-x="497" 
d="M220 126h239v-126h-421v95l232 289h-228v126h410v-95zM248 -55q33 0 55.5 -21.5t22.5 -54.5t-22.5 -55t-55.5 -22t-55 22t-22 55t22 54.5t55 21.5z" />
    <glyph glyph-name="uni1E9E" unicode="&#x1e9e;" horiz-adv-x="653" 
d="M471 419q73 -19 119 -77.5t46 -135.5q0 -94 -64.5 -156t-160.5 -62q-69 0 -116 28v137q14 -13 41 -22.5t52 -9.5q46 0 76 26t30 66q0 37 -25.5 62.5t-64.5 25.5h-77v101l108 158h-167q-29 0 -46.5 -18t-17.5 -47v-495h-138v510q0 80 52 130t135 50h334v-114z" />
    <glyph glyph-name="uni1EA0" unicode="&#x1ea0;" horiz-adv-x="716" 
d="M705 0h-151l-49 134h-296l-49 -134h-149l266 690h163zM255 261h203l-101 277zM357 -55q33 0 55.5 -21.5t22.5 -54.5t-22.5 -55t-55.5 -22t-55 22t-22 55t22 54.5t55 21.5z" />
    <glyph glyph-name="uni1EA1" unicode="&#x1ea1;" 
d="M448 510h130v-510h-130v61q-67 -73 -166 -73q-106 0 -177.5 76.5t-71.5 190.5t71.5 190.5t177.5 76.5q99 0 166 -73v61zM307 114q61 0 101 40.5t40 100.5t-40 100.5t-101 40.5q-60 0 -100 -40.5t-40 -100.5t40 -100.5t100 -40.5zM323 -55q33 0 55.5 -21.5t22.5 -54.5
t-22.5 -55t-55.5 -22t-55 22t-22 55t22 54.5t55 21.5z" />
    <glyph glyph-name="uni1EB8" unicode="&#x1eb8;" horiz-adv-x="581" 
d="M208 130h331v-130h-469v690h464v-130h-326v-148h293v-130h-293v-152zM305 -55q33 0 55.5 -21.5t22.5 -54.5t-22.5 -55t-55.5 -22t-55 22t-22 55t22 54.5t55 21.5z" />
    <glyph glyph-name="uni1EB9" unicode="&#x1eb9;" horiz-adv-x="599" 
d="M570 254q0 -25 -3 -46h-395q14 -48 52.5 -76.5t93.5 -28.5q44 0 81 18t59 45l87 -76q-86 -102 -231 -102q-121 0 -202 77t-81 192q0 113 77.5 189t193.5 76q115 0 191.5 -76.5t76.5 -191.5zM301 408q-48 0 -83 -28.5t-47 -76.5h260q-12 48 -47.5 76.5t-82.5 28.5z
M305 -55q33 0 55.5 -21.5t22.5 -54.5t-22.5 -55t-55.5 -22t-55 22t-22 55t22 54.5t55 21.5z" />
    <glyph glyph-name="uni1EBC" unicode="&#x1ebc;" horiz-adv-x="581" 
d="M255 793q-17 0 -27.5 -11t-10.5 -27h-92q0 62 30 102t84 40q31 0 65.5 -21.5t48.5 -21.5q16 0 27.5 11.5t11.5 28.5h91q0 -63 -29.5 -102.5t-83.5 -39.5q-32 0 -66.5 20.5t-48.5 20.5zM208 130h331v-130h-469v690h464v-130h-326v-148h293v-130h-293v-152z" />
    <glyph glyph-name="uni1EBD" unicode="&#x1ebd;" horiz-adv-x="599" 
d="M256 613q-17 0 -27.5 -11t-10.5 -27h-92q0 62 30 102t84 40q31 0 65.5 -21.5t48.5 -21.5q16 0 27.5 11.5t11.5 28.5h91q0 -63 -29.5 -102.5t-83.5 -39.5q-32 0 -66.5 20.5t-48.5 20.5zM570 254q0 -25 -3 -46h-395q14 -48 52.5 -76.5t93.5 -28.5q44 0 81 18t59 45l87 -76
q-86 -102 -231 -102q-121 0 -202 77t-81 192q0 113 77.5 189t193.5 76q115 0 191.5 -76.5t76.5 -191.5zM301 408q-48 0 -83 -28.5t-47 -76.5h260q-12 48 -47.5 76.5t-82.5 28.5z" />
    <glyph glyph-name="uni1ECA" unicode="&#x1eca;" horiz-adv-x="278" 
d="M70 0v690h138v-690h-138zM139 -208q-33 0 -55 22t-22 55t22 54.5t55 21.5t55.5 -21.5t22.5 -54.5t-22.5 -55t-55.5 -22z" />
    <glyph glyph-name="uni1ECB" unicode="&#x1ecb;" horiz-adv-x="254" 
d="M127 585q-35 0 -58.5 23.5t-23.5 57.5t23.5 57.5t58.5 23.5t58.5 -23.5t23.5 -57.5t-23.5 -57.5t-58.5 -23.5zM62 0v510h130v-510h-130zM127 -208q-33 0 -55 22t-22 55t22 54.5t55 21.5t55.5 -21.5t22.5 -54.5t-22.5 -55t-55.5 -22z" />
    <glyph glyph-name="uni1ECC" unicode="&#x1ecc;" horiz-adv-x="798" 
d="M399 -12q-155 0 -259.5 102.5t-104.5 254.5t104.5 254.5t259.5 102.5t259.5 -102.5t104.5 -254.5t-104.5 -254.5t-259.5 -102.5zM399 121q95 0 158.5 64t63.5 160t-63.5 160t-158.5 64t-158.5 -64t-63.5 -160t63.5 -160t158.5 -64zM399 -208q-33 0 -55 22t-22 55t22 54.5
t55 21.5t55.5 -21.5t22.5 -54.5t-22.5 -55t-55.5 -22z" />
    <glyph glyph-name="uni1ECD" unicode="&#x1ecd;" horiz-adv-x="610" 
d="M305 -12q-117 0 -195.5 76.5t-78.5 190.5t78.5 190.5t195.5 76.5t195.5 -76.5t78.5 -190.5t-78.5 -190.5t-195.5 -76.5zM305 114q60 0 100 40.5t40 100.5t-40 100.5t-100 40.5t-100 -40.5t-40 -100.5t40 -100.5t100 -40.5zM305 -208q-33 0 -55 22t-22 55t22 54.5t55 21.5
t55.5 -21.5t22.5 -54.5t-22.5 -55t-55.5 -22z" />
    <glyph glyph-name="uni1EE4" unicode="&#x1ee4;" horiz-adv-x="686" 
d="M343 -12q-122 0 -204 80t-82 199v423h138v-421q0 -63 42 -105.5t106 -42.5t106 42.5t42 105.5v421h138v-423q0 -119 -82 -199t-204 -80zM343 -208q-33 0 -55 22t-22 55t22 54.5t55 21.5t55.5 -21.5t22.5 -54.5t-22.5 -55t-55.5 -22z" />
    <glyph glyph-name="uni1EE5" unicode="&#x1ee5;" horiz-adv-x="584" 
d="M292 -12q-108 0 -173 58.5t-65 156.5v307h130v-289q0 -49 29.5 -78t78.5 -29t78.5 29t29.5 78v289h130v-307q0 -97 -65.5 -156t-172.5 -59zM292 -208q-33 0 -55 22t-22 55t22 54.5t55 21.5t55.5 -21.5t22.5 -54.5t-22.5 -55t-55.5 -22z" />
    <glyph glyph-name="Ygrave" unicode="&#x1ef2;" horiz-adv-x="674" 
d="M413 746h-137l-128 143h164zM521 690h154l-269 -448v-242h-138v242l-269 448h158l182 -308z" />
    <glyph glyph-name="ygrave" unicode="&#x1ef3;" horiz-adv-x="568" 
d="M360 566h-137l-128 143h164zM418 510h145l-252 -599q-21 -52 -63 -82.5t-92 -30.5q-35 0 -72 14t-62 37l50 102q25 -27 62 -27q40 0 58 40l21 44l-208 502h148l133 -347z" />
    <glyph glyph-name="uni1EF8" unicode="&#x1ef8;" horiz-adv-x="674" 
d="M288 793q-17 0 -27.5 -11t-10.5 -27h-92q0 62 30 102t84 40q31 0 65.5 -21.5t48.5 -21.5q16 0 27.5 11.5t11.5 28.5h91q0 -63 -29.5 -102.5t-83.5 -39.5q-32 0 -66.5 20.5t-48.5 20.5zM521 690h154l-269 -448v-242h-138v242l-269 448h158l182 -308z" />
    <glyph glyph-name="uni1EF9" unicode="&#x1ef9;" horiz-adv-x="568" 
d="M234 613q-17 0 -27.5 -11t-10.5 -27h-92q0 62 30 102t84 40q31 0 65.5 -21.5t48.5 -21.5q16 0 27.5 11.5t11.5 28.5h91q0 -63 -29.5 -102.5t-83.5 -39.5q-32 0 -66.5 20.5t-48.5 20.5zM418 510h145l-252 -599q-21 -52 -63 -82.5t-92 -30.5q-35 0 -72 14t-62 37l50 102
q25 -27 62 -27q40 0 58 40l21 44l-208 502h148l133 -347z" />
    <glyph glyph-name="endash" unicode="&#x2013;" horiz-adv-x="608" 
d="M58 215v117h492v-117h-492z" />
    <glyph glyph-name="emdash" unicode="&#x2014;" horiz-adv-x="1068" 
d="M58 215v117h952v-117h-952z" />
    <glyph glyph-name="quoteleft" unicode="&#x2018;" horiz-adv-x="275" 
d="M39 415l110 275h112l-70 -275h-152z" />
    <glyph glyph-name="quoteright" unicode="&#x2019;" horiz-adv-x="275" 
d="M39 415l70 275h152l-111 -275h-111z" />
    <glyph glyph-name="quotesinglbase" unicode="&#x201a;" horiz-adv-x="259" 
d="M5 -138l70 275h152l-110 -275h-112z" />
    <glyph glyph-name="quotedblleft" unicode="&#x201c;" horiz-adv-x="508" 
d="M39 415l110 275h112l-70 -275h-152zM271 415l111 275h112l-70 -275h-153z" />
    <glyph glyph-name="quotedblright" unicode="&#x201d;" horiz-adv-x="508" 
d="M39 415l70 275h152l-111 -275h-111zM271 415l71 275h152l-111 -275h-112z" />
    <glyph glyph-name="quotedblbase" unicode="&#x201e;" horiz-adv-x="492" 
d="M5 -138l70 275h152l-110 -275h-112zM238 -138l70 275h152l-110 -275h-112z" />
    <glyph glyph-name="dagger" unicode="&#x2020;" horiz-adv-x="494" 
d="M436 510v-117h-130v-583h-118v583h-130v117h130v180h118v-180h130z" />
    <glyph glyph-name="daggerdbl" unicode="&#x2021;" horiz-adv-x="494" 
d="M436 393h-130v-266h130v-117h-130v-200h-118v200h-130v117h130v266h-130v117h130v180h118v-180h130v-117z" />
    <glyph glyph-name="bullet" unicode="&#x2022;" horiz-adv-x="350" 
d="M175 158q-50 0 -83.5 33t-33.5 83t33.5 83t83.5 33t83.5 -33.5t33.5 -82.5t-33.5 -82.5t-83.5 -33.5z" />
    <glyph glyph-name="ellipsis" unicode="&#x2026;" horiz-adv-x="795" 
d="M128 -9q-39 0 -65 26t-26 64t26 64t65 26q38 0 64 -26t26 -64t-26 -64t-64 -26zM397 -9q-38 0 -64 26t-26 64t26 64t64 26q39 0 65 -26t26 -64t-26 -64t-65 -26zM667 -9q-39 0 -65 26t-26 64t26 64t65 26t65 -26t26 -64t-26 -64t-65 -26z" />
    <glyph glyph-name="perthousand" unicode="&#x2030;" horiz-adv-x="1242" 
d="M211 366q-73 0 -122 48.5t-49 120.5q0 71 49 119t122 48t122 -48t49 -119q0 -72 -49 -120.5t-122 -48.5zM111 0l500 690h139l-500 -690h-139zM211 471q27 0 45 18.5t18 45.5q0 26 -18 44t-45 18t-45 -18t-18 -44q0 -27 18 -45.5t45 -18.5zM650 -12q-73 0 -122 48.5
t-49 120.5q0 71 49 119t122 48t122 -48t49 -119q0 -72 -49 -120.5t-122 -48.5zM1031 -12q-73 0 -122 48.5t-49 120.5q0 71 49 119t122 48t122 -48t49 -119q0 -72 -49 -120.5t-122 -48.5zM650 93q27 0 45 18t18 46q0 26 -18 44t-45 18t-45 -18t-18 -44q0 -28 18 -46t45 -18z
M1031 93q27 0 45 18t18 46q0 26 -18 44t-45 18t-45 -18t-18 -44q0 -28 18 -46t45 -18z" />
    <glyph glyph-name="guilsinglleft" unicode="&#x2039;" horiz-adv-x="368" 
d="M337 468l-152 -204l152 -204h-152l-153 204l153 204h152z" />
    <glyph glyph-name="guilsinglright" unicode="&#x203a;" horiz-adv-x="368" 
d="M188 468l153 -204l-153 -204h-152l153 204l-153 204h152z" />
    <glyph glyph-name="fraction" unicode="&#x2044;" horiz-adv-x="196" 
d="M-198 0l473 690h120l-474 -690h-119z" />
    <glyph glyph-name="uni2070" unicode="&#x2070;" horiz-adv-x="395" 
d="M189 359q-72 0 -118 60t-46 154t46 154t118 60q73 0 118.5 -59.5t45.5 -154.5t-45.5 -154.5t-118.5 -59.5zM189 450q29 0 48 34.5t19 88.5t-19 88.5t-48 34.5t-47.5 -34.5t-18.5 -88.5t18.5 -88.5t47.5 -34.5z" />
    <glyph glyph-name="uni2074" unicode="&#x2074;" horiz-adv-x="365" 
d="M341 530v-89h-40v-75h-95v75h-168l-22 77l180 262h105v-250h40zM112 530h94v141z" />
    <glyph glyph-name="uni2075" unicode="&#x2075;" horiz-adv-x="354" 
d="M190 635q61 0 102 -39t41 -97q0 -60 -45 -100t-116 -40q-81 0 -148 54l47 76q41 -39 94 -39q32 0 51.5 15.5t19.5 37.5q0 20 -16 34t-41 14q-32 0 -53 -21l-84 24l21 226h242v-88h-162l-5 -68q22 11 52 11z" />
    <glyph glyph-name="uni2076" unicode="&#x2076;" horiz-adv-x="343" 
d="M203 633q54 0 91 -38.5t37 -94.5q0 -60 -45.5 -100.5t-112.5 -40.5q-72 0 -115.5 47t-43.5 124q0 100 70.5 172t190.5 85l18 -88q-111 -16 -156 -83q30 17 66 17zM172 449q26 0 43.5 14t17.5 36q0 21 -17 35t-43 14q-25 0 -43 -13t-18 -35t17 -36.5t43 -14.5z" />
    <glyph glyph-name="uni2077" unicode="&#x2077;" horiz-adv-x="324" 
d="M21 780h279v-75l-151 -339h-107l146 325h-167v89z" />
    <glyph glyph-name="uni2078" unicode="&#x2078;" horiz-adv-x="356" 
d="M277 581q60 -36 60 -97q0 -53 -45.5 -89t-113.5 -36t-113.5 36t-45.5 89q0 61 60 97q-52 34 -52 89q0 49 43 83t108 34t108 -34t43 -83q0 -55 -52 -89zM178 699q-23 0 -38.5 -11t-15.5 -28t15.5 -28t38.5 -11t38.5 11t15.5 28t-15.5 28t-38.5 11zM178 449q26 0 44 12.5
t18 31.5t-18 31.5t-44 12.5t-43.5 -12.5t-17.5 -31.5t17.5 -31.5t43.5 -12.5z" />
    <glyph glyph-name="uni2079" unicode="&#x2079;" horiz-adv-x="343" 
d="M171 787q72 0 115.5 -47t43.5 -124q0 -101 -71.5 -175t-189.5 -82l-18 88q55 5 95.5 28t60.5 56q-30 -18 -66 -18q-54 0 -91 38.5t-37 94.5q0 61 45 101t113 40zM111 647q0 -21 17 -35t42 -14t43.5 13t18.5 35t-17 36.5t-44 14.5q-25 0 -42.5 -14.5t-17.5 -35.5z" />
    <glyph glyph-name="franc" unicode="&#x20a3;" horiz-adv-x="557" 
d="M520 560h-291v-140h252v-130h-252v-82h173v-119h-173v-89h-138v89h-55v119h55v482h429v-130z" />
    <glyph glyph-name="lira" unicode="&#x20a4;" horiz-adv-x="584" 
d="M241 130h312v-130h-505v130h55v89h-55v84h55v45h-55v84h55v40q0 98 70 164t174 66q120 0 204 -84l-71 -101q-57 52 -132 52q-47 0 -77 -27.5t-30 -69.5v-40h192v-84h-192v-45h192v-84h-192v-89z" />
    <glyph glyph-name="peseta" unicode="&#x20a7;" horiz-adv-x="663" 
d="M654 489v-88h-45q-15 -90 -84.5 -147t-165.5 -57h-123v-195h-138v399h-55v88h55v203h261q96 0 165.5 -57t84.5 -146h45zM236 562v-73h227q-12 33 -41 53t-66 20h-120zM356 327q38 0 66.5 20t40.5 54h-227v-74h120z" />
    <glyph glyph-name="uni20A8" unicode="&#x20a8;" horiz-adv-x="1112" 
d="M598 464q0 -73 -42.5 -129t-112.5 -78l172 -257h-166l-159 246h-82v-246h-138v690h294q100 0 167 -64.5t67 -161.5zM208 560v-194h153q40 0 67.5 28t27.5 69t-27.5 69t-67.5 28h-153zM901 314q32 -7 51 -12.5t48.5 -18t45.5 -27.5t28.5 -41.5t12.5 -59.5
q0 -78 -61.5 -122.5t-156.5 -44.5q-124 0 -215 78l63 86q65 -57 149 -57q40 0 65 12.5t25 35.5t-24.5 35t-75.5 24q-32 7 -51 12.5t-48.5 18t-45.5 27.5t-28.5 41.5t-12.5 59.5q0 77 59 119t149 42q112 0 198 -67l-63 -87q-62 47 -132 47q-35 0 -57.5 -11.5t-22.5 -32.5
q0 -23 24 -34.5t76 -22.5z" />
    <glyph glyph-name="Euro" unicode="&#x20ac;" horiz-adv-x="753" 
d="M479 569q-72 0 -128 -31.5t-85 -85.5h348l-22 -85h-352q-1 -7 -1 -22t1 -22h341l-22 -85h-293q29 -54 85 -85.5t128 -31.5q63 0 122 25.5t102 69.5v-147q-102 -81 -241 -81q-126 0 -220.5 69t-128.5 181h-84l23 85h47q-1 7 -1 22t1 22h-70l23 85h61q34 112 129 181
t220 69q138 0 241 -80v-148q-92 95 -224 95z" />
    <glyph glyph-name="uni20B1" unicode="&#x20b1;" horiz-adv-x="663" 
d="M654 527v-69h-41v-15v-16h41v-69h-55q-26 -74 -90.5 -118.5t-149.5 -44.5h-123v-195h-138v358h-55v69h55v31h-55v69h55v163h261q85 0 149.5 -44.5t90.5 -118.5h55zM236 568v-41h203q-38 41 -96 41h-107zM471 443q0 10 -1 15h-234v-31h234q1 5 1 16zM343 317q58 0 96 41
h-203v-41h107z" />
    <glyph glyph-name="uni20B5" unicode="&#x20b5;" horiz-adv-x="737" 
d="M448 128q88 15 139 88l117 -76q-43 -62 -109.5 -100.5t-146.5 -46.5v-63h-89v64q-137 17 -225 115t-88 236t88 236t225 115v64h89v-63q80 -8 146.5 -46.5t109.5 -100.5l-117 -76q-51 73 -139 88v-434zM187 345q0 -81 48 -140.5t124 -75.5v432q-76 -16 -124 -75.5
t-48 -140.5z" />
    <glyph glyph-name="uni20B9" unicode="&#x20b9;" horiz-adv-x="589" 
d="M440 601q29 -37 39 -80h87l-31 -88h-50q-9 -87 -72 -144.5t-154 -59.5l246 -229h-187l-252 234v122h178q36 0 63 21.5t35 55.5h-276v88h263q-30 46 -85 46h-178v123h500l-31 -89h-95z" />
    <glyph glyph-name="uni2116" unicode="&#x2116;" horiz-adv-x="1144" 
d="M918 327q-81 0 -135.5 54t-54.5 134t54.5 133.5t135.5 53.5q82 0 136.5 -53.5t54.5 -133.5t-54.5 -134t-136.5 -54zM524 237v453h138v-690h-140l-314 453v-453h-138v690h140zM918 593q-33 0 -55 -22t-22 -56t22 -56.5t55 -22.5q34 0 56 22.5t22 56.5t-22 56t-56 22z
M743 152v117h351v-117h-351z" />
    <glyph glyph-name="trademark" unicode="&#x2122;" horiz-adv-x="655" 
d="M12 623v67h225v-67h-77v-230h-71v230h-77zM520 690h87v-297h-70v193l-70 -153h-43l-71 155v-195h-70v297h89l74 -162z" />
    <glyph glyph-name="uni2150" unicode="&#x2150;" horiz-adv-x="870" 
d="M107 276v300l-60 -34l-42 77l129 71h68v-414h-95zM571 690h120l-474 -690h-119zM566 414h279v-75l-151 -339h-107l146 325h-167v89z" />
    <glyph glyph-name="uni2151" unicode="&#x2151;" horiz-adv-x="836" 
d="M107 276v300l-60 -34l-42 77l129 71h68v-414h-95zM571 690h120l-474 -690h-119zM663 421q72 0 115.5 -47t43.5 -124q0 -101 -71.5 -175t-189.5 -82l-18 88q55 5 95.5 28t60.5 56q-30 -18 -66 -18q-54 0 -91 38.5t-37 94.5q0 61 45 101t113 40zM603 281q0 -21 17 -35
t42 -14t43.5 13t18.5 35t-17 36.5t-44 14.5q-25 0 -42.5 -14.5t-17.5 -35.5z" />
    <glyph glyph-name="uni2152" unicode="&#x2152;" horiz-adv-x="1163" 
d="M107 276v300l-60 -34l-42 77l129 71h68v-414h-95zM571 690h120l-474 -690h-119zM957 421q73 0 118.5 -59.5t45.5 -154.5t-45.5 -154.5t-118.5 -59.5q-72 0 -118 60t-46 154t46 154t118 60zM527 343l129 71h68v-414h-95v300l-60 -34zM957 84q29 0 48 34.5t19 88.5
t-19 88.5t-48 34.5t-47.5 -34.5t-18.5 -88.5t18.5 -88.5t47.5 -34.5z" />
    <glyph glyph-name="uni2153" unicode="&#x2153;" horiz-adv-x="837" 
d="M107 276v300l-60 -34l-42 77l129 71h68v-414h-95zM571 690h120l-474 -690h-119zM755 216q63 -32 63 -101q0 -54 -44 -88t-114 -34q-98 0 -154 58l54 70q37 -37 94 -37q29 0 48 12.5t19 32.5t-18.5 33t-46.5 13h-58v81h58q25 0 40.5 10t15.5 26t-18 27t-45 11
q-47 0 -78 -26l-51 68q54 49 141 49q65 0 106.5 -32t41.5 -83q0 -58 -54 -90z" />
    <glyph glyph-name="uni2154" unicode="&#x2154;" horiz-adv-x="904" 
d="M24 353l135 143q39 41 39 67q0 18 -14 28.5t-34 10.5q-41 0 -75 -41l-64 61q22 34 61 54.5t84 20.5q62 0 100 -36t38 -92q0 -62 -52 -116l-85 -88h144v-89h-277v77zM638 690h120l-474 -690h-119zM822 216q63 -32 63 -101q0 -54 -44 -88t-114 -34q-98 0 -154 58l54 70
q37 -37 94 -37q29 0 48 12.5t19 32.5t-18.5 33t-46.5 13h-58v81h58q25 0 40.5 10t15.5 26t-18 27t-45 11q-47 0 -78 -26l-51 68q54 49 141 49q65 0 106.5 -32t41.5 -83q0 -58 -54 -90z" />
    <glyph glyph-name="uni2155" unicode="&#x2155;" horiz-adv-x="860" 
d="M107 276v300l-60 -34l-42 77l129 71h68v-414h-95zM571 690h120l-474 -690h-119zM695 269q61 0 102 -39t41 -97q0 -60 -45 -100t-116 -40q-81 0 -148 54l47 76q41 -39 94 -39q32 0 51.5 15.5t19.5 37.5q0 20 -16 34t-41 14q-32 0 -53 -21l-84 24l21 226h242v-88h-162
l-5 -68q22 11 52 11z" />
    <glyph glyph-name="uni2156" unicode="&#x2156;" horiz-adv-x="927" 
d="M24 353l135 143q39 41 39 67q0 18 -14 28.5t-34 10.5q-41 0 -75 -41l-64 61q22 34 61 54.5t84 20.5q62 0 100 -36t38 -92q0 -62 -52 -116l-85 -88h144v-89h-277v77zM638 690h120l-474 -690h-119zM762 269q61 0 102 -39t41 -97q0 -60 -45 -100t-116 -40q-81 0 -148 54
l47 76q41 -39 94 -39q32 0 51.5 15.5t19.5 37.5q0 20 -16 34t-41 14q-32 0 -53 -21l-84 24l21 226h242v-88h-162l-5 -68q22 11 52 11z" />
    <glyph glyph-name="uni2157" unicode="&#x2157;" horiz-adv-x="914" 
d="M321 391q0 -54 -44 -88t-114 -34q-98 0 -154 58l54 70q37 -37 94 -37q29 0 48 12.5t19 32.5t-18.5 33t-46.5 13h-58v81h58q25 0 40.5 10t15.5 26t-18 27t-45 11q-47 0 -78 -26l-51 68q54 49 141 49q65 0 106.5 -32t41.5 -83q0 -58 -54 -90q63 -32 63 -101zM625 690h120
l-474 -690h-119zM749 269q61 0 102 -39t41 -97q0 -60 -45 -100t-116 -40q-81 0 -148 54l47 76q41 -39 94 -39q32 0 51.5 15.5t19.5 37.5q0 20 -16 34t-41 14q-32 0 -53 -21l-84 24l21 226h242v-88h-162l-5 -68q22 11 52 11z" />
    <glyph glyph-name="uni2158" unicode="&#x2158;" horiz-adv-x="943" 
d="M206 276v75h-168l-22 77l180 262h105v-250h40v-89h-40v-75h-95zM654 690h120l-474 -690h-119zM112 440h94v141zM778 269q61 0 102 -39t41 -97q0 -60 -45 -100t-116 -40q-81 0 -148 54l47 76q41 -39 94 -39q32 0 51.5 15.5t19.5 37.5q0 20 -16 34t-41 14q-32 0 -53 -21
l-84 24l21 226h242v-88h-162l-5 -68q22 11 52 11z" />
    <glyph glyph-name="uni2159" unicode="&#x2159;" horiz-adv-x="790" 
d="M107 276v300l-60 -34l-42 77l129 71h68v-414h-95zM571 690h120l-474 -690h-119zM650 267q54 0 91 -38.5t37 -94.5q0 -60 -45.5 -100.5t-112.5 -40.5q-72 0 -115.5 47t-43.5 124q0 100 70.5 172t190.5 85l18 -88q-111 -16 -156 -83q30 17 66 17zM619 83q26 0 43.5 14
t17.5 36q0 21 -17 35t-43 14q-25 0 -43 -13t-18 -35t17 -36.5t43 -14.5z" />
    <glyph glyph-name="uni215A" unicode="&#x215a;" horiz-adv-x="848" 
d="M165 360q32 0 51.5 15.5t19.5 37.5q0 20 -16 34t-41 14q-32 0 -53 -21l-84 24l21 226h242v-88h-162l-5 -68q22 11 52 11q61 0 102 -39t41 -97q0 -60 -45 -100t-116 -40q-81 0 -148 54l47 76q41 -39 94 -39zM629 690h120l-474 -690h-119zM708 267q54 0 91 -38.5t37 -94.5
q0 -60 -45.5 -100.5t-112.5 -40.5q-72 0 -115.5 47t-43.5 124q0 100 70.5 172t190.5 85l18 -88q-111 -16 -156 -83q30 17 66 17zM677 83q26 0 43.5 14t17.5 36q0 21 -17 35t-43 14q-25 0 -43 -13t-18 -35t17 -36.5t43 -14.5z" />
    <glyph glyph-name="oneeighth" unicode="&#x215b;" horiz-adv-x="854" 
d="M107 276v300l-60 -34l-42 77l129 71h68v-414h-95zM571 690h120l-474 -690h-119zM774 215q60 -36 60 -97q0 -53 -45.5 -89t-113.5 -36t-113.5 36t-45.5 89q0 61 60 97q-52 34 -52 89q0 49 43 83t108 34t108 -34t43 -83q0 -55 -52 -89zM675 333q-23 0 -38.5 -11t-15.5 -28
t15.5 -28t38.5 -11t38.5 11t15.5 28t-15.5 28t-38.5 11zM675 83q26 0 44 12.5t18 31.5t-18 31.5t-44 12.5t-43.5 -12.5t-17.5 -31.5t17.5 -31.5t43.5 -12.5z" />
    <glyph glyph-name="threeeighths" unicode="&#x215c;" horiz-adv-x="908" 
d="M321 391q0 -54 -44 -88t-114 -34q-98 0 -154 58l54 70q37 -37 94 -37q29 0 48 12.5t19 32.5t-18.5 33t-46.5 13h-58v81h58q25 0 40.5 10t15.5 26t-18 27t-45 11q-47 0 -78 -26l-51 68q54 49 141 49q65 0 106.5 -32t41.5 -83q0 -58 -54 -90q63 -32 63 -101zM625 690h120
l-474 -690h-119zM828 215q60 -36 60 -97q0 -53 -45.5 -89t-113.5 -36t-113.5 36t-45.5 89q0 61 60 97q-52 34 -52 89q0 49 43 83t108 34t108 -34t43 -83q0 -55 -52 -89zM729 333q-23 0 -38.5 -11t-15.5 -28t15.5 -28t38.5 -11t38.5 11t15.5 28t-15.5 28t-38.5 11zM729 83
q26 0 44 12.5t18 31.5t-18 31.5t-44 12.5t-43.5 -12.5t-17.5 -31.5t17.5 -31.5t43.5 -12.5z" />
    <glyph glyph-name="fiveeighths" unicode="&#x215d;" horiz-adv-x="912" 
d="M165 360q32 0 51.5 15.5t19.5 37.5q0 20 -16 34t-41 14q-32 0 -53 -21l-84 24l21 226h242v-88h-162l-5 -68q22 11 52 11q61 0 102 -39t41 -97q0 -60 -45 -100t-116 -40q-81 0 -148 54l47 76q41 -39 94 -39zM629 690h120l-474 -690h-119zM832 215q60 -36 60 -97
q0 -53 -45.5 -89t-113.5 -36t-113.5 36t-45.5 89q0 61 60 97q-52 34 -52 89q0 49 43 83t108 34t108 -34t43 -83q0 -55 -52 -89zM733 333q-23 0 -38.5 -11t-15.5 -28t15.5 -28t38.5 -11t38.5 11t15.5 28t-15.5 28t-38.5 11zM733 83q26 0 44 12.5t18 31.5t-18 31.5t-44 12.5
t-43.5 -12.5t-17.5 -31.5t17.5 -31.5t43.5 -12.5z" />
    <glyph glyph-name="seveneighths" unicode="&#x215e;" horiz-adv-x="832" 
d="M149 276h-107l146 325h-167v89h279v-75zM549 690h120l-474 -690h-119zM752 215q60 -36 60 -97q0 -53 -45.5 -89t-113.5 -36t-113.5 36t-45.5 89q0 61 60 97q-52 34 -52 89q0 49 43 83t108 34t108 -34t43 -83q0 -55 -52 -89zM653 333q-23 0 -38.5 -11t-15.5 -28t15.5 -28
t38.5 -11t38.5 11t15.5 28t-15.5 28t-38.5 11zM653 83q26 0 44 12.5t18 31.5t-18 31.5t-44 12.5t-43.5 -12.5t-17.5 -31.5t17.5 -31.5t43.5 -12.5z" />
    <glyph glyph-name="uni215F" unicode="&#x215f;" horiz-adv-x="492" 
d="M107 276v300l-60 -34l-42 77l129 71h68v-414h-95zM571 690h120l-474 -690h-119z" />
    <glyph glyph-name="uni2189" unicode="&#x2189;" horiz-adv-x="929" 
d="M353 483q0 -95 -45.5 -154.5t-118.5 -59.5q-72 0 -118 60t-46 154t46 154t118 60q73 0 118.5 -59.5t45.5 -154.5zM663 690h120l-474 -690h-119zM189 360q29 0 48 34.5t19 88.5t-19 88.5t-48 34.5t-47.5 -34.5t-18.5 -88.5t18.5 -88.5t47.5 -34.5zM847 216q63 -32 63 -101
q0 -54 -44 -88t-114 -34q-98 0 -154 58l54 70q37 -37 94 -37q29 0 48 12.5t19 32.5t-18.5 33t-46.5 13h-58v81h58q25 0 40.5 10t15.5 26t-18 27t-45 11q-47 0 -78 -26l-51 68q54 49 141 49q65 0 106.5 -32t41.5 -83q0 -58 -54 -90z" />
    <glyph glyph-name="arrowleft" unicode="&#x2190;" horiz-adv-x="654" 
d="M592 403v-117h-320l97 -94l-78 -77l-229 229l229 230l78 -77l-96 -94h319z" />
    <glyph glyph-name="arrowup" unicode="&#x2191;" horiz-adv-x="654" 
d="M557 381l-77 -78l-94 97v-320h-118v318l-93 -95l-77 78l230 229z" />
    <glyph glyph-name="arrowright" unicode="&#x2192;" horiz-adv-x="654" 
d="M363 574l229 -230l-229 -229l-78 77l97 94h-320v118h318l-95 93z" />
    <glyph glyph-name="arrowdown" unicode="&#x2193;" horiz-adv-x="654" 
d="M480 387l77 -78l-229 -229l-230 229l77 78l93 -95v318h118v-320z" />
    <glyph glyph-name="uni2196" unicode="&#x2196;" horiz-adv-x="654" 
d="M536 220l-84 -84l-225 225l2 -133h-110v324l324 2v-111l-132 2z" />
    <glyph glyph-name="uni2197" unicode="&#x2197;" horiz-adv-x="654" 
d="M211 554l324 -2v-324h-109l2 135l-226 -226l-84 83l226 226l-133 -2v110z" />
    <glyph glyph-name="uni2198" unicode="&#x2198;" horiz-adv-x="654" 
d="M426 462h110v-324l-324 -2v111l132 -2l-225 225l83 84l226 -226z" />
    <glyph glyph-name="uni2199" unicode="&#x2199;" horiz-adv-x="654" 
d="M536 470l-225 -225l132 2v-111l-324 2v324h110l-2 -133l225 225z" />
    <glyph glyph-name="minus" unicode="&#x2212;" horiz-adv-x="534" 
d="M58 237v117h418v-117h-418z" />
    <glyph glyph-name="approxequal" unicode="&#x2248;" horiz-adv-x="580" 
d="M378 323q-42 0 -90 26t-64 26q-21 0 -34 -13.5t-13 -33.5h-119q0 80 35.5 128t108.5 48q42 0 90 -26t64 -26q20 0 33.5 13.5t13.5 33.5h119q0 -80 -35.5 -128t-108.5 -48zM378 94q-42 0 -90 26t-64 26q-21 0 -34 -13.5t-13 -33.5h-119q0 80 35.5 128t108.5 48
q42 0 90 -26t64 -26q20 0 33.5 13.5t13.5 33.5h119q0 -80 -35.5 -128t-108.5 -48z" />
    <glyph glyph-name="notequal" unicode="&#x2260;" horiz-adv-x="534" 
d="M476 335h-135l-34 -79h169v-117h-220l-32 -74h-114l32 74h-84v117h135l34 79h-169v117h220l32 73h114l-32 -73h84v-117z" />
    <glyph glyph-name="lessequal" unicode="&#x2264;" horiz-adv-x="464" 
d="M406 586v-129l-222 -69l222 -69v-130l-348 133v131zM58 32v117h348v-117h-348z" />
    <glyph glyph-name="greaterequal" unicode="&#x2265;" horiz-adv-x="464" 
d="M58 586l348 -133v-131l-348 -133v130l222 69l-222 69v129zM58 32v117h348v-117h-348z" />
    <glyph glyph-name="uni279D" unicode="&#x279d;" horiz-adv-x="1082" 
d="M1006 345l-214 -214v155h-716v118h716v155z" />
    <glyph glyph-name="uni27F5" unicode="&#x27f5;" horiz-adv-x="1082" 
d="M1006 403v-117h-720l97 -94l-78 -77l-229 229l229 230l78 -77l-96 -94h719z" />
    <glyph glyph-name="uni27F6" unicode="&#x27f6;" horiz-adv-x="1082" 
d="M777 574l229 -230l-229 -229l-78 77l97 94h-720v117h719l-96 94z" />
    <glyph glyph-name="G.ss05" horiz-adv-x="796" 
d="M414 388h332v-388h-121v93q-85 -105 -229 -105q-154 0 -257.5 102.5t-103.5 254.5t104.5 254.5t259.5 102.5q90 0 166 -36t122 -99l-104 -83q-67 86 -181 86q-96 0 -160.5 -64t-64.5 -161t64 -161t160 -64q74 0 130 40t75 105h-192v123z" />
    <glyph glyph-name="uni01F4.ss05" horiz-adv-x="796" 
d="M589 889l-128 -143h-137l101 143h164zM414 388h332v-388h-121v93q-85 -105 -229 -105q-154 0 -257.5 102.5t-103.5 254.5t104.5 254.5t259.5 102.5q90 0 166 -36t122 -99l-104 -83q-67 86 -181 86q-96 0 -160.5 -64t-64.5 -161t64 -161t160 -64q74 0 130 40t75 105h-192
v123z" />
    <glyph glyph-name="Gbreve.ss05" horiz-adv-x="796" 
d="M399 736q-67 0 -112.5 43t-45.5 108h101q0 -25 16 -41.5t41 -16.5q24 0 40.5 16.5t16.5 41.5h100q0 -65 -45 -108t-112 -43zM414 388h332v-388h-121v93q-85 -105 -229 -105q-154 0 -257.5 102.5t-103.5 254.5t104.5 254.5t259.5 102.5q90 0 166 -36t122 -99l-104 -83
q-67 86 -181 86q-96 0 -160.5 -64t-64.5 -161t64 -161t160 -64q74 0 130 40t75 105h-192v123z" />
    <glyph glyph-name="Gcaron.ss05" horiz-adv-x="796" 
d="M477 746h-157l-99 143h122l56 -73l55 73h122zM414 388h332v-388h-121v93q-85 -105 -229 -105q-154 0 -257.5 102.5t-103.5 254.5t104.5 254.5t259.5 102.5q90 0 166 -36t122 -99l-104 -83q-67 86 -181 86q-96 0 -160.5 -64t-64.5 -161t64 -161t160 -64q74 0 130 40
t75 105h-192v123z" />
    <glyph glyph-name="Gcircumflex.ss05" horiz-adv-x="796" 
d="M399 819l-56 -73h-122l99 143h157l99 -143h-122zM414 388h332v-388h-121v93q-85 -105 -229 -105q-154 0 -257.5 102.5t-103.5 254.5t104.5 254.5t259.5 102.5q90 0 166 -36t122 -99l-104 -83q-67 86 -181 86q-96 0 -160.5 -64t-64.5 -161t64 -161t160 -64q74 0 130 40
t75 105h-192v123z" />
    <glyph glyph-name="uni0122.ss05" horiz-adv-x="796" 
d="M414 388h332v-388h-121v93q-85 -105 -229 -105q-154 0 -257.5 102.5t-103.5 254.5t104.5 254.5t259.5 102.5q90 0 166 -36t122 -99l-104 -83q-67 86 -181 86q-96 0 -160.5 -64t-64.5 -161t64 -161t160 -64q74 0 130 40t75 105h-192v123zM305 -225l41 170h134l-68 -170
h-107z" />
    <glyph glyph-name="Gdotaccent.ss05" horiz-adv-x="796" 
d="M399 745q-33 0 -55 21.5t-22 54.5t22 55t55 22t55.5 -22t22.5 -55t-22.5 -54.5t-55.5 -21.5zM414 388h332v-388h-121v93q-85 -105 -229 -105q-154 0 -257.5 102.5t-103.5 254.5t104.5 254.5t259.5 102.5q90 0 166 -36t122 -99l-104 -83q-67 86 -181 86q-96 0 -160.5 -64
t-64.5 -161t64 -161t160 -64q74 0 130 40t75 105h-192v123z" />
    <glyph glyph-name="i.loclTRK" horiz-adv-x="254" 
d="M127 565q-33 0 -55 21.5t-22 54.5t22 55t55 22t55.5 -22t22.5 -55t-22.5 -54.5t-55.5 -21.5zM62 0v510h130v-510h-130z" />
    <glyph glyph-name="a.ss01" horiz-adv-x="550" 
d="M263 522q103 0 168 -55.5t65 -148.5v-318h-119v40q-55 -52 -147 -52q-87 0 -144.5 46t-57.5 117t57 117t142 46q83 0 139 -45v38q0 46 -31.5 73t-85.5 27q-74 0 -128 -48l-68 81q80 82 210 82zM261 89q45 0 75 18t30 44q0 27 -30 44.5t-75 17.5q-43 0 -71 -17t-28 -45
t28 -45t71 -17z" />
    <glyph glyph-name="aacute.ss01" horiz-adv-x="550" 
d="M459 709l-128 -143h-137l101 143h164zM263 522q103 0 168 -55.5t65 -148.5v-318h-119v40q-55 -52 -147 -52q-87 0 -144.5 46t-57.5 117t57 117t142 46q83 0 139 -45v38q0 46 -31.5 73t-85.5 27q-74 0 -128 -48l-68 81q80 82 210 82zM261 89q45 0 75 18t30 44
q0 27 -30 44.5t-75 17.5q-43 0 -71 -17t-28 -45t28 -45t71 -17z" />
    <glyph glyph-name="abreve.ss01" horiz-adv-x="550" 
d="M270 556q-67 0 -112.5 43t-45.5 108h101q0 -25 16 -41.5t41 -16.5q24 0 40.5 16.5t16.5 41.5h100q0 -65 -45 -108t-112 -43zM263 522q103 0 168 -55.5t65 -148.5v-318h-119v40q-55 -52 -147 -52q-87 0 -144.5 46t-57.5 117t57 117t142 46q83 0 139 -45v38q0 46 -31.5 73
t-85.5 27q-74 0 -128 -48l-68 81q80 82 210 82zM261 89q45 0 75 18t30 44q0 27 -30 44.5t-75 17.5q-43 0 -71 -17t-28 -45t28 -45t71 -17z" />
    <glyph glyph-name="uni01CE.ss01" horiz-adv-x="550" 
d="M348 566h-157l-99 143h122l56 -73l55 73h122zM263 522q103 0 168 -55.5t65 -148.5v-318h-119v40q-55 -52 -147 -52q-87 0 -144.5 46t-57.5 117t57 117t142 46q83 0 139 -45v38q0 46 -31.5 73t-85.5 27q-74 0 -128 -48l-68 81q80 82 210 82zM261 89q45 0 75 18t30 44
q0 27 -30 44.5t-75 17.5q-43 0 -71 -17t-28 -45t28 -45t71 -17z" />
    <glyph glyph-name="acircumflex.ss01" horiz-adv-x="550" 
d="M270 639l-56 -73h-122l99 143h157l99 -143h-122zM263 522q103 0 168 -55.5t65 -148.5v-318h-119v40q-55 -52 -147 -52q-87 0 -144.5 46t-57.5 117t57 117t142 46q83 0 139 -45v38q0 46 -31.5 73t-85.5 27q-74 0 -128 -48l-68 81q80 82 210 82zM261 89q45 0 75 18t30 44
q0 27 -30 44.5t-75 17.5q-43 0 -71 -17t-28 -45t28 -45t71 -17z" />
    <glyph glyph-name="uni0201.ss01" horiz-adv-x="550" 
d="M228 566h-126l-101 143h142zM444 566h-126l-101 143h142zM263 522q103 0 168 -55.5t65 -148.5v-318h-119v40q-55 -52 -147 -52q-87 0 -144.5 46t-57.5 117t57 117t142 46q83 0 139 -45v38q0 46 -31.5 73t-85.5 27q-74 0 -128 -48l-68 81q80 82 210 82zM261 89q45 0 75 18
t30 44q0 27 -30 44.5t-75 17.5q-43 0 -71 -17t-28 -45t28 -45t71 -17z" />
    <glyph glyph-name="adieresis.ss01" horiz-adv-x="550" 
d="M162 565q-32 0 -53 21t-21 52t21.5 52t52.5 21t52.5 -21t21.5 -52t-21 -52t-53 -21zM378 565q-32 0 -53 21t-21 52t21.5 52t52.5 21t52 -21t21 -52t-21 -52t-52 -21zM263 522q103 0 168 -55.5t65 -148.5v-318h-119v40q-55 -52 -147 -52q-87 0 -144.5 46t-57.5 117t57 117
t142 46q83 0 139 -45v38q0 46 -31.5 73t-85.5 27q-74 0 -128 -48l-68 81q80 82 210 82zM261 89q45 0 75 18t30 44q0 27 -30 44.5t-75 17.5q-43 0 -71 -17t-28 -45t28 -45t71 -17z" />
    <glyph glyph-name="uni1EA1.ss01" horiz-adv-x="550" 
d="M263 522q103 0 168 -55.5t65 -148.5v-318h-119v40q-55 -52 -147 -52q-87 0 -144.5 46t-57.5 117t57 117t142 46q83 0 139 -45v38q0 46 -31.5 73t-85.5 27q-74 0 -128 -48l-68 81q80 82 210 82zM261 89q45 0 75 18t30 44q0 27 -30 44.5t-75 17.5q-43 0 -71 -17t-28 -45
t28 -45t71 -17zM269 -55q33 0 55.5 -21.5t22.5 -54.5t-22.5 -55t-55.5 -22t-55 22t-22 55t22 54.5t55 21.5z" />
    <glyph glyph-name="agrave.ss01" horiz-adv-x="550" 
d="M345 566h-137l-128 143h164zM263 522q103 0 168 -55.5t65 -148.5v-318h-119v40q-55 -52 -147 -52q-87 0 -144.5 46t-57.5 117t57 117t142 46q83 0 139 -45v38q0 46 -31.5 73t-85.5 27q-74 0 -128 -48l-68 81q80 82 210 82zM261 89q45 0 75 18t30 44q0 27 -30 44.5
t-75 17.5q-43 0 -71 -17t-28 -45t28 -45t71 -17z" />
    <glyph glyph-name="uni0203.ss01" horiz-adv-x="550" 
d="M270 621q-25 0 -41 -16.5t-16 -41.5h-101q0 65 45.5 108t112.5 43t112 -43t45 -108h-100q0 25 -16.5 41.5t-40.5 16.5zM263 522q103 0 168 -55.5t65 -148.5v-318h-119v40q-55 -52 -147 -52q-87 0 -144.5 46t-57.5 117t57 117t142 46q83 0 139 -45v38q0 46 -31.5 73
t-85.5 27q-74 0 -128 -48l-68 81q80 82 210 82zM261 89q45 0 75 18t30 44q0 27 -30 44.5t-75 17.5q-43 0 -71 -17t-28 -45t28 -45t71 -17z" />
    <glyph glyph-name="amacron.ss01" horiz-adv-x="550" 
d="M401 686v-109h-264v109h264zM263 522q103 0 168 -55.5t65 -148.5v-318h-119v40q-55 -52 -147 -52q-87 0 -144.5 46t-57.5 117t57 117t142 46q83 0 139 -45v38q0 46 -31.5 73t-85.5 27q-74 0 -128 -48l-68 81q80 82 210 82zM261 89q45 0 75 18t30 44q0 27 -30 44.5
t-75 17.5q-43 0 -71 -17t-28 -45t28 -45t71 -17z" />
    <glyph glyph-name="aogonek.ss01" horiz-adv-x="550" 
d="M474 -131l29 -80q-42 -28 -98 -28q-57 0 -93.5 31t-36.5 79q0 41 28 76t74 54v39q-55 -52 -147 -52q-87 0 -144.5 46t-57.5 117t57 117t142 46q83 0 139 -45v38q0 46 -31.5 73t-85.5 27q-74 0 -128 -48l-68 81q80 82 210 82q103 0 168 -55.5t65 -148.5v-318h-13
q-105 -46 -105 -101q0 -21 14.5 -33t33.5 -12q23 0 48 15zM261 89q45 0 75 18t30 44q0 27 -30 44.5t-75 17.5q-43 0 -71 -17t-28 -45t28 -45t71 -17z" />
    <glyph glyph-name="aring.ss01" horiz-adv-x="550" 
d="M270 554q-44 0 -73.5 28.5t-29.5 71.5t29.5 71.5t73.5 28.5t73 -28.5t29 -71.5t-29 -71.5t-73 -28.5zM270 689q-15 0 -24.5 -10t-9.5 -25t9.5 -25t24.5 -10q14 0 24 10t10 25t-10 25t-24 10zM263 522q103 0 168 -55.5t65 -148.5v-318h-119v40q-55 -52 -147 -52
q-87 0 -144.5 46t-57.5 117t57 117t142 46q83 0 139 -45v38q0 46 -31.5 73t-85.5 27q-74 0 -128 -48l-68 81q80 82 210 82zM261 89q45 0 75 18t30 44q0 27 -30 44.5t-75 17.5q-43 0 -71 -17t-28 -45t28 -45t71 -17z" />
    <glyph glyph-name="atilde.ss01" horiz-adv-x="550" 
d="M220 613q-17 0 -27.5 -11t-10.5 -27h-92q0 62 30 102t84 40q31 0 65.5 -21.5t48.5 -21.5q16 0 27.5 11.5t11.5 28.5h91q0 -63 -29.5 -102.5t-83.5 -39.5q-32 0 -66.5 20.5t-48.5 20.5zM263 522q103 0 168 -55.5t65 -148.5v-318h-119v40q-55 -52 -147 -52q-87 0 -144.5 46
t-57.5 117t57 117t142 46q83 0 139 -45v38q0 46 -31.5 73t-85.5 27q-74 0 -128 -48l-68 81q80 82 210 82zM261 89q45 0 75 18t30 44q0 27 -30 44.5t-75 17.5q-43 0 -71 -17t-28 -45t28 -45t71 -17z" />
    <glyph glyph-name="g.ss02" 
d="M448 510h130v-455q0 -116 -76 -186.5t-203 -70.5q-147 0 -234 93l66 89q58 -63 157 -63q73 0 116.5 38t43.5 101v27q-65 -70 -166 -70q-106 0 -177.5 73t-71.5 182q0 108 71.5 181t177.5 73q101 0 166 -70v58zM307 131q61 0 101 39t40 98q0 58 -40 97t-101 39
q-60 0 -100 -39t-40 -97q0 -59 40 -98t100 -39z" />
    <glyph glyph-name="uni01F5.ss02" 
d="M508 709l-128 -143h-137l101 143h164zM448 510h130v-455q0 -116 -76 -186.5t-203 -70.5q-147 0 -234 93l66 89q58 -63 157 -63q73 0 116.5 38t43.5 101v27q-65 -70 -166 -70q-106 0 -177.5 73t-71.5 182q0 108 71.5 181t177.5 73q101 0 166 -70v58zM307 131q61 0 101 39
t40 98q0 58 -40 97t-101 39q-60 0 -100 -39t-40 -97q0 -59 40 -98t100 -39z" />
    <glyph glyph-name="gbreve.ss02" 
d="M319 556q-67 0 -112.5 43t-45.5 108h101q0 -25 16 -41.5t41 -16.5q24 0 40.5 16.5t16.5 41.5h100q0 -65 -45 -108t-112 -43zM448 510h130v-455q0 -116 -76 -186.5t-203 -70.5q-147 0 -234 93l66 89q58 -63 157 -63q73 0 116.5 38t43.5 101v27q-65 -70 -166 -70
q-106 0 -177.5 73t-71.5 182q0 108 71.5 181t177.5 73q101 0 166 -70v58zM307 131q61 0 101 39t40 98q0 58 -40 97t-101 39q-60 0 -100 -39t-40 -97q0 -59 40 -98t100 -39z" />
    <glyph glyph-name="gcaron.ss02" 
d="M397 566h-157l-99 143h122l56 -73l55 73h122zM448 510h130v-455q0 -116 -76 -186.5t-203 -70.5q-147 0 -234 93l66 89q58 -63 157 -63q73 0 116.5 38t43.5 101v27q-65 -70 -166 -70q-106 0 -177.5 73t-71.5 182q0 108 71.5 181t177.5 73q101 0 166 -70v58zM307 131
q61 0 101 39t40 98q0 58 -40 97t-101 39q-60 0 -100 -39t-40 -97q0 -59 40 -98t100 -39z" />
    <glyph glyph-name="gcircumflex.ss02" 
d="M319 639l-56 -73h-122l99 143h157l99 -143h-122zM448 510h130v-455q0 -116 -76 -186.5t-203 -70.5q-147 0 -234 93l66 89q58 -63 157 -63q73 0 116.5 38t43.5 101v27q-65 -70 -166 -70q-106 0 -177.5 73t-71.5 182q0 108 71.5 181t177.5 73q101 0 166 -70v58zM307 131
q61 0 101 39t40 98q0 58 -40 97t-101 39q-60 0 -100 -39t-40 -97q0 -59 40 -98t100 -39z" />
    <glyph glyph-name="uni0123.ss02" 
d="M406 733l-41 -170h-134l68 170h107zM448 510h130v-455q0 -116 -76 -186.5t-203 -70.5q-147 0 -234 93l66 89q58 -63 157 -63q73 0 116.5 38t43.5 101v27q-65 -70 -166 -70q-106 0 -177.5 73t-71.5 182q0 108 71.5 181t177.5 73q101 0 166 -70v58zM307 131q61 0 101 39
t40 98q0 58 -40 97t-101 39q-60 0 -100 -39t-40 -97q0 -59 40 -98t100 -39z" />
    <glyph glyph-name="gdotaccent.ss02" 
d="M319 565q-33 0 -55 21.5t-22 54.5t22 55t55 22t55.5 -22t22.5 -55t-22.5 -54.5t-55.5 -21.5zM448 510h130v-455q0 -116 -76 -186.5t-203 -70.5q-147 0 -234 93l66 89q58 -63 157 -63q73 0 116.5 38t43.5 101v27q-65 -70 -166 -70q-106 0 -177.5 73t-71.5 182
q0 108 71.5 181t177.5 73q101 0 166 -70v58zM307 131q61 0 101 39t40 98q0 58 -40 97t-101 39q-60 0 -100 -39t-40 -97q0 -59 40 -98t100 -39z" />
    <glyph glyph-name="u.ss03" horiz-adv-x="597" 
d="M404 510h130v-510h-130v54q-60 -66 -157 -66q-87 0 -140 52.5t-53 140.5v329h130v-287q0 -50 29 -79.5t78 -29.5q51 0 82 30.5t31 80.5v285z" />
    <glyph glyph-name="uacute.ss03" horiz-adv-x="597" 
d="M484 709l-128 -143h-137l101 143h164zM404 510h130v-510h-130v54q-60 -66 -157 -66q-87 0 -140 52.5t-53 140.5v329h130v-287q0 -50 29 -79.5t78 -29.5q51 0 82 30.5t31 80.5v285z" />
    <glyph glyph-name="ubreve.ss03" horiz-adv-x="597" 
d="M294 556q-67 0 -112.5 43t-45.5 108h101q0 -25 16 -41.5t41 -16.5q24 0 40.5 16.5t16.5 41.5h100q0 -65 -45 -108t-112 -43zM404 510h130v-510h-130v54q-60 -66 -157 -66q-87 0 -140 52.5t-53 140.5v329h130v-287q0 -50 29 -79.5t78 -29.5q51 0 82 30.5t31 80.5v285z" />
    <glyph glyph-name="ucircumflex.ss03" horiz-adv-x="597" 
d="M294 639l-56 -73h-122l99 143h157l99 -143h-122zM404 510h130v-510h-130v54q-60 -66 -157 -66q-87 0 -140 52.5t-53 140.5v329h130v-287q0 -50 29 -79.5t78 -29.5q51 0 82 30.5t31 80.5v285z" />
    <glyph glyph-name="uni0215.ss03" horiz-adv-x="597" 
d="M252 566h-126l-101 143h142zM468 566h-126l-101 143h142zM404 510h130v-510h-130v54q-60 -66 -157 -66q-87 0 -140 52.5t-53 140.5v329h130v-287q0 -50 29 -79.5t78 -29.5q51 0 82 30.5t31 80.5v285z" />
    <glyph glyph-name="udieresis.ss03" horiz-adv-x="597" 
d="M186 565q-32 0 -53 21t-21 52t21.5 52t52.5 21t52.5 -21t21.5 -52t-21 -52t-53 -21zM402 565q-32 0 -53 21t-21 52t21.5 52t52.5 21t52 -21t21 -52t-21 -52t-52 -21zM404 510h130v-510h-130v54q-60 -66 -157 -66q-87 0 -140 52.5t-53 140.5v329h130v-287q0 -50 29 -79.5
t78 -29.5q51 0 82 30.5t31 80.5v285z" />
    <glyph glyph-name="uni1EE5.ss03" horiz-adv-x="597" 
d="M404 510h130v-510h-130v54q-60 -66 -157 -66q-87 0 -140 52.5t-53 140.5v329h130v-287q0 -50 29 -79.5t78 -29.5q51 0 82 30.5t31 80.5v285zM294 -55q33 0 55.5 -21.5t22.5 -54.5t-22.5 -55t-55.5 -22t-55 22t-22 55t22 54.5t55 21.5z" />
    <glyph glyph-name="ugrave.ss03" horiz-adv-x="597" 
d="M370 566h-137l-128 143h164zM404 510h130v-510h-130v54q-60 -66 -157 -66q-87 0 -140 52.5t-53 140.5v329h130v-287q0 -50 29 -79.5t78 -29.5q51 0 82 30.5t31 80.5v285z" />
    <glyph glyph-name="uhungarumlaut.ss03" horiz-adv-x="597" 
d="M346 709l-102 -143h-125l85 143h142zM460 566h-125l85 143h142zM404 225v285h130v-510h-130v54q-60 -66 -157 -66q-87 0 -140 52.5t-53 140.5v329h130v-287q0 -50 29 -79.5t78 -29.5q51 0 82 30.5t31 80.5z" />
    <glyph glyph-name="uni0217.ss03" horiz-adv-x="597" 
d="M294 621q-25 0 -41 -16.5t-16 -41.5h-101q0 65 45.5 108t112.5 43t112 -43t45 -108h-100q0 25 -16.5 41.5t-40.5 16.5zM404 510h130v-510h-130v54q-60 -66 -157 -66q-87 0 -140 52.5t-53 140.5v329h130v-287q0 -50 29 -79.5t78 -29.5q51 0 82 30.5t31 80.5v285z" />
    <glyph glyph-name="umacron.ss03" horiz-adv-x="597" 
d="M426 686v-109h-264v109h264zM404 510h130v-510h-130v54q-60 -66 -157 -66q-87 0 -140 52.5t-53 140.5v329h130v-287q0 -50 29 -79.5t78 -29.5q51 0 82 30.5t31 80.5v285z" />
    <glyph glyph-name="uogonek.ss03" horiz-adv-x="597" 
d="M524 -131l29 -80q-42 -28 -98 -28q-57 0 -93.5 31t-36.5 79q0 41 28 75.5t73 53.5h-22v54q-60 -66 -157 -66q-87 0 -140 52.5t-53 140.5v329h130v-287q0 -50 29 -79.5t78 -29.5q51 0 82 30.5t31 80.5v285h130v-510h-1q-105 -46 -105 -101q0 -21 14.5 -33t33.5 -12
q23 0 48 15z" />
    <glyph glyph-name="uring.ss03" horiz-adv-x="597" 
d="M294 554q-44 0 -73.5 28.5t-29.5 71.5t29.5 71.5t73.5 28.5t73 -28.5t29 -71.5t-29 -71.5t-73 -28.5zM294 689q-15 0 -24.5 -10t-9.5 -25t9.5 -25t24.5 -10q14 0 24 10t10 25t-10 25t-24 10zM404 510h130v-510h-130v54q-60 -66 -157 -66q-87 0 -140 52.5t-53 140.5v329
h130v-287q0 -50 29 -79.5t78 -29.5q51 0 82 30.5t31 80.5v285z" />
    <glyph glyph-name="utilde.ss03" horiz-adv-x="597" 
d="M244 613q-17 0 -27.5 -11t-10.5 -27h-92q0 62 30 102t84 40q31 0 65.5 -21.5t48.5 -21.5q16 0 27.5 11.5t11.5 28.5h91q0 -63 -29.5 -102.5t-83.5 -39.5q-32 0 -66.5 20.5t-48.5 20.5zM404 510h130v-510h-130v54q-60 -66 -157 -66q-87 0 -140 52.5t-53 140.5v329h130
v-287q0 -50 29 -79.5t78 -29.5q51 0 82 30.5t31 80.5v285z" />
    <glyph glyph-name="w.ss04" horiz-adv-x="875" 
d="M691 510h130v-320q0 -91 -58.5 -146.5t-155.5 -55.5q-113 0 -170 75q-57 -75 -170 -75q-97 0 -155 55t-58 147v320h130v-303q0 -42 25.5 -67.5t68.5 -25.5q42 0 68 25.5t26 67.5v303h130v-303q0 -42 26 -67.5t69 -25.5q42 0 68 25.5t26 67.5v303z" />
    <glyph glyph-name="wacute.ss04" horiz-adv-x="875" 
d="M627 709l-128 -143h-137l101 143h164zM691 510h130v-320q0 -91 -58.5 -146.5t-155.5 -55.5q-113 0 -170 75q-57 -75 -170 -75q-97 0 -155 55t-58 147v320h130v-303q0 -42 25.5 -67.5t68.5 -25.5q42 0 68 25.5t26 67.5v303h130v-303q0 -42 26 -67.5t69 -25.5q42 0 68 25.5
t26 67.5v303z" />
    <glyph glyph-name="wcircumflex.ss04" horiz-adv-x="875" 
d="M438 639l-56 -73h-122l99 143h157l99 -143h-122zM691 510h130v-320q0 -91 -58.5 -146.5t-155.5 -55.5q-113 0 -170 75q-57 -75 -170 -75q-97 0 -155 55t-58 147v320h130v-303q0 -42 25.5 -67.5t68.5 -25.5q42 0 68 25.5t26 67.5v303h130v-303q0 -42 26 -67.5t69 -25.5
q42 0 68 25.5t26 67.5v303z" />
    <glyph glyph-name="wdieresis.ss04" horiz-adv-x="875" 
d="M330 565q-32 0 -53 21t-21 52t21.5 52t52.5 21t52.5 -21t21.5 -52t-21 -52t-53 -21zM546 565q-32 0 -53 21t-21 52t21.5 52t52.5 21t52 -21t21 -52t-21 -52t-52 -21zM691 510h130v-320q0 -91 -58.5 -146.5t-155.5 -55.5q-113 0 -170 75q-57 -75 -170 -75q-97 0 -155 55
t-58 147v320h130v-303q0 -42 25.5 -67.5t68.5 -25.5q42 0 68 25.5t26 67.5v303h130v-303q0 -42 26 -67.5t69 -25.5q42 0 68 25.5t26 67.5v303z" />
    <glyph glyph-name="wgrave.ss04" horiz-adv-x="875" 
d="M513 566h-137l-128 143h164zM691 510h130v-320q0 -91 -58.5 -146.5t-155.5 -55.5q-113 0 -170 75q-57 -75 -170 -75q-97 0 -155 55t-58 147v320h130v-303q0 -42 25.5 -67.5t68.5 -25.5q42 0 68 25.5t26 67.5v303h130v-303q0 -42 26 -67.5t69 -25.5q42 0 68 25.5t26 67.5
v303z" />
    <glyph glyph-name="zero.subs" horiz-adv-x="395" 
d="M189 -121q-72 0 -118 60t-46 154t46 154t118 60q73 0 118.5 -59.5t45.5 -154.5t-45.5 -154.5t-118.5 -59.5zM189 -30q29 0 48 34.5t19 88.5t-19 88.5t-48 34.5t-47.5 -34.5t-18.5 -88.5t18.5 -88.5t47.5 -34.5z" />
    <glyph glyph-name="one.subs" horiz-adv-x="246" 
d="M134 300h68v-414h-95v300l-60 -34l-42 77z" />
    <glyph glyph-name="two.subs" horiz-adv-x="323" 
d="M157 -25h144v-89h-277v77l135 143q39 41 39 67q0 18 -14 28.5t-34 10.5q-41 0 -75 -41l-64 61q22 34 61 54.5t84 20.5q62 0 100 -36t38 -92q0 -62 -52 -116z" />
    <glyph glyph-name="three.subs" horiz-adv-x="340" 
d="M258 102q63 -32 63 -101q0 -54 -44 -88t-114 -34q-98 0 -154 58l54 70q37 -37 94 -37q29 0 48 12.5t19 32.5t-18.5 33t-46.5 13h-58v81h58q25 0 40.5 10t15.5 26t-18 27t-45 11q-47 0 -78 -26l-51 68q54 49 141 49q65 0 106.5 -32t41.5 -83q0 -58 -54 -90z" />
    <glyph glyph-name="four.subs" horiz-adv-x="365" 
d="M341 50v-89h-40v-75h-95v75h-168l-22 77l180 262h105v-250h40zM112 50h94v141z" />
    <glyph glyph-name="five.subs" horiz-adv-x="354" 
d="M190 155q61 0 102 -39t41 -97q0 -60 -45 -100t-116 -40q-81 0 -148 54l47 76q41 -39 94 -39q32 0 51.5 15.5t19.5 37.5q0 20 -16 34t-41 14q-32 0 -53 -21l-84 24l21 226h242v-88h-162l-5 -68q22 11 52 11z" />
    <glyph glyph-name="six.subs" horiz-adv-x="343" 
d="M203 153q54 0 91 -38.5t37 -94.5q0 -60 -45.5 -100.5t-112.5 -40.5q-72 0 -115.5 47t-43.5 124q0 100 70.5 172t190.5 85l18 -88q-111 -16 -156 -83q30 17 66 17zM172 -31q26 0 43.5 14t17.5 36q0 21 -17 35t-43 14q-25 0 -43 -13t-18 -35t17 -36.5t43 -14.5z" />
    <glyph glyph-name="seven.subs" horiz-adv-x="324" 
d="M21 300h279v-75l-151 -339h-107l146 325h-167v89z" />
    <glyph glyph-name="eight.subs" horiz-adv-x="356" 
d="M277 101q60 -36 60 -97q0 -53 -45.5 -89t-113.5 -36t-113.5 36t-45.5 89q0 61 60 97q-52 34 -52 89q0 49 43 83t108 34t108 -34t43 -83q0 -55 -52 -89zM178 219q-23 0 -38.5 -11t-15.5 -28t15.5 -28t38.5 -11t38.5 11t15.5 28t-15.5 28t-38.5 11zM178 -31q26 0 44 12.5
t18 31.5t-18 31.5t-44 12.5t-43.5 -12.5t-17.5 -31.5t17.5 -31.5t43.5 -12.5z" />
    <glyph glyph-name="nine.subs" horiz-adv-x="343" 
d="M171 307q72 0 115.5 -47t43.5 -124q0 -101 -71.5 -175t-189.5 -82l-18 88q55 5 95.5 28t60.5 56q-30 -18 -66 -18q-54 0 -91 38.5t-37 94.5q0 61 45 101t113 40zM111 167q0 -21 17 -35t42 -14t43.5 13t18.5 35t-17 36.5t-44 14.5q-25 0 -42.5 -14.5t-17.5 -35.5z" />
    <glyph glyph-name="zero.dnom" horiz-adv-x="395" 
d="M189 -7q-72 0 -118 60t-46 154t46 154t118 60q73 0 118.5 -59.5t45.5 -154.5t-45.5 -154.5t-118.5 -59.5zM189 84q29 0 48 34.5t19 88.5t-19 88.5t-48 34.5t-47.5 -34.5t-18.5 -88.5t18.5 -88.5t47.5 -34.5z" />
    <glyph glyph-name="one.dnom" horiz-adv-x="246" 
d="M134 414h68v-414h-95v300l-60 -34l-42 77z" />
    <glyph glyph-name="two.dnom" horiz-adv-x="323" 
d="M157 89h144v-89h-277v77l135 143q39 41 39 67q0 18 -14 28.5t-34 10.5q-41 0 -75 -41l-64 61q22 34 61 54.5t84 20.5q62 0 100 -36t38 -92q0 -62 -52 -116z" />
    <glyph glyph-name="three.dnom" horiz-adv-x="340" 
d="M258 216q63 -32 63 -101q0 -54 -44 -88t-114 -34q-98 0 -154 58l54 70q37 -37 94 -37q29 0 48 12.5t19 32.5t-18.5 33t-46.5 13h-58v81h58q25 0 40.5 10t15.5 26t-18 27t-45 11q-47 0 -78 -26l-51 68q54 49 141 49q65 0 106.5 -32t41.5 -83q0 -58 -54 -90z" />
    <glyph glyph-name="four.dnom" horiz-adv-x="365" 
d="M341 164v-89h-40v-75h-95v75h-168l-22 77l180 262h105v-250h40zM112 164h94v141z" />
    <glyph glyph-name="five.dnom" horiz-adv-x="354" 
d="M190 269q61 0 102 -39t41 -97q0 -60 -45 -100t-116 -40q-81 0 -148 54l47 76q41 -39 94 -39q32 0 51.5 15.5t19.5 37.5q0 20 -16 34t-41 14q-32 0 -53 -21l-84 24l21 226h242v-88h-162l-5 -68q22 11 52 11z" />
    <glyph glyph-name="six.dnom" horiz-adv-x="343" 
d="M203 267q54 0 91 -38.5t37 -94.5q0 -60 -45.5 -100.5t-112.5 -40.5q-72 0 -115.5 47t-43.5 124q0 100 70.5 172t190.5 85l18 -88q-111 -16 -156 -83q30 17 66 17zM172 83q26 0 43.5 14t17.5 36q0 21 -17 35t-43 14q-25 0 -43 -13t-18 -35t17 -36.5t43 -14.5z" />
    <glyph glyph-name="seven.dnom" horiz-adv-x="324" 
d="M21 414h279v-75l-151 -339h-107l146 325h-167v89z" />
    <glyph glyph-name="eight.dnom" horiz-adv-x="356" 
d="M277 215q60 -36 60 -97q0 -53 -45.5 -89t-113.5 -36t-113.5 36t-45.5 89q0 61 60 97q-52 34 -52 89q0 49 43 83t108 34t108 -34t43 -83q0 -55 -52 -89zM178 333q-23 0 -38.5 -11t-15.5 -28t15.5 -28t38.5 -11t38.5 11t15.5 28t-15.5 28t-38.5 11zM178 83q26 0 44 12.5
t18 31.5t-18 31.5t-44 12.5t-43.5 -12.5t-17.5 -31.5t17.5 -31.5t43.5 -12.5z" />
    <glyph glyph-name="nine.dnom" horiz-adv-x="343" 
d="M171 421q72 0 115.5 -47t43.5 -124q0 -101 -71.5 -175t-189.5 -82l-18 88q55 5 95.5 28t60.5 56q-30 -18 -66 -18q-54 0 -91 38.5t-37 94.5q0 61 45 101t113 40zM111 281q0 -21 17 -35t42 -14t43.5 13t18.5 35t-17 36.5t-44 14.5q-25 0 -42.5 -14.5t-17.5 -35.5z" />
    <glyph glyph-name="zero.numr" horiz-adv-x="395" 
d="M189 269q-72 0 -118 60t-46 154t46 154t118 60q73 0 118.5 -59.5t45.5 -154.5t-45.5 -154.5t-118.5 -59.5zM189 360q29 0 48 34.5t19 88.5t-19 88.5t-48 34.5t-47.5 -34.5t-18.5 -88.5t18.5 -88.5t47.5 -34.5z" />
    <glyph glyph-name="one.numr" horiz-adv-x="246" 
d="M134 690h68v-414h-95v300l-60 -34l-42 77z" />
    <glyph glyph-name="two.numr" horiz-adv-x="323" 
d="M157 365h144v-89h-277v77l135 143q39 41 39 67q0 18 -14 28.5t-34 10.5q-41 0 -75 -41l-64 61q22 34 61 54.5t84 20.5q62 0 100 -36t38 -92q0 -62 -52 -116z" />
    <glyph glyph-name="three.numr" horiz-adv-x="340" 
d="M258 492q63 -32 63 -101q0 -54 -44 -88t-114 -34q-98 0 -154 58l54 70q37 -37 94 -37q29 0 48 12.5t19 32.5t-18.5 33t-46.5 13h-58v81h58q25 0 40.5 10t15.5 26t-18 27t-45 11q-47 0 -78 -26l-51 68q54 49 141 49q65 0 106.5 -32t41.5 -83q0 -58 -54 -90z" />
    <glyph glyph-name="four.numr" horiz-adv-x="365" 
d="M341 440v-89h-40v-75h-95v75h-168l-22 77l180 262h105v-250h40zM112 440h94v141z" />
    <glyph glyph-name="five.numr" horiz-adv-x="354" 
d="M190 545q61 0 102 -39t41 -97q0 -60 -45 -100t-116 -40q-81 0 -148 54l47 76q41 -39 94 -39q32 0 51.5 15.5t19.5 37.5q0 20 -16 34t-41 14q-32 0 -53 -21l-84 24l21 226h242v-88h-162l-5 -68q22 11 52 11z" />
    <glyph glyph-name="six.numr" horiz-adv-x="343" 
d="M203 543q54 0 91 -38.5t37 -94.5q0 -60 -45.5 -100.5t-112.5 -40.5q-72 0 -115.5 47t-43.5 124q0 100 70.5 172t190.5 85l18 -88q-111 -16 -156 -83q30 17 66 17zM172 359q26 0 43.5 14t17.5 36q0 21 -17 35t-43 14q-25 0 -43 -13t-18 -35t17 -36.5t43 -14.5z" />
    <glyph glyph-name="seven.numr" horiz-adv-x="324" 
d="M21 690h279v-75l-151 -339h-107l146 325h-167v89z" />
    <glyph glyph-name="eight.numr" horiz-adv-x="356" 
d="M277 491q60 -36 60 -97q0 -53 -45.5 -89t-113.5 -36t-113.5 36t-45.5 89q0 61 60 97q-52 34 -52 89q0 49 43 83t108 34t108 -34t43 -83q0 -55 -52 -89zM178 609q-23 0 -38.5 -11t-15.5 -28t15.5 -28t38.5 -11t38.5 11t15.5 28t-15.5 28t-38.5 11zM178 359q26 0 44 12.5
t18 31.5t-18 31.5t-44 12.5t-43.5 -12.5t-17.5 -31.5t17.5 -31.5t43.5 -12.5z" />
    <glyph glyph-name="nine.numr" horiz-adv-x="343" 
d="M171 697q72 0 115.5 -47t43.5 -124q0 -101 -71.5 -175t-189.5 -82l-18 88q55 5 95.5 28t60.5 56q-30 -18 -66 -18q-54 0 -91 38.5t-37 94.5q0 61 45 101t113 40zM111 557q0 -21 17 -35t42 -14t43.5 13t18.5 35t-17 36.5t-44 14.5q-25 0 -42.5 -14.5t-17.5 -35.5z" />
    <glyph glyph-name="exclamdown.case" horiz-adv-x="272" 
d="M136 525q-38 0 -63 25t-25 62t25 62t63 25t63 -24.5t25 -62.5t-25 -62.5t-63 -24.5zM68 0v170l8 300h121l8 -300v-170h-137z" />
    <glyph glyph-name="questiondown.case" horiz-adv-x="510" 
d="M271 525q-38 0 -63 24.5t-25 62.5t25 62.5t63 24.5t63 -25t25 -62t-25 -62t-63 -25zM265 -12q-95 0 -158 55.5t-63 136.5q0 38 16.5 72.5t39.5 59t46 46.5t39.5 44t16.5 42v24h137v-24q0 -40 -24 -78t-52.5 -62.5t-52.5 -55t-24 -57.5q0 -31 23.5 -50.5t62.5 -19.5
q83 0 146 80l89 -91q-45 -57 -108 -89.5t-134 -32.5z" />
    <glyph glyph-name="periodcentered.case" horiz-adv-x="298" 
d="M149 255q-39 0 -65 26t-26 64t26 64t65 26t65 -26t26 -64t-26 -64t-65 -26z" />
    <glyph glyph-name="bullet.case" horiz-adv-x="350" 
d="M175 229q-50 0 -83.5 33t-33.5 83t33.5 83t83.5 33t83.5 -33.5t33.5 -82.5t-33.5 -82.5t-83.5 -33.5z" />
    <glyph glyph-name="asterisk.case" horiz-adv-x="395" 
d="M267 534l29 -12l61 -33l-40 -69l-62 33l-22 19l5 -29v-67h-81v67l5 29l-23 -19l-60 -33l-41 69l61 35l27 10l-27 10l-61 33l41 69l61 -32l22 -19l-5 29v66h81v-66l-5 -28l23 18l61 32l40 -69l-61 -33z" />
    <glyph glyph-name="slash.case" horiz-adv-x="537" 
d="M3 -105l400 900h131l-400 -900h-131z" />
    <glyph glyph-name="backslash.case" horiz-adv-x="537" 
d="M403 -105l-400 900h131l400 -900h-131z" />
    <glyph glyph-name="parenleft.case" horiz-adv-x="361" 
d="M220 -125q-64 85 -103 213.5t-39 256.5t39 256.5t103 213.5h131q-62 -85 -99.5 -213.5t-37.5 -256.5t37.5 -256.5t99.5 -213.5h-131z" />
    <glyph glyph-name="parenright.case" horiz-adv-x="361" 
d="M9 -125q62 85 100 213.5t38 256.5t-38 256.5t-100 213.5h131q65 -85 104 -213.5t39 -256.5t-39 -256.5t-104 -213.5h-131z" />
    <glyph glyph-name="braceleft.case" horiz-adv-x="426" 
d="M285 429q0 -60 -59 -83q59 -25 59 -84v-207q0 -26 15 -41.5t40 -15.5h56v-123h-106q-62 0 -100.5 38.5t-38.5 101.5v213q0 25 -15 40.5t-39 15.5h-39v123h39q24 0 39 15.5t15 40.5v212q0 63 38.5 101.5t100.5 38.5h106v-123h-56q-25 0 -40 -15.5t-15 -41.5v-206z" />
    <glyph glyph-name="braceright.case" horiz-adv-x="426" 
d="M330 407h39v-123h-39q-25 0 -39.5 -15t-14.5 -41v-213q0 -63 -38.5 -101.5t-100.5 -38.5h-107v123h57q24 0 39.5 16t15.5 41v207q0 60 58 84q-58 23 -58 83v206q0 25 -15.5 41t-39.5 16h-57v123h107q62 0 100.5 -38.5t38.5 -101.5v-212q0 -25 14.5 -40.5t39.5 -15.5z" />
    <glyph glyph-name="bracketleft.case" horiz-adv-x="366" 
d="M336 692h-114v-694h114v-123h-248v940h248v-123z" />
    <glyph glyph-name="bracketright.case" horiz-adv-x="366" 
d="M30 815h249v-940h-249v123h114v694h-114v123z" />
    <glyph glyph-name="hyphen.case" horiz-adv-x="408" 
d="M58 283v126h292v-126h-292z" />
    <glyph glyph-name="endash.case" horiz-adv-x="608" 
d="M58 287v117h492v-117h-492z" />
    <glyph glyph-name="emdash.case" horiz-adv-x="1068" 
d="M58 287v117h952v-117h-952z" />
    <glyph glyph-name="guillemotleft.case" horiz-adv-x="655" 
d="M347 549l-152 -204l152 -204h-152l-153 204l153 204h152zM614 549l-153 -204l153 -204h-153l-152 204l152 204h153z" />
    <glyph glyph-name="guillemotright.case" horiz-adv-x="655" 
d="M198 549l153 -204l-153 -204h-152l153 204l-153 204h152zM465 549l153 -204l-153 -204h-152l152 204l-152 204h152z" />
    <glyph glyph-name="guilsinglleft.case" horiz-adv-x="388" 
d="M347 549l-152 -204l152 -204h-152l-153 204l153 204h152z" />
    <glyph glyph-name="guilsinglright.case" horiz-adv-x="388" 
d="M198 549l153 -204l-153 -204h-152l153 204l-153 204h152z" />
    <glyph glyph-name="plus.case" horiz-adv-x="534" 
d="M476 404v-117h-150v-151h-118v151h-150v117h150v150h118v-150h150z" />
    <glyph glyph-name="at.case" horiz-adv-x="833" 
d="M484 513h111v-221q0 -17 10.5 -28t28.5 -11q28 0 45.5 32.5t17.5 84.5q0 109 -79.5 182t-196.5 73q-122 0 -202.5 -80t-80.5 -201q0 -120 80.5 -200t202.5 -80q101 0 168 49l44 -81q-97 -58 -213 -58q-162 0 -269.5 106t-107.5 264t108 264.5t270 106.5q157 0 264 -99
t107 -248q0 -92 -43.5 -147.5t-119.5 -55.5q-87 0 -127 59q-38 -61 -116 -61q-74 0 -122 52t-48 128q0 78 47.5 130t115.5 52q64 0 105 -47v35zM406 269q34 0 56 21.5t22 53.5t-22.5 53.5t-55.5 21.5t-54.5 -21t-21.5 -54q0 -32 22 -53.5t54 -21.5z" />
    <glyph glyph-name="uni030C.alt" horiz-adv-x="0" 
d="M-139 498l21 222h118l-41 -222h-98z" />
    <glyph glyph-name="caron.alt" horiz-adv-x="139" 
d="M0 498l21 222h118l-41 -222h-98z" />
    </font>
</defs>
</svg>
